<svg xmlns="http://www.w3.org/2000/svg" xmlns:xlink="http://www.w3.org/1999/xlink" width="789.925" height="372.403" viewBox="0 0 789.925 372.403"><defs><linearGradient id="a" x1="0.5" y1="-0.708" x2="0.5" y2="0.574" gradientUnits="objectBoundingBox"><stop offset="0" stop-color="#93a5ff"/><stop offset="1" stop-color="#93a5ff" stop-opacity="0"/></linearGradient><linearGradient id="e" x1="0.5" y1="0.5" x2="2.809" y2="0.5" gradientUnits="objectBoundingBox"><stop offset="0" stop-color="#93a5ff" stop-opacity="0"/><stop offset="1" stop-color="#93a5ff"/></linearGradient><linearGradient id="f" x1="0.624" y1="0.5" x2="1.353" y2="0.44" xlink:href="#e"/><filter id="h" x="606.541" y="15.942" width="143.292" height="143.292" filterUnits="userSpaceOnUse"><feOffset dy="3" input="SourceAlpha"/><feGaussianBlur stdDeviation="8.5" result="i"/><feFlood flood-color="#fff" flood-opacity="0.671"/><feComposite operator="in" in2="i"/><feComposite in="SourceGraphic"/></filter><linearGradient id="l" x1="0.584" y1="0.5" x2="2.2" y2="0.5" gradientUnits="objectBoundingBox"><stop offset="0" stop-color="#93a5ff" stop-opacity="0"/><stop offset="1" stop-color="#93a5ff" stop-opacity="0.471"/></linearGradient><linearGradient id="m" x1="0.5" x2="0.5" y2="1" gradientUnits="objectBoundingBox"><stop offset="0" stop-color="#aab8ff"/><stop offset="1" stop-color="#93a5ff"/></linearGradient><filter id="n" x="385.885" y="67.095" width="80.364" height="77.171" filterUnits="userSpaceOnUse"><feOffset dy="3" input="SourceAlpha"/><feGaussianBlur stdDeviation="8.5" result="o"/><feFlood flood-color="#93dcff"/><feComposite operator="in" in2="o"/><feComposite in="SourceGraphic"/></filter><filter id="p" x="385.885" y="81.243" width="80.364" height="77.171" filterUnits="userSpaceOnUse"><feOffset dy="3" input="SourceAlpha"/><feGaussianBlur stdDeviation="8.5" result="q"/><feFlood flood-color="#93dcff"/><feComposite operator="in" in2="q"/><feComposite in="SourceGraphic"/></filter><filter id="r" x="385.885" y="95.391" width="80.364" height="77.171" filterUnits="userSpaceOnUse"><feOffset dy="3" input="SourceAlpha"/><feGaussianBlur stdDeviation="8.5" result="s"/><feFlood flood-color="#93dcff"/><feComposite operator="in" in2="s"/><feComposite in="SourceGraphic"/></filter><filter id="t" x="385.885" y="109.539" width="80.364" height="77.171" filterUnits="userSpaceOnUse"><feOffset dy="3" input="SourceAlpha"/><feGaussianBlur stdDeviation="8.5" result="u"/><feFlood flood-color="#93dcff"/><feComposite operator="in" in2="u"/><feComposite in="SourceGraphic"/></filter><linearGradient id="v" x1="0.64" y1="0.5" x2="1.825" y2="0.563" gradientUnits="objectBoundingBox"><stop offset="0" stop-color="#93a5ff" stop-opacity="0"/><stop offset="1" stop-color="#93a5ff" stop-opacity="0.549"/></linearGradient><linearGradient id="x" x1="0.5" y1="-0.708" x2="0.5" y2="0.988" gradientUnits="objectBoundingBox"><stop offset="0" stop-color="#93a5ff"/><stop offset="1" stop-color="#4c66e8" stop-opacity="0"/></linearGradient></defs><g transform="translate(-249.799 26.195)"><path d="M174.382,364.345C261.535,326.391,376.8,392.245,507.531,379s246-98.994,303.629-49.8,29.337,93.491,21.829,137.292,82.224,98.293,16.269,157.68-170.194-32.537-265.3-28.783S438.4,649.5,361.2,654.208s-171.446-8.76-230.263-81.343S87.229,402.3,174.382,364.345Z" transform="translate(166.113 -308.842)" fill="#363f6d"/><g transform="translate(59 -28)"><g transform="translate(747.647 187.227)"><g transform="translate(0 13.622)" opacity="0.6"><path d="M372.072,314.016l-.059,23.355,32.939,21.07-.007-23.251Z" transform="translate(-372.012 -281.117)" fill="url(#a)"/><path d="M8.413,38.169l38.106,8.35L38.252,8.3,0,0Z" transform="translate(65.836 32.894) rotate(135)" fill="#8c9efc"/></g><g transform="translate(0.317 0)"><path d="M405.044,314v23.36l-32.9,21.066-.041-23.243Z" transform="translate(-339.208 -281.106)" fill="url(#a)"/><path d="M8.413,38.169l38.106,8.35L38.252,8.3,0,0Z" transform="translate(65.836 32.894) rotate(135)" fill="#c2cbff" opacity="0.6"/></g></g><g transform="translate(685.067 226.191)"><g transform="translate(0 9.979)" opacity="0.6"><path d="M372.056,314.016l-.044,17.109,24.13,15.435,0-17.033Z" transform="translate(-372.012 -289.915)" fill="url(#a)"/><path d="M6.163,27.962l27.915,6.117-6.056-28L0,0Z" transform="translate(48.23 24.097) rotate(135)" fill="#8c9efc"/></g><g transform="translate(0.232 0)"><path d="M396.236,314v17.113l-24.1,15.432-.03-17.027Z" transform="translate(-348.006 -289.903)" fill="url(#a)"/><path d="M6.163,27.962l27.915,6.117-6.056-28L0,0Z" transform="translate(48.23 24.097) rotate(135)" fill="#c2cbff" opacity="0.6"/></g></g></g><g transform="translate(249.799 -67.717)"><path d="M633.379,459.379h-152.3V386.457h152.3Z" transform="translate(-481.081 -170.734)" fill="url(#e)"/><g transform="translate(494.391 79.963)"><path d="M0,51.613,106.284,123.6" transform="translate(101.995 -7.473)" fill="none" stroke="#8c9efc" stroke-linecap="round" stroke-width="4" stroke-dasharray="5 15"/><path d="M11.759,11.671,65.022,0,53.467,53.426,0,65.022Z" transform="translate(183.522 12.435) rotate(45)" fill="#8c9efc"/><path d="M664.353,437.555l-183.272.982v-52.08H665.429Z" transform="translate(-481.081 -290.627)" fill="url(#f)"/><path d="M372.106,314v59.219l45.983,29.445.058-59.056Z" transform="translate(-234.561 -255.588)" fill="#798cea"/><path d="M417.97,314.016l.083,59.213-46.04,29.451.009-59.067Z" transform="translate(-188.486 -255.597)" fill="#93a5ff"/><g transform="translate(143.58 71.787)"><path d="M372.106,314v5.722l4.443,2.845.006-5.706Z" transform="translate(-371.379 -314)" fill="#fff" opacity="0.64"/><path d="M372.106,314v5.722l4.443,2.845.006-5.706Z" transform="translate(-372.106 -305.276)" fill="#fff" opacity="0.64"/><path d="M372.106,314v5.722l24.547,16.161.006-5.706Z" transform="translate(-364.448 -309.872)" fill="rgba(41,62,168,0.62)"/><path d="M372.106,314v5.722l24.547,16.161.006-5.706Z" transform="translate(-365.175 -301.148)" fill="rgba(41,62,168,0.62)"/></g><g transform="translate(137.544 0)"><g transform="translate(0.105)" opacity="0.6"><path d="M418.592,314.3v11.933l-45.883,29.337V343.827Z" transform="translate(-326.836 -267.589)" fill="url(#a)"/><g transform="matrix(1, 0, 0, 1, -632.04, -38.44)" filter="url(#h)"><path d="M12.436,11.671,65.7,0,54.144,53.426,0,64.822Z" transform="translate(677.88 38.44) rotate(45)" fill="#c2cbff" opacity="0.6"/></g></g><g transform="translate(0 45.675)"><path d="M372.106,335l.056,12.918,45.984,29.289v-12.6Z" transform="translate(-372.106 -335)" fill="url(#a)"/><path d="M418.076,336.261v11.677L372.164,377.5l.012-11.86Z" transform="translate(-326.185 -335.172)" fill="url(#a)"/></g></g><path d="M372.105,326.882v9.788l32.066,20.3.04-9.556Z" transform="translate(-229.04 -221.213)" fill="#445294"/></g><g transform="translate(488.957 118.515)"><path d="M8.814,39.991l39.925,8.748L40.077,8.692,0,0Z" transform="translate(68.978 42.066) rotate(135)" fill="#8c9efc"/><path d="M406.616,314v44.39l-34.468,22.072-.043-44.267Z" transform="translate(-337.638 -271.934)" fill="#93a5ff"/><g transform="translate(63.345 49.75)"><path d="M374.89,314v3.582l-2.781,1.781,0-3.572Z" transform="translate(-372.106 -314)" fill="#fff" opacity="0.64"/><path d="M374.89,314v3.582l-2.781,1.781,0-3.572Z" transform="translate(-372.106 -308.151)" fill="#fff" opacity="0.64"/><path d="M374.89,314v3.582l-2.781,1.781,0-3.572Z" transform="translate(-372.106 -302.301)" fill="#fff" opacity="0.64"/><path d="M374.89,314v3.582l-2.781,1.781,0-3.572Z" transform="translate(-372.106 -296.452)" fill="#fff" opacity="0.64"/><path d="M374.89,314v3.582l-2.781,1.781,0-3.572Z" transform="translate(-372.106 -290.602)" fill="#fff" opacity="0.64"/><path d="M374.89,314v3.582l-2.781,1.781,0-3.572Z" transform="translate(-372.106 -284.753)" fill="#fff" opacity="0.64"/></g><path d="M372.075,314.016l-.062,44.385,34.511,22.075-.007-44.275Z" transform="translate(-372.012 -271.945)" fill="#798cea"/><g transform="translate(38.838 63.728)"><path d="M377.968,314v3.582l-5.859,3.792,0-3.572Z" transform="translate(-372.106 -314)" fill="#93dcff"/><path d="M377.968,314v3.582l-5.859,3.792,0-3.572Z" transform="translate(-372.106 -307.987)" fill="#93dcff"/><path d="M377.968,314v3.582l-5.859,3.792,0-3.572Z" transform="translate(-372.106 -301.974)" fill="#93dcff"/><path d="M377.968,314v3.582l-5.859,3.792,0-3.572Z" transform="translate(-372.106 -296.277)" fill="#93dcff"/><path d="M377.968,314v3.582l-5.859,3.792,0-3.572Z" transform="translate(-372.106 -290.58)" fill="#93dcff"/><path d="M377.968,314v3.582l-5.859,3.792,0-3.572Z" transform="translate(-372.106 -284.567)" fill="#93dcff"/></g><line x1="68.319" y2="45.949" transform="translate(24 0)" fill="none" stroke="#8c9efc" stroke-linecap="round" stroke-width="4" stroke-dasharray="5 15"/><g transform="translate(46.42 52.334)"><path d="M387.477,314v3.582L372.109,327.7l0-3.572Z" transform="translate(-372.106 -314)" fill="rgba(41,62,168,0.62)"/><path d="M387.477,314v3.582L372.109,327.7l0-3.572Z" transform="translate(-372.106 -308.151)" fill="rgba(41,62,168,0.62)"/><path d="M387.477,314v3.582L372.109,327.7l0-3.572Z" transform="translate(-372.106 -302.301)" fill="rgba(41,62,168,0.62)"/><path d="M387.477,314v3.582L372.109,327.7l0-3.572Z" transform="translate(-372.106 -296.452)" fill="rgba(41,62,168,0.62)"/><path d="M387.477,314v3.582L372.109,327.7l0-3.572Z" transform="translate(-372.106 -290.602)" fill="rgba(41,62,168,0.62)"/><path d="M387.477,314v3.582L372.109,327.7l0-3.572Z" transform="translate(-372.106 -284.753)" fill="rgba(41,62,168,0.62)"/></g><g transform="translate(3.061 49.75)"><path d="M372.106,314v3.582l2.781,1.781,0-3.572Z" transform="translate(-372.106 -314)" fill="#fff" opacity="0.64"/><path d="M372.106,314v3.582L387.473,327.7l0-3.572Z" transform="translate(-367.45 -311.099)" fill="#93dcff"/></g><ellipse cx="7.596" cy="11.393" rx="7.596" ry="11.393" transform="matrix(-0.921, 0.391, -0.391, -0.921, 27.286, 85.349)" fill="#445294"/></g><g transform="translate(255.179 41.521)"><path d="M683.39,469.621H481.081V386.457H683.39Z" transform="translate(-481.081 -241.443)" fill="url(#l)"/><path d="M16.838,76.4l76.27,16.712L76.561,16.6,0,0Z" transform="translate(267.93 65.837) rotate(135)" fill="url(#m)"/><path d="M438.033,314V434.169l-65.845,42.164L372.106,356.4Z" transform="translate(-170.102 -248.163)" fill="#93a5ff"/><path d="M372.132,314.016l-.119,120.16,65.927,42.172L437.927,356.4Z" transform="translate(-235.854 -248.169)" fill="#798cea"/><g transform="translate(224.836 87.222)"><path d="M401.47,314v6.843l-29.357,19.328-.007-6.824Z" transform="translate(-372.106 -314)" fill="rgba(41,62,168,0.62)"/><path d="M401.47,314v6.843l-29.357,19.328-.007-6.824Z" transform="translate(-372.106 -302.826)" fill="rgba(41,62,168,0.62)"/><path d="M401.47,314v6.843l-29.357,19.328-.007-6.824Z" transform="translate(-372.106 -291.651)" fill="rgba(41,62,168,0.62)"/><path d="M401.47,314v6.843l-29.357,19.328-.007-6.824Z" transform="translate(-372.106 -280.477)" fill="rgba(41,62,168,0.62)"/><path d="M401.47,314v6.843l-29.357,19.328-.007-6.824Z" transform="translate(-372.106 -247.464)" fill="rgba(41,62,168,0.62)"/><path d="M401.47,314v6.843l-29.357,19.328-.007-6.824Z" transform="translate(-372.106 -269.302)" fill="rgba(41,62,168,0.62)"/><path d="M401.47,314v6.843l-29.357,19.328-.007-6.824Z" transform="translate(-372.106 -236.29)" fill="rgba(41,62,168,0.62)"/><path d="M401.47,314v6.843l-29.357,19.328-.007-6.824Z" transform="translate(-372.106 -258.128)" fill="rgba(41,62,168,0.62)"/><path d="M401.47,314v6.843l-29.357,19.328-.007-6.824Z" transform="translate(-372.106 -225.115)" fill="rgba(41,62,168,0.62)"/></g><g transform="translate(257.169 82.285)"><path d="M377.426,314v6.843l-5.313,3.4-.007-6.824Z" transform="translate(-372.106 -314)" fill="#fff" opacity="0.64"/><path d="M377.426,314v6.843l-5.313,3.4-.007-6.824Z" transform="translate(-372.106 -302.826)" fill="#fff" opacity="0.64"/><path d="M377.426,314v6.843l-5.313,3.4-.007-6.824Z" transform="translate(-372.106 -292.83)" fill="#fff" opacity="0.64"/><path d="M377.426,314v6.843l-5.313,3.4-.007-6.824Z" transform="translate(-372.106 -281.655)" fill="#fff" opacity="0.64"/><path d="M377.426,314v6.843l-5.313,3.4-.007-6.824Z" transform="translate(-372.106 -248.054)" fill="#fff" opacity="0.64"/><path d="M377.426,314v6.843l-5.313,3.4-.007-6.824Z" transform="translate(-372.106 -270.481)" fill="#fff" opacity="0.64"/><path d="M377.426,314v6.843l-5.313,3.4-.007-6.824Z" transform="translate(-372.106 -236.879)" fill="#fff" opacity="0.64"/><path d="M377.426,314v6.843l-5.313,3.4-.007-6.824Z" transform="translate(-372.106 -259.307)" fill="#fff" opacity="0.64"/><path d="M377.426,314v6.843l-5.313,3.4-.007-6.824Z" transform="translate(-372.106 -225.705)" fill="#fff" opacity="0.64"/></g><g transform="translate(210.352 108.988)"><path d="M383.306,314v6.843l-11.194,7.245-.007-6.824Z" transform="translate(-372.106 -314)" fill="#93dcff"/><path d="M383.306,314v6.843l-11.194,7.245-.007-6.824Z" transform="translate(-372.106 -302.513)" fill="#93dcff"/><path d="M383.306,314v6.843l-11.194,7.245-.007-6.824Z" transform="translate(-372.106 -291.025)" fill="#93dcff"/><path d="M383.306,314v6.843l-11.194,7.245-.007-6.824Z" transform="translate(-372.106 -280.143)" fill="#93dcff"/><path d="M383.306,314v6.843l-11.194,7.245-.007-6.824Z" transform="translate(-372.106 -247.131)" fill="#93dcff"/><path d="M383.306,314v6.843l-11.194,7.245-.007-6.824Z" transform="translate(-372.106 -269.26)" fill="#93dcff"/><path d="M383.306,314v6.843l-11.194,7.245-.007-6.824Z" transform="translate(-372.106 -236.248)" fill="#93dcff"/><path d="M383.306,314v6.843l-11.194,7.245-.007-6.824Z" transform="translate(-372.106 -257.773)" fill="#93dcff"/><path d="M383.306,314v6.843l-11.194,7.245-.007-6.824Z" transform="translate(-372.106 -224.76)" fill="#93dcff"/></g><ellipse cx="14.51" cy="21.765" rx="14.51" ry="21.765" transform="matrix(-0.921, 0.391, -0.391, -0.921, 188.283, 187.429)" fill="#445294"/><g transform="translate(147.312 84.054)"><path d="M372.106,314v6.843l5.313,3.4.007-6.824Z" transform="translate(-372.106 -314)" fill="#fff" opacity="0.64"/><g transform="matrix(1, 0, 0, 1, -402.49, -84.05)" filter="url(#n)"><path d="M372.106,314v6.843l29.357,19.328.007-6.824Z" transform="translate(39.28 -224.4)" fill="#93dcff"/></g><g transform="translate(0 14.148)"><path d="M372.106,314v6.843l5.313,3.4.007-6.824Z" transform="translate(-372.106 -314)" fill="#fff" opacity="0.64"/><g transform="matrix(1, 0, 0, 1, -402.49, -98.2)" filter="url(#p)"><path d="M372.106,314v6.843l29.357,19.328.007-6.824Z" transform="translate(39.28 -210.26)" fill="#93dcff"/></g></g><g transform="translate(0 28.296)"><path d="M372.106,314v6.843l5.313,3.4.007-6.824Z" transform="translate(-372.106 -314)" fill="#fff" opacity="0.64"/><g transform="matrix(1, 0, 0, 1, -402.49, -112.35)" filter="url(#r)"><path d="M372.106,314v6.843l29.357,19.328.007-6.824Z" transform="translate(39.28 -196.11)" fill="#93dcff"/></g></g><g transform="translate(0 42.444)"><path d="M372.106,314v6.843l5.313,3.4.007-6.824Z" transform="translate(-372.106 -314)" fill="#fff" opacity="0.64"/><g transform="matrix(1, 0, 0, 1, -402.49, -126.5)" filter="url(#t)"><path d="M372.106,314v6.843l29.357,19.328.007-6.824Z" transform="translate(39.28 -181.96)" fill="#93dcff"/></g></g></g><line x1="68.319" y2="45.949" transform="translate(106.869 166.715)" fill="none" stroke="#8c9efc" stroke-linecap="round" stroke-width="4" stroke-dasharray="5 15"/></g><g transform="translate(124.079 185.927)"><path d="M641.077,438.537h-160v-52.08h160Z" transform="translate(-481.081 -279.762)" fill="url(#v)"/><path d="M94.129,115.368,0,51.613" transform="translate(45.532 1.348)" fill="none" stroke="#8c9efc" stroke-linecap="round" stroke-width="4" stroke-dasharray="5 15"/><path d="M24.048,10.133,70.285,0,46.414,105.666,0,115.733Z" transform="translate(201.126 0) rotate(45)" fill="#8c9efc"/><path d="M372.079,314.56l.03,50.778,39.965,26,0-51.7Z" transform="translate(-252.814 -232.742)" fill="#798cea"/><path d="M372.106,314v31.513l24.469,15.669.031-31.426Z" transform="translate(-245.147 -217.173)" fill="#445294"/><path d="M323.714,336.35l.147,51.387-91.711,57.5-.007-51.643Z" transform="translate(-72.894 -286.662)" fill="#93a5ff"/><g transform="translate(194.174 61.662)"><path d="M422.653,314v6.843l-50.541,32.038-.007-6.824Z" transform="translate(-372.106 -314)" fill="rgba(41,62,168,0.62)"/><path d="M422.653,314v6.843l-50.541,32.038-.007-6.824Z" transform="translate(-372.106 -303.938)" fill="rgba(41,62,168,0.62)"/><path d="M422.653,314v6.843l-50.541,32.038-.007-6.824Z" transform="translate(-372.106 -293.876)" fill="rgba(41,62,168,0.62)"/><path d="M422.653,314v6.843l-50.541,32.038-.007-6.824Z" transform="translate(-372.106 -283.814)" fill="rgba(41,62,168,0.62)"/></g><g transform="translate(178.63 95.608)"><path d="M383.306,314v6.843l-11.194,7.245-.007-6.824Z" transform="translate(-372.106 -314)" fill="#93dcff"/><path d="M383.306,314v6.843l-11.194,7.245-.007-6.824Z" transform="translate(-372.106 -303.938)" fill="#93dcff"/><path d="M383.306,314v6.843l-11.194,7.245-.007-6.824Z" transform="translate(-372.106 -293.876)" fill="#93dcff"/><path d="M383.306,314v6.843l-11.194,7.245-.007-6.824Z" transform="translate(-372.106 -283.814)" fill="#93dcff"/></g><g transform="translate(168.782 105.447)"><path d="M377.426,314v6.843l-5.313,3.4-.007-6.824Z" transform="translate(-372.106 -314)" fill="#fff" opacity="0.64"/><path d="M377.426,314v6.843l-5.313,3.4-.007-6.824Z" transform="translate(-372.106 -303.938)" fill="#fff" opacity="0.64"/><path d="M377.426,314v6.843l-5.313,3.4-.007-6.824Z" transform="translate(-372.106 -293.876)" fill="#fff" opacity="0.64"/><path d="M377.426,314v6.843l-5.313,3.4-.007-6.824Z" transform="translate(-372.106 -283.814)" fill="#fff" opacity="0.64"/></g></g><g transform="translate(97.268 90.601)"><path d="M14.063,63.806l63.7,13.958-13.82-63.9L0,0Z" transform="translate(110.058 92.059) rotate(135)" fill="#7a8df1"/><path d="M427.169,314v70.825l-54.994,35.216-.069-70.629Z" transform="translate(-317.111 -221.941)" fill="#93a5ff"/><path d="M372.112,314.016l-.1,70.817,55.063,35.222-.011-70.643Z" transform="translate(-372.013 -221.949)" fill="#798cea"/><g transform="translate(6.488 129.24)"><ellipse cx="12.119" cy="18.179" rx="12.119" ry="18.179" transform="matrix(0.921, 0.391, -0.391, 0.921, 71.931, 1.589)" fill="#445294"/><ellipse cx="12.119" cy="18.179" rx="12.119" ry="18.179" transform="matrix(-0.921, 0.391, -0.391, -0.921, 36.517, 33.467)" fill="#445294"/></g><g transform="translate(64.317 108.055)"><path d="M377.426,314v6.843l-5.313,3.4-.007-6.824Z" transform="translate(-339.772 -314)" fill="#fff" opacity="0.64"/><path d="M401.47,314v6.843l-29.357,19.328-.007-6.824Z" transform="translate(-372.106 -309.063)" fill="rgba(41,62,168,0.62)"/></g><g transform="translate(0.082 0)"><path d="M14.494,64.191l63.341,13.56L64.01,13.855,0,0Z" transform="translate(110.023 77.727) rotate(135)" fill="#8c9efc"/><path d="M427.169,314v37.094l-54.994,35.372-.067-37.054Z" transform="translate(-317.193 -259.012)" fill="url(#a)"/><path d="M372.1,314.016v37.2l54.953,35.421V349.412Z" transform="translate(-372.083 -259.02)" fill="url(#x)"/><path d="M14.063,63.806l63.7,13.958-13.82-63.9L0,0Z" transform="translate(109.976 54.988) rotate(135)" fill="#c2cbff" opacity="0.6"/></g></g></g></g></svg>