<?xml version="1.0" standalone="no"?>
<!DOCTYPE svg PUBLIC "-//W3C//DTD SVG 20010904//EN"
 "http://www.w3.org/TR/2001/REC-SVG-20010904/DTD/svg10.dtd">
<svg version="1.0" xmlns="http://www.w3.org/2000/svg"
 width="500.000000pt" height="500.000000pt" viewBox="0 0 500.000000 500.000000"
 preserveAspectRatio="xMidYMid meet">
<metadata>
Created by potrace 1.11, written by Peter Selinger 2001-2013
</metadata>
<g transform="translate(0.000000,500.000000) scale(0.100000,-0.100000)"
fill="#000000" stroke="none">
<path d="M330 4979 c-152 -30 -281 -163 -310 -319 -7 -37 -9 -771 -8 -2200 l3
-2145 23 -55 c33 -81 85 -146 152 -189 110 -71 -73 -66 2325 -66 l2170 0 58
24 c77 30 151 93 193 161 69 113 65 -54 62 2331 l-3 2154 -21 51 c-47 114
-122 190 -234 236 l-55 23 -2155 1 c-1207 1 -2175 -2 -2200 -7z m2036 -1020
c18 -21 19 -59 19 -1459 0 -1400 -1 -1438 -19 -1459 -19 -21 -23 -21 -543 -21
-510 0 -524 1 -543 20 -20 20 -20 33 -20 1460 0 1427 0 1440 20 1460 19 19 33
20 543 20 520 0 524 0 543 -21z m937 -874 c155 -33 306 -147 375 -285 34 -69
62 -178 62 -245 0 -66 -28 -176 -61 -244 -41 -82 -153 -201 -239 -252 -74 -44
-197 -79 -275 -79 -68 0 -194 33 -258 67 -112 61 -216 185 -260 311 -30 86
-29 245 1 334 32 91 85 170 169 249 140 132 309 182 486 144z"/>
</g>
</svg>
