<svg xmlns="http://www.w3.org/2000/svg" width="77" height="77"><g transform="translate(-191 -1553)"><rect width="77" height="77" rx="5" transform="translate(191 1553)" fill="#424d83"/><g fill="#fff" stroke="#424d83"><path d="M226.062 1611.678a12.989 12.989 0 003.83 9.247l1.079 1.079 1.079-1.079a12.989 12.989 0 003.83-9.247 4.909 4.909 0 10-9.818 0zm7.364 0a10.543 10.543 0 01-2.455 6.791 10.543 10.543 0 01-2.455-6.793 2.455 2.455 0 114.909 0zm-1.971-45.309l-.484-.207-.484.207a15.385 15.385 0 00-9.334 14.156v4.533a11.977 11.977 0 00-7.363 11.064v3.284h1.227v4.909h7.364v-4.909h3.682v4.909h9.818v-4.909h3.682v4.909h7.364v-4.909h1.227v-3.284a11.977 11.977 0 00-7.364-11.063v-4.533a15.385 15.385 0 00-9.335-14.157zm-15.21 29.753a9.531 9.531 0 014.909-8.345v9.173h-4.909zm3.682 5.739h-2.455v-2.455h2.455zm13.5 0h-4.91v-2.455h4.909zm4.908-4.911h-14.727v-16.424a12.932 12.932 0 017.364-11.676 12.932 12.932 0 017.364 11.681zm6.136 4.909h-2.454v-2.453h2.455zm1.227-5.739v.83h-4.908v-9.171a9.531 9.531 0 014.909 8.343zm-30.681 14.331a7.2 7.2 0 002.095 5.058l1.587 1.587 1.587-1.587a7.2 7.2 0 002.095-5.058 3.682 3.682 0 10-7.364 0zm4.909 0a4.731 4.731 0 01-1.227 3.166 4.731 4.731 0 01-1.227-3.166 1.228 1.228 0 112.455 0zm19.636 0a7.2 7.2 0 002.095 5.058l1.587 1.587 1.587-1.587a7.2 7.2 0 002.095-5.058 3.682 3.682 0 10-7.364 0zm4.909 0a4.731 4.731 0 01-1.227 3.166 4.731 4.731 0 01-1.227-3.166 1.228 1.228 0 112.455 0z"/><path d="M230.971 1576.088a4.909 4.909 0 104.909 4.909 4.909 4.909 0 00-4.909-4.909zm0 7.364a2.455 2.455 0 112.455-2.455 2.455 2.455 0 01-2.455 2.455z"/></g></g></svg>