<svg xmlns="http://www.w3.org/2000/svg" width="77" height="77"><g transform="translate(-1100 -1553)"><rect width="77" height="77" rx="5" transform="translate(1100 1553)" fill="#93a5ff"/><g fill="#fff"><g stroke-linecap="square"><path d="M1115.836 1616.552a2.467 2.467 0 01-2.464-2.464v-45.252a2.467 2.467 0 012.464-2.464h45.252c.658 0 1.277.256 1.742.722.465.465.722 1.084.722 1.742v45.252c0 .658-.257 1.277-.722 1.742a2.448 2.448 0 01-1.742.722h-45.252zm-.888-41.9v39.436c0 .49.398.888.888.888h45.252a.89.89 0 00.888-.888v-39.436h-47.028zm.888-6.704a.889.889 0 00-.888.888v4.24h47.028v-4.24a.889.889 0 00-.888-.888h-45.252z"/><path d="M1115.836 1566.422a2.417 2.417 0 00-2.414 2.414v45.252a2.417 2.417 0 002.414 2.414h45.252a2.417 2.417 0 002.414-2.414v-45.252c0-.645-.251-1.251-.707-1.707a2.398 2.398 0 00-1.707-.707h-45.252m46.19 6.704h-47.128v-4.29a.94.94 0 01.938-.938h45.252a.94.94 0 01.938.938v4.29m-.938 41.9h-45.252a.94.94 0 01-.938-.938v-39.486h47.128v39.486a.94.94 0 01-.938.938m-45.252-48.704h45.252a2.514 2.514 0 012.514 2.514v45.252a2.514 2.514 0 01-2.514 2.514h-45.252a2.514 2.514 0 01-2.514-2.514v-45.252a2.514 2.514 0 012.514-2.514zm46.09 6.704v-4.19a.838.838 0 00-.838-.838h-45.252a.838.838 0 00-.838.838v4.19h46.928zm-.838 41.9a.838.838 0 00.838-.838v-39.386h-46.928v39.386c0 .462.375.838.838.838h45.252z" fill="#93a5ff"/></g><path d="M1116.917 1569.917a.866.866 0 00-.243.595.838.838 0 00.067.318.782.782 0 00.176.277.841.841 0 001.19-1.19.877.877 0 00-1.19 0zm3.352 0a.882.882 0 00-.243.595 1.136 1.136 0 00.017.163.533.533 0 00.05.151.634.634 0 00.075.151 1.321 1.321 0 00.1.126.85.85 0 001.19 0l.1-.126a.634.634 0 00.075-.151.533.533 0 00.052-.151 1.136 1.136 0 00.017-.168.838.838 0 00-1.433-.595zm3.352 0a.841.841 0 101.19 0 .877.877 0 00-1.19 0zm36.629 6.461h-43.576v11.732h43.576zm-1.676 10.056h-40.224v-8.38h40.224zm-26.816 3.352h-15.084v23.464h15.084zm-1.676 21.788h-11.732v-20.112h11.732zm3.352-10.894h26.816v-10.894h-26.816zm1.676-9.218h23.464v7.542h-23.464zm-1.676 21.788h26.816v-10.894h-26.816zm1.676-9.218h23.464v7.542h-23.464z"/></g></g></svg>