<svg xmlns="http://www.w3.org/2000/svg"><symbol id="user" viewBox="0 0 13.38 13.255"><path d="M115.843 8.939a3.286 3.286 0 003-3.511c0-2.689-1.343-3.511-3-3.511s-3 .822-3 3.511a3.286 3.286 0 003 3.511z" transform="translate(-109.153 -1.916)"/><path d="M13.314 226.416l-1.514-3.41a.76.76 0 00-.342-.364l-2.349-1.223a.151.151 0 00-.161.014 3.706 3.706 0 01-4.518 0 .152.152 0 00-.161-.014l-2.349 1.223a.759.759 0 00-.342.364l-1.513 3.41a.757.757 0 00.692 1.064h11.865a.757.757 0 00.692-1.064z" transform="translate(.001 -214.225)"/></symbol><symbol id="more" viewBox="0 0 7 15"><path d="M3022 872l4.476 5.911-4.476 5.911" transform="translate(-3020.599 -870.599)" fill="none" stroke-linecap="round" stroke-linejoin="round" stroke-width="2.5"/></symbol><symbol id="prev" viewBox="0 0 12 25"><path d="M3030 872l-8 10.564 8 10.564" transform="translate(-3020.5 -869.899)" fill="none" stroke-linecap="round" stroke-linejoin="round" stroke-width="3"/></symbol><symbol id="next" viewBox="0 0 12 25"><path d="M3022 872l8 10.564-8 10.564" transform="translate(-3019.899 -869.899)" fill="none" stroke-linecap="round" stroke-linejoin="round" stroke-width="3"/></symbol><symbol id="youtube" viewBox="0 0 29.916 21.574"><path d="M16.913 32.987c-5.309-.1-7.122-.186-8.236-.415a3.62 3.62 0 01-1.89-.983 3.978 3.978 0 01-.9-1.726 11.29 11.29 0 01-.382-2.534 60.193 60.193 0 010-8.215c.171-1.517.253-3.319 1.387-4.37a3.719 3.719 0 011.857-.939 102.551 102.551 0 0110.563-.371 102.74 102.74 0 0110.564.371 3.634 3.634 0 012.174 1.289c1.034 1.627 1.052 3.65 1.157 5.233.043.754.043 5.036 0 5.79a13.231 13.231 0 01-.666 4.3 3.172 3.172 0 01-.765 1.224 3.664 3.664 0 01-1.945.994c-4.594.345-8.495.42-12.922.35zm7.035-10.05c-2.556-1.366-5-2.632-7.5-3.943v7.843c2.632-1.431 5.407-2.742 7.515-3.911l-.011.011z" fill="none" stroke-linejoin="round" stroke-width="2" transform="translate(-4.378 -12.434)"/></symbol><symbol id="twitter" viewBox="0 0 29.235 24.126"><path d="M18.2 0h1.277l.467.093a4.991 4.991 0 01.847.238 6.026 6.026 0 01.737.344 7.005 7.005 0 01.646.4 3.975 3.975 0 01.516.427.715.715 0 00.7.118 9.427 9.427 0 001.031-.307q.553-.2 1.093-.442t.66-.311L26.3.486V.479l.025-.012.025-.012.025-.012L26.4.43V.423h.014V.416L26.449.4h.025v.037l-.007.037-.018.026-.013.04-.012.025-.012.025-.012.036a.853.853 0 00-.025.1 4.119 4.119 0 01-.233.491 6.142 6.142 0 01-.553.872 4.286 4.286 0 01-.594.668q-.265.228-.351.319a1.054 1.054 0 01-.209.172l-.123.081-.025.012-.025.012v.007h-.014v.007l-.025.012-.025.012v.007h-.014v.014h-.014v.007h.123l.688-.147a12.3 12.3 0 001.314-.356l.663-.221L27 2.7l.037-.012.025-.012.025-.012.025-.012.025-.012.049-.007h.049v.049h-.012l-.012.007v.007h-.014v.014h-.014v.014h-.007l-.012.025-.012.025h-.007l-.312.417a3.452 3.452 0 01-.332.417q-.025.007-.069.074a7.039 7.039 0 01-.521.548 12.359 12.359 0 01-.938.852 1.163 1.163 0 00-.467.923q-.007.545-.057 1.233t-.184 1.486a17.714 17.714 0 01-.417 1.8 16.411 16.411 0 01-.688 1.965 15.307 15.307 0 01-.847 1.719q-.442.761-.81 1.289t-.749.995q-.381.467-.963 1.051t-.639.639q-.056.054-.481.4t-.909.7a10.511 10.511 0 01-.889.582q-.405.233-.977.533a11.628 11.628 0 01-1.233.56q-.663.258-1.4.479a12.785 12.785 0 01-1.424.344q-.688.123-1.559.209l-.872.086v.012h-1.6v-.012l-.232.025q-.209-.012-.344-.025t-1.019-.135q-.884-.123-1.388-.246t-1.5-.467a14.575 14.575 0 01-1.7-.695l-.884-.442q-.184-.093-.4-.226l-.221-.135v-.007H.106v-.007L.074 19.7l-.025-.012v-.007H.035v-.014H0V19.6h.025l.025.007.111.012q.111.012.6.037t1.044 0a10.983 10.983 0 001.13-.111 12.727 12.727 0 001.365-.292 10.071 10.071 0 001.444-.5q.656-.29.933-.432a9.086 9.086 0 00.84-.521l.565-.381v-.007h.014v-.014h.014v-.007l.025-.007h.025v-.025l.007-.025h.007v-.007l-.2-.012-.381-.025a3.692 3.692 0 01-.577-.111 5.539 5.539 0 01-.847-.295 6.532 6.532 0 01-.884-.467 4.351 4.351 0 01-.621-.449q-.189-.177-.491-.5a4.969 4.969 0 01-.521-.67 6.024 6.024 0 01-.422-.793l-.2-.447-.012-.037-.012-.037-.007-.025v-.025h.037l.037.007.27.037a6 6 0 00.847.025 6.56 6.56 0 00.8-.049q.221-.037.27-.049l.049-.012.061-.012.061-.012v-.007h.014v-.007l-.049-.012-.018-.043-.049-.012-.049-.012-.049-.012q-.049-.012-.172-.049t-.663-.27a5.07 5.07 0 01-.86-.454A5.936 5.936 0 012.927 12a6.95 6.95 0 01-.631-.683 4.912 4.912 0 01-.614-.97A5.9 5.9 0 011.277 9.3 5.7 5.7 0 011.1 8.276l-.044-.516h.025l.025.007.025.012.025.012.025.012.025.012.381.172a4.8 4.8 0 00.945.295q.565.123.675.135l.111.012h.221v-.007h-.014v-.014L3.5 8.4h-.007v-.007l-.025-.012-.025-.012v-.007h-.014v-.007l-.025-.012-.025-.012v-.007l-.211-.157a3.22 3.22 0 01-.422-.4Q2.5 7.5 2.284 7.232a3.982 3.982 0 01-.393-.577 7 7 0 01-.363-.781 5.544 5.544 0 01-.287-.95 5.41 5.41 0 01-.111-.945 5.954 5.954 0 01.025-.8 5.216 5.216 0 01.145-.748 5.836 5.836 0 01.319-.884l.209-.467.012-.037.012-.037h.007V.992h.014v.007L1.9 1h.014v.014h.007l.012.025.012.025h.007v.007l.332.368q.332.368.786.823a4.618 4.618 0 00.5.472.36.36 0 01.123.113A5.013 5.013 0 004.2 3.3q.418.344 1.093.8t1.5.9a14.617 14.617 0 001.768.8q.945.356 1.326.467t1.3.282q.921.172 1.388.221t.639.056h.172v-.037l-.007-.037-.049-.307a5.771 5.771 0 01-.049-.86 5.636 5.636 0 01.086-1.019 6.037 6.037 0 01.258-.945 5.051 5.051 0 01.336-.769 7.561 7.561 0 01.437-.656 5.3 5.3 0 01.7-.761 5.165 5.165 0 01.982-.7A6.386 6.386 0 0117.092.27a4.749 4.749 0 01.786-.209A2.731 2.731 0 0018.2 0z" transform="translate(1 1)" fill="none" stroke-linejoin="round" stroke-width="2"/></symbol><symbol id="instagram" viewBox="0 0 25.725 25.726"><path d="M8.576 12.863a4.288 4.288 0 114.287 4.288 4.288 4.288 0 01-4.287-4.288m-2.318 0a6.605 6.605 0 106.605-6.605 6.6 6.6 0 00-6.605 6.605M18.186 6a1.544 1.544 0 101.544-1.547A1.544 1.544 0 0018.186 6M7.666 23.333a7.109 7.109 0 01-2.389-.442 4 4 0 01-1.48-.962 3.969 3.969 0 01-.962-1.479 7.1 7.1 0 01-.442-2.389c-.062-1.356-.075-1.763-.075-5.2s.013-3.841.075-5.2a7.156 7.156 0 01.442-2.389A4 4 0 013.8 3.8a3.964 3.964 0 011.48-.962 7.1 7.1 0 012.389-.442c1.356-.062 1.763-.075 5.2-.075s3.841.013 5.2.075a7.156 7.156 0 012.389.442 3.985 3.985 0 011.48.962 3.985 3.985 0 01.962 1.48 7.1 7.1 0 01.442 2.389c.062 1.357.075 1.763.075 5.2s-.012 3.841-.075 5.2a7.136 7.136 0 01-.442 2.389 4.259 4.259 0 01-2.442 2.441 7.1 7.1 0 01-2.389.442c-1.356.062-1.763.075-5.2.075s-3.841-.012-5.2-.075M7.56.078a9.432 9.432 0 00-3.122.6 6.309 6.309 0 00-2.279 1.481A6.285 6.285 0 00.675 4.438a9.435 9.435 0 00-.6 3.122C.015 8.931 0 9.37 0 12.863s.015 3.932.078 5.3a9.434 9.434 0 00.6 3.122 6.288 6.288 0 001.484 2.279 6.324 6.324 0 002.279 1.484 9.44 9.44 0 003.122.6c1.372.062 1.81.078 5.3.078s3.932-.015 5.3-.078a9.434 9.434 0 003.122-.6 6.577 6.577 0 003.762-3.762 9.408 9.408 0 00.6-3.122c.062-1.373.077-1.81.077-5.3s-.015-3.932-.077-5.3a9.431 9.431 0 00-.6-3.122 6.326 6.326 0 00-1.484-2.279A6.294 6.294 0 0021.289.675a9.42 9.42 0 00-3.122-.6C16.8.016 16.357 0 12.864 0S8.932.015 7.56.078"/></symbol><symbol id="facebook" viewBox="0 0 10.789 20.775"><path d="M95.431 33.6v-9.473h3.181l.476-3.693h-3.657v-2.358c0-1.069.3-1.8 1.83-1.8h1.956v-3.3a26.21 26.21 0 00-2.85-.145c-2.82 0-4.75 1.721-4.75 4.882v2.724h-3.189v3.693h3.189v9.47h3.814z" transform="translate(-88.428 -12.829)"/></symbol></svg>