<svg xmlns="http://www.w3.org/2000/svg" width="270.062" height="138.327"><g fill="#93a5ff"><g transform="translate(-81.039 13.982)"><rect width="9.227" height="8.879" rx="4.44" transform="rotate(135 120.446 115.343)"/><rect width="9.227" height="24.327" rx="4.614" transform="translate(265.039 100.018)"/></g><g transform="translate(-119.039 -100.018)" opacity=".36"><rect width="8.363" height="8.047" rx="4.024" transform="rotate(135 119.636 114.365)"/><rect width="8.363" height="22.047" rx="4.181" transform="translate(265.039 100.018)"/></g><g transform="translate(-265.039 -62.018)"><rect width="11.307" height="10.88" rx="5.44" transform="rotate(135 122.394 117.696)"/><rect width="11.307" height="29.809" rx="5.653" transform="translate(265.039 100.018)"/></g><g transform="translate(-157.557 -39.018)" opacity=".5"><rect width="8.537" height="8.215" rx="4.107" transform="rotate(135 119.8 114.562)"/><rect width="8.537" height="22.506" rx="4.268" transform="translate(265.039 100.018)"/></g><g transform="translate(-217.039 -8.018)" opacity=".51"><rect width="8.363" height="8.047" rx="4.024" transform="rotate(135 119.636 114.365)"/><rect width="8.363" height="22.047" rx="4.181" transform="translate(265.039 100.018)"/></g><g transform="translate(-15.039 -58.018)" opacity=".5"><rect width="8.363" height="8.047" rx="4.024" transform="rotate(135 119.636 114.365)"/><rect width="8.363" height="22.047" rx="4.181" transform="translate(265.039 100.018)"/></g></g></svg>