<svg xmlns="http://www.w3.org/2000/svg" width="265.026" height="99.242"><g fill="#fff"><path d="M9.01 98.656a8.983 8.983 0 01-2.24-17.643l.003-.194a12.71 12.71 0 0125.417.262l.505.009a8.981 8.981 0 01-.305 17.96z"/><path d="M240.493 90.925a6.701 6.701 0 01-6.586-6.814q.005-.3.036-.595-.021-.264-.017-.544a5.566 5.566 0 014.9-5.43 9.484 9.484 0 0118.965.27l.38.007a6.701 6.701 0 11-.228 13.4z" opacity=".5"/><path d="M64.975 50.858a7.201 7.201 0 01-7.077-7.322q.005-.323.039-.639-.023-.286-.018-.582a5.978 5.978 0 015.262-5.833 10.188 10.188 0 0120.373.291l.41.007a7.201 7.201 0 01-.246 14.4z" opacity=".53"/><path d="M141.31 79.54a9.495 9.495 0 01-9.334-9.656q.007-.427.052-.843-.031-.381-.024-.77a7.884 7.884 0 016.94-7.694 13.438 13.438 0 0126.873.384l.538.009a9.496 9.496 0 01-.323 18.989zm69.085-53.703a7.57 7.57 0 01-7.441-7.698q.005-.34.041-.672-.025-.304-.02-.614a6.286 6.286 0 015.533-6.134 10.713 10.713 0 0121.422.306l.43.008a7.57 7.57 0 11-.258 15.139z"/></g></svg>