<svg xmlns="http://www.w3.org/2000/svg" xmlns:xlink="http://www.w3.org/1999/xlink" width="241.039" height="241.039" viewBox="0 0 241.039 241.039"><defs><linearGradient id="a" x1="-0.12" y1="-0.622" x2="1" y2="1" gradientUnits="objectBoundingBox"><stop offset="0" stop-color="#93a5ff"/><stop offset="1" stop-color="#93a5ff" stop-opacity="0"/></linearGradient></defs><path d="M234.289,237.664a3.375,3.375,0,1,1,3.375,3.375A3.375,3.375,0,0,1,234.289,237.664Zm-26.032,0a3.375,3.375,0,1,1,3.375,3.375A3.375,3.375,0,0,1,208.257,237.664Zm-26.032,0a3.375,3.375,0,1,1,3.375,3.375A3.375,3.375,0,0,1,182.225,237.664Zm-26.032,0a3.375,3.375,0,1,1,3.375,3.375A3.375,3.375,0,0,1,156.193,237.664Zm-26.032,0a3.375,3.375,0,1,1,3.375,3.375A3.375,3.375,0,0,1,130.161,237.664Zm-26.032,0a3.375,3.375,0,1,1,3.375,3.375A3.375,3.375,0,0,1,104.128,237.664Zm-26.032,0a3.375,3.375,0,1,1,3.375,3.375A3.375,3.375,0,0,1,78.1,237.664Zm-26.032,0a3.375,3.375,0,1,1,3.375,3.375A3.375,3.375,0,0,1,52.064,237.664Zm-26.032,0a3.375,3.375,0,1,1,3.375,3.375A3.375,3.375,0,0,1,26.032,237.664ZM0,237.664a3.375,3.375,0,1,1,3.375,3.375A3.375,3.375,0,0,1,0,237.664Zm234.29-26.032a3.375,3.375,0,1,1,3.375,3.375A3.375,3.375,0,0,1,234.289,211.632Zm-26.032,0a3.375,3.375,0,1,1,3.375,3.375A3.375,3.375,0,0,1,208.257,211.632Zm-26.032,0a3.375,3.375,0,1,1,3.375,3.375A3.375,3.375,0,0,1,182.225,211.632Zm-26.032,0a3.375,3.375,0,1,1,3.375,3.375A3.375,3.375,0,0,1,156.193,211.632Zm-26.032,0a3.375,3.375,0,1,1,3.375,3.375A3.375,3.375,0,0,1,130.161,211.632Zm-26.032,0a3.375,3.375,0,1,1,3.375,3.375A3.375,3.375,0,0,1,104.128,211.632Zm-26.032,0a3.375,3.375,0,1,1,3.375,3.375A3.375,3.375,0,0,1,78.1,211.632Zm-26.032,0a3.375,3.375,0,1,1,3.375,3.375A3.375,3.375,0,0,1,52.064,211.632Zm-26.032,0a3.375,3.375,0,1,1,3.375,3.375A3.375,3.375,0,0,1,26.032,211.632ZM0,211.632a3.375,3.375,0,1,1,3.375,3.375A3.375,3.375,0,0,1,0,211.632ZM234.289,185.6a3.375,3.375,0,1,1,3.375,3.375A3.375,3.375,0,0,1,234.289,185.6Zm-26.032,0a3.375,3.375,0,1,1,3.375,3.375A3.375,3.375,0,0,1,208.257,185.6Zm-26.032,0a3.375,3.375,0,1,1,3.375,3.375A3.375,3.375,0,0,1,182.225,185.6Zm-26.032,0a3.375,3.375,0,1,1,3.375,3.375A3.375,3.375,0,0,1,156.193,185.6Zm-26.032,0a3.375,3.375,0,1,1,3.375,3.375A3.375,3.375,0,0,1,130.161,185.6Zm-26.032,0a3.375,3.375,0,1,1,3.375,3.375A3.375,3.375,0,0,1,104.128,185.6Zm-26.032,0a3.375,3.375,0,1,1,3.375,3.375A3.375,3.375,0,0,1,78.1,185.6Zm-26.032,0a3.375,3.375,0,1,1,3.375,3.375A3.375,3.375,0,0,1,52.064,185.6Zm-26.032,0a3.375,3.375,0,1,1,3.375,3.375A3.375,3.375,0,0,1,26.032,185.6ZM0,185.6a3.375,3.375,0,1,1,3.375,3.375A3.375,3.375,0,0,1,0,185.6Zm234.29-26.032a3.375,3.375,0,1,1,3.375,3.375A3.375,3.375,0,0,1,234.289,159.568Zm-26.032,0a3.375,3.375,0,1,1,3.375,3.375A3.375,3.375,0,0,1,208.257,159.568Zm-26.032,0a3.375,3.375,0,1,1,3.375,3.375A3.375,3.375,0,0,1,182.225,159.568Zm-26.032,0a3.375,3.375,0,1,1,3.375,3.375A3.375,3.375,0,0,1,156.193,159.568Zm-26.032,0a3.375,3.375,0,1,1,3.375,3.375A3.375,3.375,0,0,1,130.161,159.568Zm-26.032,0a3.375,3.375,0,1,1,3.375,3.375A3.375,3.375,0,0,1,104.128,159.568Zm-26.032,0a3.375,3.375,0,1,1,3.375,3.375A3.375,3.375,0,0,1,78.1,159.568Zm-26.032,0a3.375,3.375,0,1,1,3.375,3.375A3.375,3.375,0,0,1,52.064,159.568Zm-26.032,0a3.375,3.375,0,1,1,3.375,3.375A3.375,3.375,0,0,1,26.032,159.568ZM0,159.568a3.375,3.375,0,1,1,3.375,3.375A3.375,3.375,0,0,1,0,159.568Zm234.29-26.032a3.375,3.375,0,1,1,3.375,3.375A3.375,3.375,0,0,1,234.289,133.535Zm-26.032,0a3.375,3.375,0,1,1,3.375,3.375A3.375,3.375,0,0,1,208.257,133.535Zm-26.032,0a3.375,3.375,0,1,1,3.375,3.375A3.375,3.375,0,0,1,182.225,133.535Zm-26.032,0a3.375,3.375,0,1,1,3.375,3.375A3.375,3.375,0,0,1,156.193,133.535Zm-26.032,0a3.375,3.375,0,1,1,3.375,3.375A3.375,3.375,0,0,1,130.161,133.535Zm-26.032,0a3.375,3.375,0,1,1,3.375,3.375A3.375,3.375,0,0,1,104.128,133.535Zm-26.032,0a3.375,3.375,0,1,1,3.375,3.375A3.375,3.375,0,0,1,78.1,133.535Zm-26.032,0a3.375,3.375,0,1,1,3.375,3.375A3.375,3.375,0,0,1,52.064,133.535Zm-26.032,0a3.375,3.375,0,1,1,3.375,3.375A3.375,3.375,0,0,1,26.032,133.535ZM0,133.535a3.375,3.375,0,1,1,3.375,3.375A3.375,3.375,0,0,1,0,133.535ZM234.289,107.5a3.375,3.375,0,1,1,3.375,3.375A3.375,3.375,0,0,1,234.289,107.5Zm-26.032,0a3.375,3.375,0,1,1,3.375,3.375A3.375,3.375,0,0,1,208.257,107.5Zm-26.032,0a3.375,3.375,0,1,1,3.375,3.375A3.375,3.375,0,0,1,182.225,107.5Zm-26.032,0a3.375,3.375,0,1,1,3.375,3.375A3.375,3.375,0,0,1,156.193,107.5Zm-26.032,0a3.375,3.375,0,1,1,3.375,3.375A3.375,3.375,0,0,1,130.161,107.5Zm-26.032,0a3.375,3.375,0,1,1,3.375,3.375A3.375,3.375,0,0,1,104.128,107.5Zm-26.032,0a3.375,3.375,0,1,1,3.375,3.375A3.375,3.375,0,0,1,78.1,107.5Zm-26.032,0a3.375,3.375,0,1,1,3.375,3.375A3.375,3.375,0,0,1,52.064,107.5Zm-26.032,0a3.375,3.375,0,1,1,3.375,3.375A3.375,3.375,0,0,1,26.032,107.5ZM0,107.5a3.375,3.375,0,1,1,3.375,3.375A3.375,3.375,0,0,1,0,107.5Zm234.29-26.032a3.375,3.375,0,1,1,3.375,3.375A3.375,3.375,0,0,1,234.289,81.471Zm-26.032,0a3.375,3.375,0,1,1,3.375,3.375A3.375,3.375,0,0,1,208.257,81.471Zm-26.032,0a3.375,3.375,0,1,1,3.375,3.375A3.375,3.375,0,0,1,182.225,81.471Zm-26.032,0a3.375,3.375,0,1,1,3.375,3.375A3.375,3.375,0,0,1,156.193,81.471Zm-26.032,0a3.375,3.375,0,1,1,3.375,3.375A3.375,3.375,0,0,1,130.161,81.471Zm-26.032,0a3.375,3.375,0,1,1,3.375,3.375A3.375,3.375,0,0,1,104.128,81.471Zm-26.032,0a3.375,3.375,0,1,1,3.375,3.375A3.375,3.375,0,0,1,78.1,81.471Zm-26.032,0a3.375,3.375,0,1,1,3.375,3.375A3.375,3.375,0,0,1,52.064,81.471Zm-26.032,0a3.375,3.375,0,1,1,3.375,3.375A3.375,3.375,0,0,1,26.032,81.471ZM0,81.471a3.375,3.375,0,1,1,3.375,3.375A3.375,3.375,0,0,1,0,81.471Zm234.29-26.032a3.375,3.375,0,1,1,3.375,3.375A3.375,3.375,0,0,1,234.289,55.439Zm-26.032,0a3.375,3.375,0,1,1,3.375,3.375A3.375,3.375,0,0,1,208.257,55.439Zm-26.032,0a3.375,3.375,0,1,1,3.375,3.375A3.375,3.375,0,0,1,182.225,55.439Zm-26.032,0a3.375,3.375,0,1,1,3.375,3.375A3.375,3.375,0,0,1,156.193,55.439Zm-26.032,0a3.375,3.375,0,1,1,3.375,3.375A3.375,3.375,0,0,1,130.161,55.439Zm-26.032,0a3.375,3.375,0,1,1,3.375,3.375A3.375,3.375,0,0,1,104.128,55.439Zm-26.032,0a3.375,3.375,0,1,1,3.375,3.375A3.375,3.375,0,0,1,78.1,55.439Zm-26.032,0a3.375,3.375,0,1,1,3.375,3.375A3.375,3.375,0,0,1,52.064,55.439Zm-26.032,0a3.375,3.375,0,1,1,3.375,3.375A3.375,3.375,0,0,1,26.032,55.439ZM0,55.439a3.375,3.375,0,1,1,3.375,3.375A3.375,3.375,0,0,1,0,55.439Zm234.29-26.032a3.375,3.375,0,1,1,3.375,3.375A3.375,3.375,0,0,1,234.289,29.407Zm-26.032,0a3.375,3.375,0,1,1,3.375,3.375A3.375,3.375,0,0,1,208.257,29.407Zm-26.032,0a3.375,3.375,0,1,1,3.375,3.375A3.375,3.375,0,0,1,182.225,29.407Zm-26.032,0a3.375,3.375,0,1,1,3.375,3.375A3.375,3.375,0,0,1,156.193,29.407Zm-26.032,0a3.375,3.375,0,1,1,3.375,3.375A3.375,3.375,0,0,1,130.161,29.407Zm-26.032,0a3.375,3.375,0,1,1,3.375,3.375A3.375,3.375,0,0,1,104.128,29.407Zm-26.032,0a3.375,3.375,0,1,1,3.375,3.375A3.375,3.375,0,0,1,78.1,29.407Zm-26.032,0a3.375,3.375,0,1,1,3.375,3.375A3.375,3.375,0,0,1,52.064,29.407Zm-26.032,0a3.375,3.375,0,1,1,3.375,3.375A3.375,3.375,0,0,1,26.032,29.407ZM0,29.407a3.375,3.375,0,1,1,3.375,3.375A3.375,3.375,0,0,1,0,29.407ZM234.289,3.375a3.375,3.375,0,1,1,3.375,3.375A3.375,3.375,0,0,1,234.289,3.375Zm-26.032,0a3.375,3.375,0,1,1,3.375,3.375A3.375,3.375,0,0,1,208.257,3.375Zm-26.032,0A3.375,3.375,0,1,1,185.6,6.749,3.375,3.375,0,0,1,182.225,3.375Zm-26.032,0a3.375,3.375,0,1,1,3.375,3.375A3.375,3.375,0,0,1,156.193,3.375Zm-26.032,0a3.375,3.375,0,1,1,3.375,3.375A3.375,3.375,0,0,1,130.161,3.375Zm-26.032,0A3.375,3.375,0,1,1,107.5,6.749,3.375,3.375,0,0,1,104.128,3.375Zm-26.032,0a3.375,3.375,0,1,1,3.375,3.375A3.375,3.375,0,0,1,78.1,3.375Zm-26.032,0a3.375,3.375,0,1,1,3.375,3.375A3.375,3.375,0,0,1,52.064,3.375Zm-26.032,0a3.375,3.375,0,1,1,3.375,3.375A3.375,3.375,0,0,1,26.032,3.375ZM0,3.375A3.375,3.375,0,1,1,3.375,6.749,3.375,3.375,0,0,1,0,3.375Z" transform="translate(0 241.039) rotate(-90)" fill="url(#a)"/></svg>