<svg xmlns="http://www.w3.org/2000/svg" width="70.118" height="70.118"><g fill="#93a5ff"><path d="M64.275 4.674h-1.169v-1.55A3.127 3.127 0 0059.982 0h-.764a3.127 3.127 0 00-3.124 3.124v1.551h-9.349V3.124A3.127 3.127 0 0043.622 0h-.764a3.127 3.127 0 00-3.124 3.124v1.551h-9.35V3.124A3.127 3.127 0 0027.261 0H26.5a3.127 3.127 0 00-3.124 3.124v1.551h-9.352V3.124A3.127 3.127 0 0010.9 0h-.764a3.127 3.127 0 00-3.124 3.124v1.551H5.843A5.85 5.85 0 000 10.518v53.757a5.85 5.85 0 005.843 5.843h58.432a5.85 5.85 0 005.843-5.843V10.518a5.851 5.851 0 00-5.843-5.844zm-5.843-1.55a.788.788 0 01.787-.787h.764a.788.788 0 01.786.787v4.27a.788.788 0 01-.786.787h-.764a.788.788 0 01-.787-.787zm-16.361 0a.788.788 0 01.787-.787h.764a.788.788 0 01.786.787v4.27a.788.788 0 01-.786.787h-.764a.788.788 0 01-.787-.787zm-16.361 0a.788.788 0 01.786-.787h.764a.788.788 0 01.786.787v4.27a.788.788 0 01-.786.787h-.76a.788.788 0 01-.786-.787zm-16.361 0a.788.788 0 01.786-.787h.765a.788.788 0 01.786.787v4.27a.788.788 0 01-.786.787h-.764a.788.788 0 01-.786-.787zm58.432 61.151a3.506 3.506 0 01-3.506 3.506H5.843a3.506 3.506 0 01-3.506-3.506V15.192h65.444v49.083zm0-51.42H2.337v-2.337a3.506 3.506 0 013.506-3.506h1.169v.382a3.127 3.127 0 003.124 3.124h.764a3.127 3.127 0 003.124-3.124v-.382h9.349v.382a3.127 3.127 0 003.127 3.124h.764a3.127 3.127 0 003.124-3.124v-.382h9.349v.382a3.127 3.127 0 003.124 3.124h.764a3.127 3.127 0 003.124-3.124v-.382h9.349v.382a3.127 3.127 0 003.124 3.124h.764a3.127 3.127 0 003.124-3.124v-.382h1.169a3.506 3.506 0 013.506 3.506v2.337z"/><path d="M26.808 42.843v1.629a1.153 1.153 0 01-1.153 1.157h-1.629a3.435 3.435 0 00-2.445 1.013l-9.106 9.106a3.458 3.458 0 000 4.891l4.89 4.891a3.466 3.466 0 004.891 0l9.106-9.106a3.432 3.432 0 001.014-2.446v-1.63a1.153 1.153 0 011.153-1.153h1.63a3.433 3.433 0 002.446-1.013l.19-.189 15.1 15.1a4.9 4.9 0 003.458 1.453 4.5 4.5 0 003.032-1.153 4.61 4.61 0 00.164-6.685l-17.69-17.679 9.663-9.663 5.631-4.027a1.143 1.143 0 00.288-.3l3.262-4.887a1.153 1.153 0 00-.144-1.455l-3.262-3.262a1.153 1.153 0 00-1.455-.144l-4.887 3.264a1.128 1.128 0 00-.3.288L46.63 26.47l-9.664 9.664-4.426-4.423a10.374 10.374 0 00-13.878-12.875 1.153 1.153 0 00-.367 1.875l4.569 4.581a2.285 2.285 0 010 3.254 2.353 2.353 0 01-3.259 0l-4.579-4.565a1.152 1.152 0 00-1.875.368 10.384 10.384 0 0012.875 13.88l1.979 1.979-.189.19a3.434 3.434 0 00-1.008 2.445zm31.107 17.5a2.278 2.278 0 01.677 1.679 2.314 2.314 0 01-.76 1.663 2.447 2.447 0 01-3.313-.224L39.251 48.193a3.458 3.458 0 00-.7-3.859l1.677-1.677zm-20.133-21.76l10.55-10.554c.023-.024.031-.054.052-.08s.051-.038.07-.066l3.955-5.534 3.926-2.621 1.925 1.925-2.621 3.926-5.533 3.957c-.028.02-.041.05-.067.071s-.054.029-.077.052L36.926 42.703l-1.631-1.631zM27.133 36.07a1.153 1.153 0 00-1.263-.242 8.085 8.085 0 01-11.107-8.856l3.214 3.206a4.611 4.611 0 106.518-6.516l-3.206-3.215a8.076 8.076 0 018.854 11.108 1.153 1.153 0 00.248 1.262l4.948 4.948-1.677 1.677a3.557 3.557 0 00-3.848-.692zm1.976 8.4v-1.629a1.153 1.153 0 01.338-.815l.954-.954a1.186 1.186 0 011.63 0l.807.807 3.262 3.262h.007l.807.807a1.152 1.152 0 010 1.631l-.954.954a1.143 1.143 0 01-.806.352h-1.628a3.458 3.458 0 00-3.458 3.458v1.63a1.143 1.143 0 01-.338.815l-9.106 9.106a1.187 1.187 0 01-1.63 0l-4.892-4.892a1.153 1.153 0 010-1.63l9.106-9.106a1.142 1.142 0 01.815-.338h1.63a3.458 3.458 0 003.454-3.457z"/></g></svg>