<svg xmlns="http://www.w3.org/2000/svg" width="72.891" height="71.489"><path d="M58.379 64.335H24.902a5.976 5.976 0 00-4.647-4.646v-4.91c10.266-.253 17.872-3.737 17.872-8.315v-2.383h25.022a8.336 8.336 0 001.43-16.548 13.09 13.09 0 00-12.153-18 12.958 12.958 0 00-10.1 4.789 10.761 10.761 0 00-4.2 1.108V8.34c0-4.754-8.2-8.34-19.064-8.34S0 3.586 0 8.34v38.124c0 4.577 7.606 8.062 17.872 8.315v4.91a5.976 5.976 0 00-4.647 4.646H1.192a1.192 1.192 0 100 2.383h12.034a5.957 5.957 0 0011.676 0h33.477a1.192 1.192 0 100-2.383zM42.894 16.68h.012a1.165 1.165 0 00.5-.119 1.235 1.235 0 00.131-.088 1.174 1.174 0 00.261-.218c.018-.022.046-.03.063-.052a10.615 10.615 0 018.567-4.288A10.723 10.723 0 0161.712 28c-.013.022-.012.046-.023.068a1.091 1.091 0 00-.075.223 1.145 1.145 0 00-.048.238c0 .024-.014.044-.014.069a1.161 1.161 0 00.029.143 1.188 1.188 0 00.049.238 1.045 1.045 0 00.1.2 1.056 1.056 0 00.119.183 1.149 1.149 0 00.185.164 1.058 1.058 0 00.11.1c.029.017.06.023.088.037s.064.027.1.04a1.205 1.205 0 00.409.082h.411a5.964 5.964 0 015.957 5.957 5.968 5.968 0 01-5.96 5.958h-28.6a5.953 5.953 0 01-.409-11.892 1.25 1.25 0 00.173-.048 1.039 1.039 0 00.2-.039c.015 0 .024-.019.039-.025a1.2 1.2 0 00.212-.142.676.676 0 00.29-.315 1.138 1.138 0 00.119-.2 1.238 1.238 0 00.042-.2 1.114 1.114 0 00.033-.259c0-.015.007-.029 0-.045a1.006 1.006 0 00-.049-.181 1.119 1.119 0 00-.036-.188 8.269 8.269 0 01-.612-3.148 8.334 8.334 0 018.34-8.34zm-23.83-14.3c9.83 0 16.681 3.139 16.681 5.957S28.894 14.3 19.064 14.3 2.379 11.157 2.379 8.34s6.855-5.957 16.685-5.957zM2.379 12.492c3.2 2.539 9.323 4.188 16.685 4.188s13.489-1.649 16.681-4.188v4.573A10.585 10.585 0 0032.979 21c-3.187 1.77-8.339 2.827-13.911 2.827-9.552.001-16.689-3.144-16.689-5.956v-5.379zm0 9.531c3.192 2.539 9.319 4.188 16.681 4.188a36.342 36.342 0 0013.161-2.233c-.033.346-.055.692-.055 1.041a10.71 10.71 0 00.341 2.641 8.3 8.3 0 00-5.676 4.951 39.67 39.67 0 01-7.771.747c-9.544.001-16.681-3.144-16.681-5.958v-5.377zm0 9.531c3.192 2.539 9.319 4.188 16.681 4.188a43.219 43.219 0 007.193-.6c-.014.2-.044.394-.044.6a8.294 8.294 0 002.522 5.966 37.666 37.666 0 01-9.671 1.182c-9.544 0-16.681-3.145-16.681-5.957v-5.379zm0 14.91v-5.379c3.192 2.539 9.319 4.188 16.681 4.188A37.5 37.5 0 0031.29 43.4a8.37 8.37 0 003.264.678h1.191v2.383c0 2.812-7.133 5.957-16.681 5.957S2.379 49.276 2.379 46.464zM19.064 69.1a3.574 3.574 0 113.574-3.574 3.574 3.574 0 01-3.574 3.574zm52.626-4.823h-7.206a1.2 1.2 0 000 2.4h7.206a1.2 1.2 0 100-2.4z" fill="#93a5ff"/></svg>