<svg xmlns="http://www.w3.org/2000/svg" width="71.288" height="71.288"><path d="M61.037 33.178h-2.563a1.282 1.282 0 100 2.563h2.563a1.282 1.282 0 000-2.563zm-6.39 0h-2.563a1.282 1.282 0 000 2.563h2.563a1.282 1.282 0 100-2.563zm-20.181-2.556a3.844 3.844 0 103.844 3.844 3.844 3.844 0 00-3.844-3.844zm0 5.125a1.281 1.281 0 111.281-1.281 1.281 1.281 0 01-1.281 1.281zm26.571 11.65h-2.563a1.282 1.282 0 100 2.563h2.563a1.282 1.282 0 000-2.563zm-6.39 0h-2.563a1.282 1.282 0 000 2.563h2.563a1.282 1.282 0 100-2.563zm-20.181-2.642a3.844 3.844 0 103.844 3.844 3.844 3.844 0 00-3.844-3.844zm0 5.125a1.281 1.281 0 111.281-1.281 1.281 1.281 0 01-1.281 1.281zm26.571 11.157h-2.563a1.282 1.282 0 100 2.563h2.563a1.282 1.282 0 000-2.563zm-6.39 0h-2.563a1.282 1.282 0 000 2.563h2.563a1.282 1.282 0 100-2.563zm-20.181-2.562a3.844 3.844 0 103.844 3.844 3.844 3.844 0 00-3.844-3.844zm0 5.125a1.281 1.281 0 111.281-1.281 1.281 1.281 0 01-1.281 1.281z" fill="#93a5ff"/><path d="M71.288 36.832V32.08a5.948 5.948 0 00-5.941-5.941H54.624a27.22 27.22 0 00-7.269-17.377 1.018 1.018 0 00-.09-.126c-.021-.02-.05-.027-.073-.045a27.263 27.263 0 00-39.731 0 .685.685 0 00-.073.045 1 1 0 00-.09.126 27.3 27.3 0 00.031 37.2l.058.057A27.141 27.141 0 0024.853 54.5a6.012 6.012 0 001.322 1.34 5.919 5.919 0 00-2.413 4.752v4.752a5.948 5.948 0 005.938 5.944h35.647a5.948 5.948 0 005.941-5.941v-4.752a5.92 5.92 0 00-2.413-4.752 5.919 5.919 0 002.413-4.752v-4.754a5.92 5.92 0 00-2.413-4.752 5.92 5.92 0 002.413-4.753zM52.217 26.139h-9.461A45.624 45.624 0 0041.221 15.2a27.286 27.286 0 005.171-3.935 24.815 24.815 0 015.825 14.874zM44.773 9.522a24.892 24.892 0 01-4.273 3.343 24.625 24.625 0 00-5.355-9.218 24.968 24.968 0 019.628 5.875zM28.515 2.5c4.072.739 7.661 5.228 9.8 11.578a25.025 25.025 0 01-9.8 2.529zm0 16.484A27.394 27.394 0 0039 16.374a42.844 42.844 0 011.36 9.765H28.515zM26.139 2.5v14.1a25.027 25.027 0 01-9.8-2.529c2.139-6.348 5.728-10.837 9.8-11.571zm-11.85 23.639a42.834 42.834 0 011.36-9.765 27.4 27.4 0 0010.489 2.606v7.16H14.289zm10.692 2.376a5.879 5.879 0 00-1.219 3.564v3.8a26.735 26.735 0 00-8.133 2.4 43.33 43.33 0 01-1.329-9.764zM19.513 3.648a24.626 24.626 0 00-5.357 9.218 24.885 24.885 0 01-4.278-3.344 24.965 24.965 0 019.635-5.874zM8.262 11.265a27.286 27.286 0 005.171 3.935A45.619 45.619 0 0011.9 26.139H2.437a24.816 24.816 0 015.825-14.874zm-5.83 17.25h9.491a45.422 45.422 0 001.555 10.923 26.867 26.867 0 00-5.2 3.965 24.822 24.822 0 01-5.846-14.888zm7.459 16.628a24.553 24.553 0 014.29-3.362 24.771 24.771 0 005.429 9.252 24.754 24.754 0 01-9.719-5.89zm13.872 1.194v4.753c0 .075.019.143.021.216-3.052-1.678-5.739-5.481-7.485-10.684a24.369 24.369 0 017.66-2.347 5.928 5.928 0 002.18 3.278v.062a5.913 5.913 0 00-2.376 4.722zm45.149 14.258v4.752a3.564 3.564 0 01-3.564 3.564H29.7a3.564 3.564 0 01-3.564-3.564v-4.752A3.564 3.564 0 0129.7 57.03h35.647a3.564 3.564 0 013.565 3.565zm0-14.258v4.753a3.564 3.564 0 01-3.564 3.564H29.7a3.564 3.564 0 01-3.564-3.564v-4.753a3.564 3.564 0 013.564-3.564h35.647a3.564 3.564 0 013.565 3.564zm0-9.5a3.564 3.564 0 01-3.565 3.563H29.7a3.564 3.564 0 01-3.564-3.564V32.08a3.564 3.564 0 013.564-3.565h35.647a3.564 3.564 0 013.564 3.564z" fill="#93a5ff"/></svg>