<svg xmlns="http://www.w3.org/2000/svg" width="87" height="49"><g transform="translate(-1512 -4843)"><rect width="87" height="49" rx="5" transform="translate(1512 4843)" fill="#2d355d"/><g fill-rule="evenodd"><path d="M1544.059 4856.059h22.9v22.9h-22.9z" fill="#fff"/><path d="M1545.066 4877.169h-.065c0-.033-.016-.082-.016-.1s0-.049-.049-.049h-.1v.147h-.048v-.344h.148c.066 0 .115.017.115.082a.1.1 0 01-.033.082.086.086 0 01.033.066v.065c0 .017 0 .017.016.017v.033zm-.065-.246c0-.049-.033-.049-.049-.049h-.115v.1h.1c.035-.002.064-.018.064-.051zm.279.065a.368.368 0 00-.377-.361.364.364 0 00-.361.361.369.369 0 10.737 0zm-.049 0a.315.315 0 01-.328.311.3.3 0 01-.311-.311.311.311 0 01.311-.311.326.326 0 01.327.312zm20.19-6.621c0 .492-.311.721-.869.721h-1.066v-.492h1.065a.34.34 0 00.213-.049.209.209 0 00.065-.148.25.25 0 00-.065-.164.284.284 0 00-.2-.049c-.508-.017-1.147.016-1.147-.7a.691.691 0 01.787-.688h1.1v.492h-1.015a.389.389 0 00-.213.033.235.235 0 00-.082.18.179.179 0 00.115.164.838.838 0 00.213.033h.295a.93.93 0 01.639.18.708.708 0 01.164.488zm-2.311-.492a.93.93 0 00-.639-.18h-.299a.84.84 0 01-.213-.033.178.178 0 01-.115-.164.192.192 0 01.082-.18.388.388 0 01.213-.033h1.016v-.492h-1.1c-.59 0-.787.361-.787.688 0 .721.639.688 1.147.7a.284.284 0 01.2.049.25.25 0 01.066.164.208.208 0 01-.066.148.373.373 0 01-.213.049h-1.063v.492h1.065c.557 0 .869-.229.869-.721a.707.707 0 00-.164-.492zm-2.1.737h-1.293v-.462h1.262v-.459h-1.262v-.421h1.295v-.475h-1.84v2.294h1.84v-.475zm-2.425-1.7a1.375 1.375 0 00-.672-.115h-1.26v2.294h.557v-.841h.59c.2 0 .311.017.393.1a.731.731 0 01.1.459v.278h.541v-.437a.756.756 0 00-.082-.426.639.639 0 00-.278-.2.631.631 0 00.393-.606.514.514 0 00-.281-.508zm-3.113-.117h-1.753l-.7.754-.672-.754h-2.217v2.294h2.18l.7-.754.672.754h1.07v-.77h.688c.475 0 .951-.131.951-.77 0-.623-.492-.754-.918-.754zm2.671.951a.681.681 0 01-.262.033l-.672.017v-.526h.672a.444.444 0 01.262.049.208.208 0 01.115.2.286.286 0 01-.114.231zm-2.671.114h-.72v-.59h.72c.2 0 .328.082.328.279a.3.3 0 01-.328.311zm-2.114.082l.852-.9v1.852zm-1.327.672h-1.359v-.464h1.213v-.459h-1.213v-.421h1.377l.606.672-.623.672zm11.865-3.474h-.787l-1.037-1.721v1.721h-1.109l-.213-.508h-1.148l-.213.508h-.639a1.185 1.185 0 01-.8-.262 1.2 1.2 0 01-.279-.869 1.184 1.184 0 01.295-.9 1.112 1.112 0 01.836-.262h.524v.492h-.524a.579.579 0 00-.426.131.743.743 0 00-.148.524.82.82 0 00.148.541.547.547 0 00.377.115h.246l.787-1.8h.819l.918 2.163v-2.163h.849l.967 1.59v-1.59h.557v2.294zm-6.506-2.29h-.557v2.294h.557v-2.294zm-1.164.1a1.319 1.319 0 00-.655-.1h-1.262v2.294h.541v-.836h.59a.562.562 0 01.41.1.7.7 0 01.082.443v.295h.557v-.459a.612.612 0 00-.1-.41.686.686 0 00-.262-.2.651.651 0 00.393-.606.568.568 0 00-.295-.524zm-2.311 1.721h-1.278v-.459h1.262v-.482h-1.262v-.41h1.278v-.47h-1.835v2.29h1.835v-.475zm-2.243-1.821h-.9l-.672 1.557-.728-1.557h-.881v2.163l-.934-2.163h-.819l-.983 2.294h.59l.213-.508h1.147l.213.508h1.114v-1.8l.8 1.8h.475l.8-1.8v1.8h.565v-2.294zm8.882 1.295l-.377-.9-.377.9zm-4.752-.36a.5.5 0 01-.279.049h-.672v-.508h.672a.724.724 0 01.279.033.244.244 0 01.1.213.226.226 0 01-.102.207zm-9.046.36l.377-.9.377.9zm18.533-8.495h-19.551v8.26l.672-1.524h1.426l.2.377v-.377h1.668l.377.819.361-.819h5.33a.969.969 0 01.623.18v-.18h1.458v.18a1.952 1.952 0 01.918-.18h2.114l.2.377v-.377h1.557l.23.377v-.377h1.524v3.212h-1.54l-.295-.492v.492h-1.926l-.213-.524h-.475l-.213.524h-1a1.964 1.964 0 01-.885-.2v.2h-2.377v-.737c0-.1-.016-.115-.082-.115h-.082v.852h-4.588v-.41l-.164.41h-.967l-.164-.393v.393h-1.853l-.2-.524h-.47l-.213.524h-.951v9.685h19.551v-5.883a2.006 2.006 0 01-.8.148h-1.429v-.2a1.264 1.264 0 01-.737.2h-4.491v-.738c0-.1-.016-.1-.1-.1h-.08v.84h-1.475v-.869a1.8 1.8 0 01-.77.115h-.164v.754h-1.8l-.426-.492-.475.492h-2.9v-3.214h2.95l.426.491.454-.491h1.983a1.236 1.236 0 01.77.2v-.2h1.77a1.4 1.4 0 01.754.2v-.2h2.671v.2a1.09 1.09 0 01.672-.2h1.491v.2a1.185 1.185 0 01.688-.2h1.016z" fill="#93a5ff"/></g></g></svg>