<svg xmlns="http://www.w3.org/2000/svg" width="87" height="49"><g transform="translate(-1221 -4843)"><rect width="87" height="49" rx="5" transform="translate(1221 4843)" fill="#2d355d"/><path d="M1282.87 4881.598v.076h.07a.075.075 0 00.038-.01.034.034 0 00.014-.029.032.032 0 00-.014-.028.068.068 0 00-.038-.01h-.07zm.071-.053a.13.13 0 01.085.025.081.081 0 01.03.067.077.077 0 01-.024.059.116.116 0 01-.068.028l.094.108h-.077l-.087-.107h-.028v.107h-.061v-.286h.132zm-.019.384a.226.226 0 00.093-.019.241.241 0 00.075-.051.236.236 0 00.051-.075.238.238 0 00-.051-.262.241.241 0 00-.075-.051.236.236 0 00-.093-.018.247.247 0 00-.094.018.239.239 0 00-.077.051.243.243 0 00-.05.264.223.223 0 00.05.075.245.245 0 00.077.051.236.236 0 00.094.019m0-.547a.316.316 0 01.222.091.3.3 0 01.067.336.32.32 0 01-.067.1.339.339 0 01-.1.066.309.309 0 01-.122.024.314.314 0 01-.124-.024.295.295 0 01-.166-.167.3.3 0 01.067-.336.3.3 0 01.1-.066.319.319 0 01.124-.025m-28.884-1.1a.937.937 0 11.939.991.929.929 0 01-.939-.991m2.506 0v-1.549h-.673v.377a1.174 1.174 0 00-.978-.454 1.628 1.628 0 000 3.252 1.174 1.174 0 00.978-.454v.376h.672v-1.549zm22.747 0a.938.938 0 11.939.991.929.929 0 01-.939-.991m2.507 0v-2.793h-.674v1.62a1.174 1.174 0 00-.978-.454 1.628 1.628 0 000 3.252 1.174 1.174 0 00.978-.454v.376h.674zm-16.9-1.023a.769.769 0 01.784.751h-1.602a.8.8 0 01.823-.751m.013-.6a1.627 1.627 0 00.045 3.252 1.88 1.88 0 001.269-.434l-.33-.5a1.477 1.477 0 01-.9.324.86.86 0 01-.926-.758h2.3c.007-.084.013-.168.013-.259a1.485 1.485 0 00-1.47-1.626m8.128 1.626a.937.937 0 11.939.991.929.929 0 01-.939-.991m2.507 0v-1.548h-.672v.377a1.175 1.175 0 00-.978-.454 1.628 1.628 0 000 3.252 1.175 1.175 0 00.978-.454v.376h.673v-1.549zm-6.308 0a1.564 1.564 0 001.652 1.626 1.619 1.619 0 001.113-.369l-.323-.544a1.362 1.362 0 01-.811.279.993.993 0 010-1.983 1.364 1.364 0 01.811.279l.323-.544a1.62 1.62 0 00-1.113-.369 1.564 1.564 0 00-1.652 1.626m8.679-1.626a.914.914 0 00-.816.454v-.375h-.667v3.1h.674v-1.749c0-.512.22-.8.66-.8a1.093 1.093 0 01.421.078l.207-.635a1.433 1.433 0 00-.48-.084m-18.045.324a2.315 2.315 0 00-1.262-.324c-.784 0-1.289.376-1.289.991 0 .5.376.816 1.068.913l.318.045c.369.052.543.149.543.324 0 .239-.245.376-.706.376a1.65 1.65 0 01-1.03-.324l-.316.525a2.233 2.233 0 001.34.4c.894 0 1.412-.421 1.412-1.01 0-.544-.408-.829-1.082-.926l-.317-.046c-.291-.038-.525-.1-.525-.3 0-.226.22-.363.589-.363a2 2 0 01.965.266l.291-.544zm8.687-.323a.912.912 0 00-.815.454v-.376h-.669v3.1h.673v-1.738c0-.512.22-.8.66-.8a1.092 1.092 0 01.421.078l.207-.635a1.433 1.433 0 00-.48-.084m-5.744.078h-1.1v-.939h-.681v.939h-.628v.615h.628v1.412c0 .718.279 1.146 1.075 1.146a1.581 1.581 0 00.842-.239l-.194-.577a1.245 1.245 0 01-.6.175c-.337 0-.446-.207-.446-.518v-1.4h1.1zm-10.065 3.1v-1.937a1.153 1.153 0 00-1.218-1.231 1.2 1.2 0 00-1.088.551 1.136 1.136 0 00-1.023-.551 1.024 1.024 0 00-.907.46v-.383h-.674v3.1h.679v-1.717a.725.725 0 01.758-.823c.447 0 .673.291.673.816v1.723h.681v-1.716a.73.73 0 01.758-.823c.46 0 .679.292.679.816v1.723z" fill="#fff"/><path d="M1283.255 4871.532v-.453h-.118l-.136.311-.135-.311h-.118v.453h.084v-.341l.127.294h.087l.128-.295v.342h.083zm-.748 0v-.373h.151v-.076h-.386v.076h.15v.375h.083z" fill="#f79410"/><path d="M1269.854 4873.473h-10.2v-18.335h10.2z" fill="#cfd6fe"/><path d="M1260.299 4864.306a11.641 11.641 0 014.453-9.167 11.66 11.66 0 100 18.335 11.641 11.641 0 01-4.453-9.167" fill="#93a5ff"/><path d="M1283.619 4864.306a11.66 11.66 0 01-18.865 9.167 11.661 11.661 0 000-18.335 11.66 11.66 0 0118.865 9.167" fill="#f7f8ff"/></g></svg>