<svg xmlns="http://www.w3.org/2000/svg" width="87" height="49"><g transform="translate(-1415 -4843)"><rect width="87" height="49" rx="5" transform="translate(1415 4843)" fill="#2d355d"/><path d="M1440.149 4860.949a4.4 4.4 0 00-3.382-1.076h-4.434a.635.635 0 00-.627.536l-1.846 11.709a.38.38 0 00.087.306.38.38 0 00.289.133h2.737l.687-4.36-.021.137a.633.633 0 01.625-.536h1.3c2.555 0 4.556-1.038 5.14-4.04q.026-.133.045-.26a2.835 2.835 0 00-.6-2.549" fill="#003087"/><path d="M1473.658 4866.521c-.167 1.1-1.006 1.1-1.818 1.1h-.462l.324-2.051a.255.255 0 01.252-.215h.212c.552 0 1.074 0 1.343.315a1.023 1.023 0 01.148.853m-.353-2.867h-3.061a.426.426 0 00-.421.359l-1.237 7.848a.255.255 0 00.058.205.255.255 0 00.194.09h1.571a.3.3 0 00.294-.251l.351-2.226a.425.425 0 01.42-.359h.968a3.143 3.143 0 003.484-2.909 2.357 2.357 0 00-.39-1.975 2.839 2.839 0 00-2.231-.782" fill="#f7f8ff"/><path d="M1451.827 4866.521c-.167 1.1-1.006 1.1-1.818 1.1h-.462l.324-2.051a.255.255 0 01.252-.215h.212c.552 0 1.074 0 1.343.315a1.021 1.021 0 01.149.853m-.353-2.867h-3.061a.426.426 0 00-.42.359l-1.237 7.848a.255.255 0 00.058.205.255.255 0 00.194.089h1.462a.425.425 0 00.42-.359l.334-2.117a.425.425 0 01.42-.359h.968a3.143 3.143 0 003.484-2.91 2.357 2.357 0 00-.39-1.975 2.839 2.839 0 00-2.231-.782m7.106 5.685a1.634 1.634 0 01-1.654 1.4 1.237 1.237 0 01-.984-.4 1.244 1.244 0 01-.23-1.029 1.64 1.64 0 011.642-1.41 1.235 1.235 0 01.977.4 1.262 1.262 0 01.249 1.036m2.043-2.853h-1.466a.255.255 0 00-.253.216l-.064.41-.1-.148a2.086 2.086 0 00-1.731-.615 3.37 3.37 0 00-3.271 2.948 2.767 2.767 0 00.546 2.252 2.293 2.293 0 001.846.745 2.806 2.806 0 002.029-.838l-.066.407a.255.255 0 00.058.206.255.255 0 00.194.089h1.32a.425.425 0 00.42-.359l.792-5.017a.255.255 0 00-.058-.206.255.255 0 00-.194-.089" fill="#93a5ff"/><path d="M1480.411 4869.338a1.635 1.635 0 01-1.654 1.4 1.237 1.237 0 01-.984-.4 1.244 1.244 0 01-.23-1.029 1.64 1.64 0 011.642-1.41 1.235 1.235 0 01.977.4 1.262 1.262 0 01.249 1.036m2.043-2.853h-1.466a.255.255 0 00-.253.216l-.064.41-.1-.148a2.086 2.086 0 00-1.731-.615 3.371 3.371 0 00-3.272 2.948 2.767 2.767 0 00.546 2.252 2.293 2.293 0 001.846.745 2.807 2.807 0 002.03-.838l-.066.407a.254.254 0 00.057.206.254.254 0 00.194.089h1.319a.426.426 0 00.421-.359l.792-5.017a.255.255 0 00-.058-.206.255.255 0 00-.194-.089" fill="#f7f8ff"/><path d="M1468.429 4866.486h-1.474a.424.424 0 00-.351.187l-2.032 2.993-.861-2.876a.426.426 0 00-.408-.3h-1.448a.255.255 0 00-.208.107.255.255 0 00-.034.231l1.622 4.762-1.526 2.153a.255.255 0 00-.018.265.255.255 0 00.226.138h1.474a.426.426 0 00.349-.183l4.9-7.071a.255.255 0 00.017-.264.255.255 0 00-.226-.137" fill="#93a5ff"/><path d="M1484.181 4863.87l-1.257 7.992a.255.255 0 00.058.205.255.255 0 00.194.089h1.263a.426.426 0 00.42-.359l1.239-7.848a.255.255 0 00-.058-.206.255.255 0 00-.194-.089h-1.414a.255.255 0 00-.252.215" fill="#f7f8ff"/><path d="M1440.149 4860.949a4.4 4.4 0 00-3.382-1.076h-4.434a.635.635 0 00-.627.536l-1.846 11.709a.38.38 0 00.087.306.38.38 0 00.289.133h2.737l.687-4.36-.021.137a.633.633 0 01.625-.536h1.3c2.555 0 4.556-1.038 5.14-4.04q.026-.133.045-.26a2.835 2.835 0 00-.6-2.549" fill="#003087"/><path d="M1434.401 4863.513a.556.556 0 01.548-.468h3.476a7.307 7.307 0 011.146.083 4.816 4.816 0 01.568.127 3.14 3.14 0 01.612.244 2.834 2.834 0 00-.6-2.549 4.407 4.407 0 00-3.382-1.075h-4.436a.635.635 0 00-.627.536l-1.846 11.706a.38.38 0 00.086.307.38.38 0 00.289.133h2.738l.687-4.361z" fill="#93a5ff"/><path d="M1440.751 4863.493q-.02.13-.045.26c-.584 3-2.585 4.04-5.14 4.04h-1.3a.632.632 0 00-.624.536l-.666 4.223-.189 1.2a.333.333 0 00.076.268.333.333 0 00.253.117h2.307a.555.555 0 00.548-.468l.022-.118.433-2.758.028-.152a.555.555 0 01.549-.468h.345c2.235 0 3.985-.908 4.5-3.534a3.013 3.013 0 00-.462-2.657 2.2 2.2 0 00-.632-.487" fill="#f7f8ff"/><path d="M1440.139 4863.254q-.134-.04-.276-.071a4.44 4.44 0 00-.291-.055 7.166 7.166 0 00-1.147-.084h-3.477a.554.554 0 00-.548.469l-.739 4.684-.021.136a.632.632 0 01.624-.536h1.3c2.555 0 4.556-1.038 5.14-4.04a7.12 7.12 0 00.045-.26 3.156 3.156 0 00-.481-.2l-.131-.041" fill="#cfd6fe"/></g></svg>