<svg xmlns="http://www.w3.org/2000/svg" width="87" height="49"><g transform="translate(-1318 -4843)"><rect width="87" height="49" rx="5" transform="translate(1318 4843)" fill="#2d355d"/><path d="M1381.351 4854.189h-10.661a4.069 4.069 0 00-3.612 2.661l-5.029 22.251a2.059 2.059 0 002.02 2.667h11.171a3.555 3.555 0 003.142-2.657l5.029-22.252a2.062 2.062 0 00-2.06-2.67" fill="#424d83"/><path d="M1362.05 4879.101l5.029-22.252a4.069 4.069 0 013.611-2.661h-11.845a4.068 4.068 0 00-3.639 2.665l-5.03 22.251a2.059 2.059 0 002.019 2.667h11.875a2.059 2.059 0 01-2.02-2.667" fill="#7387e7"/><path d="M1350.175 4879.1l5.031-22.251a4.068 4.068 0 013.639-2.666h-9.758a4.074 4.074 0 00-3.7 2.668l-5.034 22.249a2.79 2.79 0 00-.058.4v.413a2.012 2.012 0 002.077 1.855h9.818a2.059 2.059 0 01-2.019-2.666" fill="#93a5ff"/><path d="M1359.051 4870.398h.185a.337.337 0 00.337-.17l.48-.718h1.285l-.268.472h1.541l-.2.724h-1.828a.858.858 0 01-.784.449h-.956l.208-.757m-.211 1.037h3.376l-.215.786h-1.358l-.207.759h1.321l-.215.786h-1.322l-.306 1.119c-.076.187.024.272.3.253h1.077l-.2.731h-2.069q-.588 0-.4-.674l.392-1.431h-.844l.215-.786h.845l.207-.759h-.807zm5.388-1.931l-.053.46a2.475 2.475 0 011.215-.479h2.137l-.817 2.958q-.1.507-.872.506h-2.422l-.567 2.077c-.033.111.013.168.136.168h.477l-.175.645h-1.213q-.7 0-.582-.421l1.6-5.917h1.133zm1.81.836h-1.908l-.228.8a1.586 1.586 0 01.849-.237c.529-.008 1.134 0 1.134 0zm-.691 1.852c.141.019.22-.037.229-.168l.117-.421h-1.91l-.16.589zm-1.288.956h1.1l-.021.477h.293c.148 0 .222-.047.222-.141l.087-.308h.915l-.122.449a.79.79 0 01-.823.589h-.587v.814c-.011.131.107.2.35.2h.551l-.178.645h-1.324c-.371.018-.553-.159-.549-.534l.084-2.189m-13.343-7.587a2.692 2.692 0 01-1.031 1.693 3.382 3.382 0 01-2.059.589 2.255 2.255 0 01-1.741-.6 1.573 1.573 0 01-.384-1.09 2.916 2.916 0 01.065-.588l.9-4.317h1.352l-.883 4.268a1.373 1.373 0 00-.037.327.835.835 0 00.163.538.925.925 0 00.782.311 1.633 1.633 0 001.025-.307 1.41 1.41 0 00.518-.869l.886-4.269h1.345l-.9 4.318m5.679-1.7h1.059l-.83 3.853h-1.057l.828-3.853m.333-1.4h1.069l-.2.935h-1.068l.2-.935m1.663 4.964a1.422 1.422 0 01-.418-1.075 2.471 2.471 0 01.01-.271c.01-.1.023-.193.041-.281a2.613 2.613 0 01.805-1.489 2.156 2.156 0 011.489-.553 1.562 1.562 0 011.13.4 1.442 1.442 0 01.415 1.088 2.637 2.637 0 01-.016.267q-.018.145-.044.288a2.54 2.54 0 01-.8 1.468 2.171 2.171 0 01-1.484.543 1.574 1.574 0 01-1.13-.392m2.018-.763a1.879 1.879 0 00.4-.918c.012-.064.023-.13.03-.2a1.778 1.778 0 00.009-.182.781.781 0 00-.182-.553.663.663 0 00-.514-.2.926.926 0 00-.72.31 1.94 1.94 0 00-.407.934c-.012.064-.021.128-.03.19a1.382 1.382 0 00-.007.178.766.766 0 00.182.547.671.671 0 00.517.193.932.932 0 00.72-.306" fill="#fff"/><path d="M1370.714 4854.186h-4.252 4.252" fill="#e02f41"/><path d="M1366.462 4854.185h-7.617 7.617" fill="#2e4f7d"/><path d="M1368.738 4870.43l.255-.9h1.291l-.056.33a3.244 3.244 0 011.135-.33h1.6l-.254.9h-.251l-1.2 4.239h.251l-.239.842h-.251l-.1.365h-1.262l.1-.365h-2.463l.24-.842h.247l1.205-4.239h-.25m1.393 0l-.329 1.147a5.365 5.365 0 011.047-.277c.107-.4.247-.87.247-.87zm-.481 1.685l-.33 1.2a3.587 3.587 0 011.051-.333c.123-.464.247-.869.247-.869h-.968zm.242 2.554l.247-.872h-.964l-.249.872zm3.123-5.193h1.216l.052.448c-.008.114.06.168.2.168h.215l-.217.759h-.89c-.341.018-.516-.113-.532-.394zm-.356 1.628h3.932l-.231.815h-1.25l-.215.757h1.251l-.232.813h-1.393l-.315.477h.682l.157.954c.019.095.1.141.247.141h.212l-.222.786h-.751c-.388.019-.589-.111-.606-.392l-.181-.872-.62.927a.672.672 0 01-.676.365h-1.144l.223-.786h.357a.477.477 0 00.379-.2l.971-1.4h-1.252l.232-.813h1.358l.216-.757h-1.357l.232-.815m-20.7-7.241h.955l-.109.557.137-.159a1.486 1.486 0 011.13-.5 1.035 1.035 0 01.874.352 1.17 1.17 0 01.143.976l-.526 2.626h-.982l.475-2.38a.759.759 0 00-.04-.547.463.463 0 00-.423-.176.918.918 0 00-.638.235 1.166 1.166 0 00-.345.654l-.438 2.214h-.985l.771-3.856m10.953 0h.956l-.109.557.135-.159a1.489 1.489 0 011.13-.5 1.031 1.031 0 01.873.352 1.167 1.167 0 01.143.976l-.524 2.626h-.983l.475-2.38a.764.764 0 00-.04-.547.466.466 0 00-.422-.176.925.925 0 00-.64.235 1.152 1.152 0 00-.343.654l-.44 2.214h-.982l.77-3.856m4.725-2.39h2.775a1.875 1.875 0 011.23.358 1.284 1.284 0 01.424 1.035v.014c0 .085-.006.182-.014.286s-.032.212-.054.316a2.441 2.441 0 01-.844 1.435 2.388 2.388 0 01-1.561.543h-1.488l-.46 2.258h-1.289l1.282-6.245m.694 2.9h1.234a1.2 1.2 0 00.763-.213 1.163 1.163 0 00.374-.687c.011-.057.018-.109.026-.156s.009-.09.009-.133a.529.529 0 00-.236-.482 1.408 1.408 0 00-.747-.151h-1.047l-.379 1.832m9.5 4.089a6.076 6.076 0 01-1.024 1.606 2.073 2.073 0 01-1.769.732l.094-.661c.916-.282 1.412-1.555 1.694-2.118l-.337-4.149.709-.009h.595l.064 2.6 1.114-2.6h1.128l-2.269 4.6m-3.149-4.287l-.448.308a1.408 1.408 0 00-1.721-.21c-1.124.521-2.064 4.52 1.032 3.2l.176.209 1.218.031.8-3.633-1.056.092m-.693 1.986c-.2.577-.632.959-.975.85s-.464-.663-.266-1.241.635-.959.975-.85.466.663.266 1.241" fill="#fff"/></g></svg>