<svg xmlns="http://www.w3.org/2000/svg" width="87" height="49"><g transform="translate(-1138 -4850)"><rect width="87" height="49" rx="5" transform="translate(1138 4850)" fill="#2d355d"/><path d="M1176.653 4883.863h-4.827l3.016-18.541h4.827zm-8.888-18.541l-4.602 12.75-.545-2.746-1.623-8.334a2.066 2.066 0 00-2.29-1.669h-7.608l-.089.314a18.058 18.058 0 015.049 2.119l4.194 16.108h5.031l7.68-18.541h-5.197zm37.967 18.541h4.432l-3.865-18.541h-3.88a2.218 2.218 0 00-2.228 1.382l-7.2 17.159h5.032l1.006-2.754h6.136zm-5.312-6.558l2.536-6.938 1.426 6.937zm-7.051-7.523l.689-3.981a13.933 13.933 0 00-4.341-.808c-2.4 0-8.084 1.047-8.084 6.138 0 4.79 6.676 4.849 6.676 7.365s-5.988 2.065-7.965.479l-.718 4.163a13.527 13.527 0 005.448 1.047c3.294 0 8.263-1.706 8.263-6.348 0-4.821-6.736-5.269-6.736-7.365s4.7-1.827 6.767-.689z" fill="#93a5ff"/><path d="M1162.619 4875.329l-1.624-8.338a2.066 2.066 0 00-2.29-1.669h-7.608l-.089.314a18.7 18.7 0 017.164 3.6 14.457 14.457 0 014.447 6.093z" fill="#fff"/></g></svg>