<svg xmlns="http://www.w3.org/2000/svg" width="199.973" height="57.985" viewBox="0 0 199.973 57.985"><g transform="translate(-0.06 -0.002)"><path d="M.06,27.679H7.033V43.171H21.739V27.679h6.982V65.706H21.739V49.889H7.033V65.706H.06ZM50.811,53.32a5.776,5.776,0,0,1-11.552,0V36.948H32.646V53.32a12.387,12.387,0,0,0,24.775,0V36.948h-6.61V53.32M75.882,37.14A10.162,10.162,0,0,0,68.1,40.262V27.679H61.466V51c0,8.729,6.311,14.707,13.4,14.707,7.883,0,14.789-6.085,14.789-14.283A14.034,14.034,0,0,0,75.882,37.14Zm.165,22.429a8.149,8.149,0,0,1,0-16.293c3.809,0,7.249,3.756,7.249,8.147S79.855,59.569,76.046,59.569ZM100.8,38.811c0-3.335,2.222-4.392,4.655-4.392,1.958,0,4.55,1.481,6.241,3.28l4.337-5.078a13.7,13.7,0,0,0-10.155-4.92c-7.2,0-12.379,4.179-12.379,11.11,0,12.854,15.818,8.78,15.818,15.976a4.552,4.552,0,0,1-4.653,4.179c-3.916,0-5.186-1.9-6.984-3.915l-4.815,4.972a14.226,14.226,0,0,0,11.428,5.662c6.824,0,12.326-4.232,12.326-10.846,0-14.282-15.817-9.838-15.817-16.027m33.282-2.044c-7.09,0-13.4,5.975-13.4,14.705V74.853h6.634V62.21a10.167,10.167,0,0,0,7.781,3.122A14.034,14.034,0,0,0,148.871,51.05c0-8.2-6.908-14.282-14.789-14.282Zm1.179,22.43a8.15,8.15,0,0,1,0-16.295c3.808,0,7.248,3.756,7.248,8.147S139.069,59.2,135.261,59.2Zm62.443.372c-3.913,0-5.024-1.692-5.024-4.285V43.805h6.082V37.987H192.68V30.316l-6.716,3.015V56.712c0,5.978,4.125,8.994,9.782,8.994a13.584,13.584,0,0,0,2.647-.211l1.64-6.03c-.741.051-1.587.1-2.329.1" transform="translate(0 -16.867)" fill="#434343"/><path d="M383.58,27.277a14.59,14.59,0,0,0-5.3-5.263,14.224,14.224,0,0,0-5.357-1.856V13.206A5.133,5.133,0,0,0,376.09,8.4a5.278,5.278,0,1,0-10.557,0,5.071,5.071,0,0,0,3.1,4.806v6.956a15.3,15.3,0,0,0-4.662,1.461c-3.022-2.3-12.931-9.825-18.728-14.222a5.75,5.75,0,0,0,.243-1.546,5.9,5.9,0,1,0-2.845,5l1.223.928,16.81,12.112a14.092,14.092,0,0,0-2.378,2.785,13,13,0,0,0-2.162,7.006v.532a14.684,14.684,0,0,0,.919,5.063,13.292,13.292,0,0,0,2.178,3.783l-5.579,5.593a4.507,4.507,0,1,0,2.764,2.884l5.766-5.767a14.818,14.818,0,0,0,2.562,1.4,14.983,14.983,0,0,0,6,1.26h.4a14.359,14.359,0,0,0,12.206-6.779,13.246,13.246,0,0,0,2.082-7.136v-.13a13.991,13.991,0,0,0-1.844-7.113Zm-7.046,12.1a7.333,7.333,0,0,1-5.4,2.811H370.8a7.3,7.3,0,0,1-3.41-.905,7.882,7.882,0,0,1-2.987-2.721,6.346,6.346,0,0,1-1.244-3.7v-.4a7.588,7.588,0,0,1,.876-3.689,7.989,7.989,0,0,1,2.781-3.042,6.807,6.807,0,0,1,3.853-1.162h.131a7.808,7.808,0,0,1,3.623.835,7.675,7.675,0,0,1,2.845,2.589,8.235,8.235,0,0,1,1.276,3.637c.021.273.032.553.032.82a7.2,7.2,0,0,1-2.044,4.932Z" transform="translate(-203.371)" fill="#434343"/></g></svg>