<svg xmlns="http://www.w3.org/2000/svg" width="199.973" height="64.602" viewBox="0 0 199.973 64.602"><g transform="translate(-4.3 -3.3)"><g transform="translate(4.3 3.3)"><circle cx="32.301" cy="32.301" r="32.301" transform="translate(0 0)" fill="#434343"/><path d="M182.083,183.211a4.719,4.719,0,0,0-7.981-3.236A22.965,22.965,0,0,0,161.665,176l2.1-10.077,6.913,1.453a3.236,3.236,0,1,0,.426-1.975l-7.917-1.582a1,1,0,0,0-1.2.763v.016L159.6,175.808a23.138,23.138,0,0,0-12.6,3.974,4.715,4.715,0,0,0-6.455,6.873,4.568,4.568,0,0,0,1.269.851,10.492,10.492,0,0,0,0,1.421c0,7.234,8.431,13.12,18.828,13.12s18.828-5.877,18.828-13.12a10.492,10.492,0,0,0,0-1.421A4.715,4.715,0,0,0,182.083,183.211Zm-32.3,3.236a3.236,3.236,0,1,1,3.236,3.236A3.242,3.242,0,0,1,149.782,186.447Zm18.764,8.88a14.04,14.04,0,0,1-15.962,0,.873.873,0,0,1,1.228-1.228,12.349,12.349,0,0,0,13.473.064.9.9,0,1,1,1.261,1.293h0v-.128Zm-.578-5.532a2.289,2.289,0,1,1,.136.12h-.161Z" transform="translate(-128.24 -150.91)" fill="#fff"/></g><g transform="translate(86.244 14.187)"><circle cx="4.4" cy="4.4" r="4.4" transform="translate(93.869 2.762)" fill="#434343"/><path d="M1240.8,290.97a3.1,3.1,0,0,0,3.308-2.874c.008-.1.008-.209.008-.313A11.161,11.161,0,0,0,1243.9,286a12.152,12.152,0,0,0-11.466-9.9c-6.447,0-11.835,5.925-11.835,13.2s5.3,13.208,11.827,13.208a11.741,11.741,0,0,0,9.145-3.822,2.554,2.554,0,0,0-.169-3.613,2.459,2.459,0,0,0-.233-.193,2.689,2.689,0,0,0-3.284.337,8.086,8.086,0,0,1-5.46,2.336,7.359,7.359,0,0,1-6.744-6.616H1240.7Zm-8.4-9.9a7.1,7.1,0,0,1,6.447,5.5h-12.879A7.046,7.046,0,0,1,1232.4,281.07Z" transform="translate(-1204.886 -265.084)" fill="#434343"/><path d="M1040.861,278.542a2.454,2.454,0,0,0-2.144-2.441,9.556,9.556,0,0,0-8.864,3.244v-.321a2.481,2.481,0,1,0-4.962,0v20.314a2.533,2.533,0,0,0,2.32,2.577,2.465,2.465,0,0,0,2.634-2.288,1.758,1.758,0,0,0,0-.289V288.916a7.54,7.54,0,0,1,7.13-7.925,6.485,6.485,0,0,1,1.116.024h.5A2.482,2.482,0,0,0,1040.861,278.542Z" transform="translate(-1024.891 -264.965)" fill="#434343"/><path d="M2222.762,312.781a2.481,2.481,0,1,0-4.962,0h0V330.9a2.481,2.481,0,1,0,4.962,0Z" transform="translate(-2122.021 -296.538)" fill="#434343"/><path d="M1558.816,141.373a2.474,2.474,0,0,0-2.473-2.473h0a2.474,2.474,0,0,0-2.473,2.473v11.08a8.59,8.59,0,0,0-6.335-2.537c-6.447,0-11.835,5.925-11.835,13.2s5.307,13.208,11.835,13.208a8.739,8.739,0,0,0,6.447-2.561,2.469,2.469,0,0,0,3.067,1.67,2.44,2.44,0,0,0,1.758-2.192l.008-31.867Zm-11.3,30.061c-3.8,0-6.889-3.693-6.889-8.262s3.067-8.262,6.889-8.262,6.889,3.693,6.889,8.262-3.067,8.222-6.873,8.222Z" transform="translate(-1494.687 -138.9)" fill="#434343"/><path d="M1881.016,141.373a2.474,2.474,0,0,0-2.473-2.473h0a2.474,2.474,0,0,0-2.473,2.473h0v11.08a8.59,8.59,0,0,0-6.335-2.537c-6.447,0-11.835,5.925-11.835,13.2s5.307,13.208,11.835,13.208a8.739,8.739,0,0,0,6.447-2.561,2.469,2.469,0,0,0,3.067,1.67,2.439,2.439,0,0,0,1.758-2.192l.008-31.867Zm-11.289,30.061c-3.8,0-6.889-3.693-6.889-8.262s3.067-8.262,6.889-8.262,6.889,3.693,6.889,8.262-3.067,8.222-6.873,8.222Z" transform="translate(-1791.017 -138.9)" fill="#434343"/><path d="M2332.089,236.461V218.09h2.144a2.147,2.147,0,0,0,2.272-2.015c0-.04.008-.088.008-.137a2.149,2.149,0,0,0-1.943-2.328,1.678,1.678,0,0,0-.2-.008H2332.1V210.19a2.547,2.547,0,0,0-2.321-2.561,2.47,2.47,0,0,0-2.634,2.288,1.337,1.337,0,0,0-.008.177v3.565h-2.152a2.147,2.147,0,0,0-2.272,2.015c0,.04-.008.088-.008.137a2.149,2.149,0,0,0,1.943,2.328,1.68,1.68,0,0,0,.2.008h2.144v18.322a2.474,2.474,0,0,0,2.473,2.473h0a2.471,2.471,0,0,0,2.618-2.32A1.02,1.02,0,0,0,2332.089,236.461Z" transform="translate(-2218.493 -202.104)" fill="#434343"/></g></g></svg>