<svg xmlns="http://www.w3.org/2000/svg" width="243.001" height="59.977" viewBox="0 0 243.001 59.977"><g transform="translate(0 0.003)"><path d="M18.769,54.866l-.428.175a82.113,82.113,0,0,0-9.724,3.75,1.1,1.1,0,0,0-.339.338c-.09.169-.182.344-.254.515-.357.851-.937,2.134-1.112,2.726l-.163.435v.163l.073.091h.09l.411-.169c.955-.436,2.14-1.113,3.343-1.706h.08q3.3-1.539,6.567-3.156a1.823,1.823,0,0,0,.429-.423l1.191-2.395v-.169c0-.176-.091-.254-.163-.176M9.215,51.117c.175-.344.932-1.8,1.112-2.135V48.9A151.255,151.255,0,0,1,29.078,21.431l.182-.257a.152.152,0,0,0,0-.255c-.09-.086-.182-.174-.254-.086h-.339a143.314,143.314,0,0,0-14.416,2.73,2.245,2.245,0,0,0-.864.508c-3.58,4.269-6.911,8.788-10.075,13.4a2.741,2.741,0,0,1,.1.768s.756,5.969,1.875,10.407C2.557,56.747,0,67.492,0,67.492v.175c0,.085.091.085.163.085H1.784c.085,0,.175-.084.266-.169l.073-.344C3.744,62.805,5.63,58.367,7.668,54.1c.52-.943,1.548-2.981,1.548-2.981" transform="translate(0 -7.778)" fill="#434343"/><path d="M37.272,24.318v-.342c0-.088-.092-.176-.164-.255a.348.348,0,0,0-.267.079l-.168.257a144.573,144.573,0,0,0-21.23,32.418l-.182.252v.26c.072.079.072.079.182.079h.072l.255-.079c4.77-1.965,9.644-3.67,14.5-5.121a1.314,1.314,0,0,0,.684-.508c2.14-4.094,7.074-12.115,7.074-12.115a.629.629,0,0,0,.1-.513s-.858-9.555-.858-14.413" transform="translate(-5.707 -8.872)" fill="#434343"/><path d="M52.535,1.625C51.349.6,49.534.086,46.814,0A27.5,27.5,0,0,0,38.2,1.537a4.2,4.2,0,0,0-1.281.765c-3.405,3.16-6.64,6.573-9.718,9.986l-.265.254a.169.169,0,0,0,0,.257c.084.086.175.167.265.086l.339-.086a135.109,135.109,0,0,1,15.014-2.393,1.7,1.7,0,0,1,.931.257,1.054,1.054,0,0,1,.344.853,145.349,145.349,0,0,0,.509,14.674v.341a.2.2,0,0,0,.174.171H44.6c.09,0,.163,0,.163-.088l.175-.255a129.919,129.919,0,0,1,9.04-11.51,2.421,2.421,0,0,0,.52-1.03c1.01-6.228-.52-11-1.965-12.193M88.277,26.544a7.071,7.071,0,0,0-5.484-2.135,7.662,7.662,0,0,0-6.4,3.066V24.687H73.045V47.535h3.343V33.512c0-3.485,2.122-6.13,5.466-6.13a4.783,4.783,0,0,1,3.955,1.671Zm17.947,9.569c0-3.531-.46-6.736-2.793-9.1a9.539,9.539,0,0,0-13.092,0c-2.316,2.366-2.775,5.572-2.775,9.1s.459,6.73,2.775,9.1a9.539,9.539,0,0,0,13.092,0c2.333-2.37,2.793-5.569,2.793-9.1m-3.344,0c0,2.552-.145,5.381-1.809,7.057a5.871,5.871,0,0,1-4.19,1.673,5.694,5.694,0,0,1-4.117-1.673c-1.682-1.676-1.856-4.5-1.856-7.057s.174-5.387,1.856-7.06a5.684,5.684,0,0,1,4.117-1.672,5.862,5.862,0,0,1,4.19,1.672c1.663,1.673,1.809,4.5,1.809,7.06m26.393,0c0-3.58-.459-7.386-2.775-9.7a7.975,7.975,0,0,0-5.575-2,7.362,7.362,0,0,0-6.464,2.924V14.478h-3.344V47.535h3.344V44.8a7.342,7.342,0,0,0,6.464,3.018,7.963,7.963,0,0,0,5.575-2c2.316-2.316,2.775-6.126,2.775-9.7m-3.344,0c0,4.456-.744,8.731-5.708,8.731s-5.763-4.275-5.763-8.731.805-8.731,5.763-8.731,5.708,4.272,5.708,8.731m11.592,11.422V24.687h-3.344V47.535Zm.225-29.347V14.429H134v3.759Zm23.908,29.347V32.908a8.421,8.421,0,0,0-2.378-6.364,8,8,0,0,0-5.852-2.135,8.261,8.261,0,0,0-6.4,2.786V24.687h-3.343V47.535h3.343V33.464c0-3.993,2.226-6.081,5.661-6.081s5.63,2.04,5.63,6.081V47.535Zm23.836,0V32.859c0-5.154-3.06-8.449-8.219-8.449a8.148,8.148,0,0,0-6.4,2.785V14.478h-3.345V47.535h3.345V33.417c0-3.946,2.273-6.035,5.709-6.035s5.568,2.04,5.568,6.035V47.535Zm23.346-11.422c0-3.531-.471-6.736-2.793-9.1a9.555,9.555,0,0,0-13.1,0c-2.3,2.366-2.782,5.572-2.782,9.1s.478,6.73,2.782,9.1a9.554,9.554,0,0,0,13.1,0c2.321-2.37,2.793-5.569,2.793-9.1m-3.344,0c0,2.552-.145,5.381-1.814,7.057a5.917,5.917,0,0,1-4.191,1.673,5.754,5.754,0,0,1-4.131-1.673c-1.68-1.676-1.856-4.5-1.856-7.057s.175-5.387,1.856-7.06a5.744,5.744,0,0,1,4.131-1.672,5.907,5.907,0,0,1,4.191,1.672c1.669,1.673,1.814,4.5,1.814,7.06m25.692,0c0-3.531-.46-6.736-2.792-9.1a9.517,9.517,0,0,0-13.074,0c-2.335,2.366-2.794,5.572-2.794,9.1s.459,6.73,2.794,9.1a9.515,9.515,0,0,0,13.073,0c2.333-2.37,2.792-5.569,2.792-9.1m-3.343,0c0,2.552-.133,5.381-1.808,7.057a5.826,5.826,0,0,1-4.178,1.673,5.729,5.729,0,0,1-4.13-1.673c-1.663-1.676-1.858-4.5-1.858-7.057s.2-5.387,1.858-7.06a5.721,5.721,0,0,1,4.13-1.672,5.816,5.816,0,0,1,4.178,1.672c1.675,1.673,1.808,4.5,1.808,7.06m25.209,11.422V14.478h-3.344V27.333a7.368,7.368,0,0,0-6.464-2.924,7.966,7.966,0,0,0-5.575,2c-2.323,2.316-2.781,6.123-2.781,9.7s.46,7.383,2.781,9.7a7.954,7.954,0,0,0,5.575,2A7.413,7.413,0,0,0,249.75,44.8v2.739Zm-3.344-11.422c0,4.456-.743,8.731-5.726,8.731s-5.75-4.275-5.75-8.731.774-8.731,5.75-8.731S249.707,31.654,249.707,36.113Z" transform="translate(-10.05 0)" fill="#434343"/></g></svg>