<svg xmlns="http://www.w3.org/2000/svg" width="200.002" height="43.028" viewBox="0 0 200.002 43.028"><g transform="translate(0 0.002)"><path d="M64.73,17.424V11.9H59.192V3.034H51.309V11.9H47.051v5.521h4.258V29.7c0,7.5,4.819,11.721,13.421,11.783V34.94c-3.647-.074-5.538-2.281-5.538-6.44V17.424ZM170.458,11.9V40.48h-4.7V11.9Zm10.3,0v4.534h.112q2.931-5.2,9.288-5.2a12.378,12.378,0,0,1,4.7.776,7.759,7.759,0,0,1,3.043,2.155,8.053,8.053,0,0,1,1.63,3.289,17.7,17.7,0,0,1,.47,4.229v18.8h-4.7V21.131a5.684,5.684,0,0,0-1.546-4.2,5.762,5.762,0,0,0-4.258-1.548,9.6,9.6,0,0,0-3.733.663,7.027,7.027,0,0,0-2.623,1.88,8.06,8.06,0,0,0-1.578,2.848,11.52,11.52,0,0,0-.525,3.565V40.48h-4.7V11.9ZM88.533,40.48V36.5h-.168A8.813,8.813,0,0,1,84.5,40.094,11.43,11.43,0,0,1,79.628,41.2a13.7,13.7,0,0,1-5.165-.831,7.439,7.439,0,0,1-3.18-2.35,9.2,9.2,0,0,1-1.633-3.7,23.132,23.132,0,0,1-.468-4.839V11.9h7.849V28.041a10.011,10.011,0,0,0,1.105,5.278q1.105,1.743,3.924,1.743A5.435,5.435,0,0,0,86.7,33.154q1.441-1.905,1.44-6.272V11.9h7.851V40.48H88.533ZM108.688,11.9V15.88h.166a8.987,8.987,0,0,1,3.867-3.621,11.219,11.219,0,0,1,4.867-1.133,13.4,13.4,0,0,1,5.172.855,7.679,7.679,0,0,1,3.178,2.378,9.243,9.243,0,0,1,1.631,3.7,23.114,23.114,0,0,1,.471,4.836V40.48h-7.85V24.338a10.047,10.047,0,0,0-1.108-5.281q-1.108-1.74-3.924-1.74a5.445,5.445,0,0,0-4.646,1.907q-1.436,1.91-1.437,6.276V40.48h-7.851V11.9h7.464Zm32.98,21.727a8.051,8.051,0,0,0,9.178.526,4.908,4.908,0,0,0,2.1-2.516h6.912q-1.656,5.141-5.086,7.352a14.969,14.969,0,0,1-8.289,2.213,16.363,16.363,0,0,1-6.084-1.079,12.62,12.62,0,0,1-4.588-3.068,13.8,13.8,0,0,1-2.9-4.754,17.405,17.405,0,0,1-1.024-6.082,16.75,16.75,0,0,1,1.05-5.971,13.832,13.832,0,0,1,7.6-7.962,14.824,14.824,0,0,1,5.944-1.159,13.6,13.6,0,0,1,6.356,1.408,12.708,12.708,0,0,1,4.45,3.789,15.587,15.587,0,0,1,2.518,5.418,20.263,20.263,0,0,1,.553,6.356H139.739q.156,3.814,1.929,5.529Zm8.872-15.039a5.51,5.51,0,0,0-4.282-1.548,6.874,6.874,0,0,0-3.126.637,5.92,5.92,0,0,0-1.987,1.575,5.8,5.8,0,0,0-1.055,1.99,8.988,8.988,0,0,0-.357,1.881H152.5A9.07,9.07,0,0,0,150.54,18.587Zm20.6-15.553A3.035,3.035,0,1,1,168.109,0a3.035,3.035,0,0,1,3.034,3.036" fill="#434343"/><path d="M19.249,15.023a6.886,6.886,0,1,1,6.884-6.885,6.9,6.9,0,0,1-6.884,6.885M0,17.779a.654.654,0,0,1,.655-.654H19.191a6.059,6.059,0,0,1,6.064,6.042v5.384a.657.657,0,0,1-.658.657.255.255,0,0,0-.038,0l-18.518,0A6.049,6.049,0,0,1,0,23.164Zm33.033-.741h5.311a.656.656,0,0,1,.654.654V23.08a6.047,6.047,0,0,1-6.041,6.041h-5.3a.656.656,0,0,1-.671-.654V23.081a6.05,6.05,0,0,1,6.044-6.043M24.6,30.944H13.9a.657.657,0,0,0-.655.655V42.373a.655.655,0,0,0,.672.652h5.3a6.05,6.05,0,0,0,6.044-6.043V31.6a.659.659,0,0,0-.658-.654" fill="#434343"/></g></svg>