<svg xmlns="http://www.w3.org/2000/svg" width="200.002" height="42.143" viewBox="0 0 200.002 42.143"><g transform="translate(0)"><path d="M0,37.2V18.634a1.033,1.033,0,0,1,1.046-1.046H6.538a1.033,1.033,0,0,1,1.046,1.046V37.007c0,5.557,2.812,8.5,7.388,8.5s7.388-2.811,7.388-8.238V18.634a1.033,1.033,0,0,1,1.046-1.046H28.9a1.033,1.033,0,0,1,1.046,1.046V36.942c0,10.4-5.819,15.5-15.038,15.5C5.623,52.437,0,47.272,0,37.2ZM38.379,18.634a1.033,1.033,0,0,1,1.046-1.046H52.436c8.173,0,13.142,4.838,13.142,11.834v.131c0,7.911-6.146,12.03-13.861,12.03H45.963v9.284a1.033,1.033,0,0,1-1.046,1.046H39.425a1.033,1.033,0,0,1-1.046-1.046V18.634Zm13.468,16.28c3.792,0,5.95-2.223,5.95-5.165v-.065c0-3.4-2.354-5.165-6.146-5.165H46.813a1.033,1.033,0,0,0-1.046,1.046V34a1.033,1.033,0,0,0,1.046,1.046h5.034v-.13Zm18.765-.066v-.13A17.413,17.413,0,0,1,88.526,17c6.016,0,9.219,1.961,12.488,4.381a1.033,1.033,0,0,1,.2,1.438L98.137,27.2a1.111,1.111,0,0,1-1.438.262C94.084,25.7,91.534,24,88.4,24c-5.754,0-9.938,4.772-9.938,10.657v.262c0,5.884,4.773,10.918,10.657,10.657a10.317,10.317,0,0,0,7.453-3.2,1.011,1.011,0,0,1,1.373-.065l3.661,3.2a1.029,1.029,0,0,1,.065,1.439C98.53,50.475,94.345,52.5,88.134,52.5A17.347,17.347,0,0,1,70.612,34.849Zm70.939,10.984,3.6-3.4a1.094,1.094,0,0,1,1.439,0c2.615,2.484,5.623,3.269,9.219,3.269,3.073,0,4.969-1.242,4.969-3.2v-.131c0-1.9-1.177-2.877-6.931-4.381-6.93-1.765-11.376-3.661-11.376-10.461V27.4c0-6.211,4.969-10.331,12.03-10.331a20.333,20.333,0,0,1,11.965,3.727,1.113,1.113,0,0,1,.262,1.439l-2.812,4.054a1.028,1.028,0,0,1-1.373.262,15.168,15.168,0,0,0-8.107-2.811c-2.877,0-4.381,1.307-4.381,3.007v.131c0,2.223,1.438,3.007,7.388,4.511,6.93,1.831,10.853,4.316,10.853,10.265v.131c0,6.8-5.165,10.657-12.618,10.657-4.838,0-10.461-1.373-14.057-5.034a1.023,1.023,0,0,1-.065-1.569Zm32.3-27.2a1.033,1.033,0,0,1,1.046-1.046h23.8a1.033,1.033,0,0,1,1.046,1.046v4.642a1.033,1.033,0,0,1-1.046,1.046H182.349a1.033,1.033,0,0,0-1.046,1.046v4.9a1.033,1.033,0,0,0,1.046,1.046h14.122a1.033,1.033,0,0,1,1.046,1.046v4.642a1.033,1.033,0,0,1-1.046,1.046H182.349A1.033,1.033,0,0,0,181.3,39.1v5.165a1.033,1.033,0,0,0,1.046,1.046h16.607A1.033,1.033,0,0,1,200,46.356V51a1.033,1.033,0,0,1-1.046,1.046H174.9A1.033,1.033,0,0,1,173.849,51V18.635Z" transform="translate(0 -10.359)" fill="#434343"/><path d="M279.029.677c-3.786,5.483-14.556,21.345-18.016,26.763a1.613,1.613,0,0,0,.326,2.089c.848.653,2.023,1.566,2.872,2.285a1.765,1.765,0,0,0,2.154-.065c6.2-5.353,7.441-6.332,11.227-9.791a3.913,3.913,0,0,1,5.288,0c4.961,4.439,7.18,6.136,11.292,9.857a1.59,1.59,0,0,0,2.089.065c.914-.718,2.154-1.632,3-2.285a1.534,1.534,0,0,0,.327-2.089C296.065,22.022,285.36,6.226,281.574.743a1.5,1.5,0,0,0-2.546-.065Z" transform="translate(-158.9)" fill="#434343"/></g></svg>