<svg xmlns="http://www.w3.org/2000/svg" width="1901.039" height="664.039"><defs><linearGradient id="linear-gradient" x1="-.12" y1="-.622" x2="1" y2="1" gradientUnits="objectBoundingBox"><stop offset="0" stop-color="#93a5ff"/><stop offset="1" stop-color="#93a5ff" stop-opacity="0"/></linearGradient></defs><g id="Сгруппировать_140" data-name="Сгруппировать 140" transform="translate(-11.961 -2928.96)" fill="url(#linear-gradient)"><path id="Left_dotted_square" d="M234.289 237.664a3.375 3.375 0 113.375 3.375 3.375 3.375 0 01-3.375-3.375zm-26.032 0a3.375 3.375 0 113.375 3.375 3.375 3.375 0 01-3.375-3.375zm-26.032 0a3.375 3.375 0 113.375 3.375 3.375 3.375 0 01-3.375-3.375zm-26.032 0a3.375 3.375 0 113.375 3.375 3.375 3.375 0 01-3.375-3.375zm-26.032 0a3.375 3.375 0 113.375 3.375 3.375 3.375 0 01-3.375-3.375zm-26.032 0a3.375 3.375 0 113.375 3.375 3.375 3.375 0 01-3.376-3.375zm-26.032 0a3.375 3.375 0 113.375 3.375 3.375 3.375 0 01-3.372-3.375zm-26.032 0a3.375 3.375 0 113.375 3.375 3.375 3.375 0 01-3.376-3.375zm-26.032 0a3.375 3.375 0 113.375 3.375 3.375 3.375 0 01-3.376-3.375zm-26.033 0a3.375 3.375 0 113.375 3.375A3.375 3.375 0 010 237.664zm234.29-26.032a3.375 3.375 0 113.375 3.375 3.375 3.375 0 01-3.376-3.375zm-26.032 0a3.375 3.375 0 113.375 3.375 3.375 3.375 0 01-3.376-3.375zm-26.032 0a3.375 3.375 0 113.375 3.375 3.375 3.375 0 01-3.376-3.375zm-26.032 0a3.375 3.375 0 113.375 3.375 3.375 3.375 0 01-3.376-3.375zm-26.032 0a3.375 3.375 0 113.375 3.375 3.375 3.375 0 01-3.376-3.375zm-26.032 0a3.375 3.375 0 113.375 3.375 3.375 3.375 0 01-3.377-3.375zm-26.032 0a3.375 3.375 0 113.375 3.375 3.375 3.375 0 01-3.373-3.375zm-26.032 0a3.375 3.375 0 113.375 3.375 3.375 3.375 0 01-3.377-3.375zm-26.032 0a3.375 3.375 0 113.375 3.375 3.375 3.375 0 01-3.377-3.375zm-26.034 0a3.375 3.375 0 113.375 3.375A3.375 3.375 0 010 211.632zM234.289 185.6a3.375 3.375 0 113.375 3.375 3.375 3.375 0 01-3.375-3.375zm-26.032 0a3.375 3.375 0 113.375 3.375 3.375 3.375 0 01-3.375-3.375zm-26.032 0a3.375 3.375 0 113.375 3.375 3.375 3.375 0 01-3.375-3.375zm-26.032 0a3.375 3.375 0 113.375 3.375 3.375 3.375 0 01-3.375-3.375zm-26.032 0a3.375 3.375 0 113.375 3.375 3.375 3.375 0 01-3.375-3.375zm-26.032 0a3.375 3.375 0 113.375 3.375 3.375 3.375 0 01-3.376-3.375zm-26.032 0a3.375 3.375 0 113.375 3.375A3.375 3.375 0 0178.1 185.6zm-26.032 0a3.375 3.375 0 113.375 3.375 3.375 3.375 0 01-3.376-3.375zm-26.032 0a3.375 3.375 0 113.375 3.375 3.375 3.375 0 01-3.376-3.375zM0 185.6a3.375 3.375 0 113.375 3.375A3.375 3.375 0 010 185.6zm234.29-26.032a3.375 3.375 0 113.375 3.375 3.375 3.375 0 01-3.376-3.375zm-26.032 0a3.375 3.375 0 113.375 3.375 3.375 3.375 0 01-3.376-3.375zm-26.032 0a3.375 3.375 0 113.375 3.375 3.375 3.375 0 01-3.376-3.375zm-26.032 0a3.375 3.375 0 113.375 3.375 3.375 3.375 0 01-3.376-3.375zm-26.032 0a3.375 3.375 0 113.375 3.375 3.375 3.375 0 01-3.376-3.375zm-26.032 0a3.375 3.375 0 113.375 3.375 3.375 3.375 0 01-3.377-3.375zm-26.032 0a3.375 3.375 0 113.375 3.375 3.375 3.375 0 01-3.373-3.375zm-26.032 0a3.375 3.375 0 113.375 3.375 3.375 3.375 0 01-3.377-3.375zm-26.032 0a3.375 3.375 0 113.375 3.375 3.375 3.375 0 01-3.377-3.375zm-26.034 0a3.375 3.375 0 113.375 3.375A3.375 3.375 0 010 159.568zm234.29-26.032a3.375 3.375 0 113.375 3.375 3.375 3.375 0 01-3.376-3.376zm-26.032 0a3.375 3.375 0 113.375 3.375 3.375 3.375 0 01-3.376-3.376zm-26.032 0a3.375 3.375 0 113.375 3.375 3.375 3.375 0 01-3.376-3.376zm-26.032 0a3.375 3.375 0 113.375 3.375 3.375 3.375 0 01-3.376-3.376zm-26.032 0a3.375 3.375 0 113.375 3.375 3.375 3.375 0 01-3.376-3.376zm-26.032 0a3.375 3.375 0 113.375 3.375 3.375 3.375 0 01-3.377-3.376zm-26.032 0a3.375 3.375 0 113.375 3.375 3.375 3.375 0 01-3.373-3.376zm-26.032 0a3.375 3.375 0 113.375 3.375 3.375 3.375 0 01-3.377-3.376zm-26.032 0a3.375 3.375 0 113.375 3.375 3.375 3.375 0 01-3.377-3.376zM0 133.535a3.375 3.375 0 113.375 3.375A3.375 3.375 0 010 133.535zM234.289 107.5a3.375 3.375 0 113.375 3.375 3.375 3.375 0 01-3.375-3.375zm-26.032 0a3.375 3.375 0 113.375 3.375 3.375 3.375 0 01-3.375-3.375zm-26.032 0a3.375 3.375 0 113.375 3.375 3.375 3.375 0 01-3.375-3.375zm-26.032 0a3.375 3.375 0 113.375 3.375 3.375 3.375 0 01-3.375-3.375zm-26.032 0a3.375 3.375 0 113.375 3.375 3.375 3.375 0 01-3.375-3.375zm-26.032 0a3.375 3.375 0 113.375 3.375 3.375 3.375 0 01-3.376-3.375zm-26.032 0a3.375 3.375 0 113.375 3.375A3.375 3.375 0 0178.1 107.5zm-26.032 0a3.375 3.375 0 113.375 3.375 3.375 3.375 0 01-3.376-3.375zm-26.032 0a3.375 3.375 0 113.375 3.375 3.375 3.375 0 01-3.376-3.375zM0 107.5a3.375 3.375 0 113.375 3.375A3.375 3.375 0 010 107.5zm234.29-26.032a3.375 3.375 0 113.375 3.375 3.375 3.375 0 01-3.376-3.372zm-26.032 0a3.375 3.375 0 113.375 3.375 3.375 3.375 0 01-3.376-3.372zm-26.032 0a3.375 3.375 0 113.375 3.375 3.375 3.375 0 01-3.376-3.372zm-26.032 0a3.375 3.375 0 113.375 3.375 3.375 3.375 0 01-3.376-3.372zm-26.032 0a3.375 3.375 0 113.375 3.375 3.375 3.375 0 01-3.376-3.372zm-26.032 0a3.375 3.375 0 113.375 3.375 3.375 3.375 0 01-3.377-3.372zm-26.032 0a3.375 3.375 0 113.375 3.375 3.375 3.375 0 01-3.373-3.372zm-26.032 0a3.375 3.375 0 113.375 3.375 3.375 3.375 0 01-3.377-3.372zm-26.032 0a3.375 3.375 0 113.375 3.375 3.375 3.375 0 01-3.377-3.372zM0 81.471a3.375 3.375 0 113.375 3.375A3.375 3.375 0 010 81.471zm234.29-26.032a3.375 3.375 0 113.375 3.375 3.375 3.375 0 01-3.376-3.375zm-26.032 0a3.375 3.375 0 113.375 3.375 3.375 3.375 0 01-3.376-3.375zm-26.032 0a3.375 3.375 0 113.375 3.375 3.375 3.375 0 01-3.376-3.375zm-26.032 0a3.375 3.375 0 113.375 3.375 3.375 3.375 0 01-3.376-3.375zm-26.032 0a3.375 3.375 0 113.375 3.375 3.375 3.375 0 01-3.376-3.375zm-26.032 0a3.375 3.375 0 113.375 3.375 3.375 3.375 0 01-3.377-3.375zm-26.032 0a3.375 3.375 0 113.375 3.375 3.375 3.375 0 01-3.373-3.375zm-26.032 0a3.375 3.375 0 113.375 3.375 3.375 3.375 0 01-3.377-3.375zm-26.032 0a3.375 3.375 0 113.375 3.375 3.375 3.375 0 01-3.377-3.375zM0 55.439a3.375 3.375 0 113.375 3.375A3.375 3.375 0 010 55.439zm234.29-26.032a3.375 3.375 0 113.375 3.375 3.375 3.375 0 01-3.376-3.375zm-26.032 0a3.375 3.375 0 113.375 3.375 3.375 3.375 0 01-3.376-3.375zm-26.032 0a3.375 3.375 0 113.375 3.375 3.375 3.375 0 01-3.376-3.375zm-26.032 0a3.375 3.375 0 113.375 3.375 3.375 3.375 0 01-3.376-3.375zm-26.032 0a3.375 3.375 0 113.375 3.375 3.375 3.375 0 01-3.376-3.375zm-26.032 0a3.375 3.375 0 113.375 3.375 3.375 3.375 0 01-3.377-3.375zm-26.032 0a3.375 3.375 0 113.375 3.375 3.375 3.375 0 01-3.373-3.375zm-26.032 0a3.375 3.375 0 113.375 3.375 3.375 3.375 0 01-3.377-3.375zm-26.032 0a3.375 3.375 0 113.375 3.375 3.375 3.375 0 01-3.377-3.375zM0 29.407a3.375 3.375 0 113.375 3.375A3.375 3.375 0 010 29.407zM234.289 3.375a3.375 3.375 0 113.375 3.375 3.375 3.375 0 01-3.375-3.375zm-26.032 0a3.375 3.375 0 113.375 3.375 3.375 3.375 0 01-3.375-3.375zm-26.032 0a3.375 3.375 0 113.375 3.374 3.375 3.375 0 01-3.375-3.374zm-26.032 0a3.375 3.375 0 113.375 3.375 3.375 3.375 0 01-3.375-3.375zm-26.032 0a3.375 3.375 0 113.375 3.375 3.375 3.375 0 01-3.375-3.375zm-26.032 0a3.375 3.375 0 113.371 3.374 3.375 3.375 0 01-3.372-3.374zm-26.032 0a3.375 3.375 0 113.375 3.375A3.375 3.375 0 0178.1 3.375zm-26.032 0A3.375 3.375 0 1155.44 6.75a3.375 3.375 0 01-3.376-3.375zm-26.032 0a3.375 3.375 0 113.375 3.375 3.375 3.375 0 01-3.376-3.375zM0 3.375a3.375 3.375 0 113.375 3.374A3.375 3.375 0 010 3.375z" transform="matrix(0 -1 1 0 11.962 3593)"/><path id="right_dotted_square" d="M234.289 237.664a3.375 3.375 0 113.375 3.375 3.375 3.375 0 01-3.375-3.375zm-26.032 0a3.375 3.375 0 113.375 3.375 3.375 3.375 0 01-3.375-3.375zm-26.032 0a3.375 3.375 0 113.375 3.375 3.375 3.375 0 01-3.375-3.375zm-26.032 0a3.375 3.375 0 113.375 3.375 3.375 3.375 0 01-3.375-3.375zm-26.032 0a3.375 3.375 0 113.375 3.375 3.375 3.375 0 01-3.375-3.375zm-26.032 0a3.375 3.375 0 113.375 3.375 3.375 3.375 0 01-3.376-3.375zm-26.032 0a3.375 3.375 0 113.375 3.375 3.375 3.375 0 01-3.372-3.375zm-26.032 0a3.375 3.375 0 113.375 3.375 3.375 3.375 0 01-3.376-3.375zm-26.032 0a3.375 3.375 0 113.375 3.375 3.375 3.375 0 01-3.376-3.375zm-26.033 0a3.375 3.375 0 113.375 3.375A3.375 3.375 0 010 237.664zm234.29-26.032a3.375 3.375 0 113.375 3.375 3.375 3.375 0 01-3.376-3.375zm-26.032 0a3.375 3.375 0 113.375 3.375 3.375 3.375 0 01-3.376-3.375zm-26.032 0a3.375 3.375 0 113.375 3.375 3.375 3.375 0 01-3.376-3.375zm-26.032 0a3.375 3.375 0 113.375 3.375 3.375 3.375 0 01-3.376-3.375zm-26.032 0a3.375 3.375 0 113.375 3.375 3.375 3.375 0 01-3.376-3.375zm-26.032 0a3.375 3.375 0 113.375 3.375 3.375 3.375 0 01-3.377-3.375zm-26.032 0a3.375 3.375 0 113.375 3.375 3.375 3.375 0 01-3.373-3.375zm-26.032 0a3.375 3.375 0 113.375 3.375 3.375 3.375 0 01-3.377-3.375zm-26.032 0a3.375 3.375 0 113.375 3.375 3.375 3.375 0 01-3.377-3.375zm-26.034 0a3.375 3.375 0 113.375 3.375A3.375 3.375 0 010 211.632zM234.289 185.6a3.375 3.375 0 113.375 3.375 3.375 3.375 0 01-3.375-3.375zm-26.032 0a3.375 3.375 0 113.375 3.375 3.375 3.375 0 01-3.375-3.375zm-26.032 0a3.375 3.375 0 113.375 3.375 3.375 3.375 0 01-3.375-3.375zm-26.032 0a3.375 3.375 0 113.375 3.375 3.375 3.375 0 01-3.375-3.375zm-26.032 0a3.375 3.375 0 113.375 3.375 3.375 3.375 0 01-3.375-3.375zm-26.032 0a3.375 3.375 0 113.375 3.375 3.375 3.375 0 01-3.376-3.375zm-26.032 0a3.375 3.375 0 113.375 3.375A3.375 3.375 0 0178.1 185.6zm-26.032 0a3.375 3.375 0 113.375 3.375 3.375 3.375 0 01-3.376-3.375zm-26.032 0a3.375 3.375 0 113.375 3.375 3.375 3.375 0 01-3.376-3.375zM0 185.6a3.375 3.375 0 113.375 3.375A3.375 3.375 0 010 185.6zm234.29-26.032a3.375 3.375 0 113.375 3.375 3.375 3.375 0 01-3.376-3.375zm-26.032 0a3.375 3.375 0 113.375 3.375 3.375 3.375 0 01-3.376-3.375zm-26.032 0a3.375 3.375 0 113.375 3.375 3.375 3.375 0 01-3.376-3.375zm-26.032 0a3.375 3.375 0 113.375 3.375 3.375 3.375 0 01-3.376-3.375zm-26.032 0a3.375 3.375 0 113.375 3.375 3.375 3.375 0 01-3.376-3.375zm-26.032 0a3.375 3.375 0 113.375 3.375 3.375 3.375 0 01-3.377-3.375zm-26.032 0a3.375 3.375 0 113.375 3.375 3.375 3.375 0 01-3.373-3.375zm-26.032 0a3.375 3.375 0 113.375 3.375 3.375 3.375 0 01-3.377-3.375zm-26.032 0a3.375 3.375 0 113.375 3.375 3.375 3.375 0 01-3.377-3.375zm-26.034 0a3.375 3.375 0 113.375 3.375A3.375 3.375 0 010 159.568zm234.29-26.032a3.375 3.375 0 113.375 3.375 3.375 3.375 0 01-3.376-3.376zm-26.032 0a3.375 3.375 0 113.375 3.375 3.375 3.375 0 01-3.376-3.376zm-26.032 0a3.375 3.375 0 113.375 3.375 3.375 3.375 0 01-3.376-3.376zm-26.032 0a3.375 3.375 0 113.375 3.375 3.375 3.375 0 01-3.376-3.376zm-26.032 0a3.375 3.375 0 113.375 3.375 3.375 3.375 0 01-3.376-3.376zm-26.032 0a3.375 3.375 0 113.375 3.375 3.375 3.375 0 01-3.377-3.376zm-26.032 0a3.375 3.375 0 113.375 3.375 3.375 3.375 0 01-3.373-3.376zm-26.032 0a3.375 3.375 0 113.375 3.375 3.375 3.375 0 01-3.377-3.376zm-26.032 0a3.375 3.375 0 113.375 3.375 3.375 3.375 0 01-3.377-3.376zM0 133.535a3.375 3.375 0 113.375 3.375A3.375 3.375 0 010 133.535zM234.289 107.5a3.375 3.375 0 113.375 3.375 3.375 3.375 0 01-3.375-3.375zm-26.032 0a3.375 3.375 0 113.375 3.375 3.375 3.375 0 01-3.375-3.375zm-26.032 0a3.375 3.375 0 113.375 3.375 3.375 3.375 0 01-3.375-3.375zm-26.032 0a3.375 3.375 0 113.375 3.375 3.375 3.375 0 01-3.375-3.375zm-26.032 0a3.375 3.375 0 113.375 3.375 3.375 3.375 0 01-3.375-3.375zm-26.032 0a3.375 3.375 0 113.375 3.375 3.375 3.375 0 01-3.376-3.375zm-26.032 0a3.375 3.375 0 113.375 3.375A3.375 3.375 0 0178.1 107.5zm-26.032 0a3.375 3.375 0 113.375 3.375 3.375 3.375 0 01-3.376-3.375zm-26.032 0a3.375 3.375 0 113.375 3.375 3.375 3.375 0 01-3.376-3.375zM0 107.5a3.375 3.375 0 113.375 3.375A3.375 3.375 0 010 107.5zm234.29-26.032a3.375 3.375 0 113.375 3.375 3.375 3.375 0 01-3.376-3.372zm-26.032 0a3.375 3.375 0 113.375 3.375 3.375 3.375 0 01-3.376-3.372zm-26.032 0a3.375 3.375 0 113.375 3.375 3.375 3.375 0 01-3.376-3.372zm-26.032 0a3.375 3.375 0 113.375 3.375 3.375 3.375 0 01-3.376-3.372zm-26.032 0a3.375 3.375 0 113.375 3.375 3.375 3.375 0 01-3.376-3.372zm-26.032 0a3.375 3.375 0 113.375 3.375 3.375 3.375 0 01-3.377-3.372zm-26.032 0a3.375 3.375 0 113.375 3.375 3.375 3.375 0 01-3.373-3.372zm-26.032 0a3.375 3.375 0 113.375 3.375 3.375 3.375 0 01-3.377-3.372zm-26.032 0a3.375 3.375 0 113.375 3.375 3.375 3.375 0 01-3.377-3.372zM0 81.471a3.375 3.375 0 113.375 3.375A3.375 3.375 0 010 81.471zm234.29-26.032a3.375 3.375 0 113.375 3.375 3.375 3.375 0 01-3.376-3.375zm-26.032 0a3.375 3.375 0 113.375 3.375 3.375 3.375 0 01-3.376-3.375zm-26.032 0a3.375 3.375 0 113.375 3.375 3.375 3.375 0 01-3.376-3.375zm-26.032 0a3.375 3.375 0 113.375 3.375 3.375 3.375 0 01-3.376-3.375zm-26.032 0a3.375 3.375 0 113.375 3.375 3.375 3.375 0 01-3.376-3.375zm-26.032 0a3.375 3.375 0 113.375 3.375 3.375 3.375 0 01-3.377-3.375zm-26.032 0a3.375 3.375 0 113.375 3.375 3.375 3.375 0 01-3.373-3.375zm-26.032 0a3.375 3.375 0 113.375 3.375 3.375 3.375 0 01-3.377-3.375zm-26.032 0a3.375 3.375 0 113.375 3.375 3.375 3.375 0 01-3.377-3.375zM0 55.439a3.375 3.375 0 113.375 3.375A3.375 3.375 0 010 55.439zm234.29-26.032a3.375 3.375 0 113.375 3.375 3.375 3.375 0 01-3.376-3.375zm-26.032 0a3.375 3.375 0 113.375 3.375 3.375 3.375 0 01-3.376-3.375zm-26.032 0a3.375 3.375 0 113.375 3.375 3.375 3.375 0 01-3.376-3.375zm-26.032 0a3.375 3.375 0 113.375 3.375 3.375 3.375 0 01-3.376-3.375zm-26.032 0a3.375 3.375 0 113.375 3.375 3.375 3.375 0 01-3.376-3.375zm-26.032 0a3.375 3.375 0 113.375 3.375 3.375 3.375 0 01-3.377-3.375zm-26.032 0a3.375 3.375 0 113.375 3.375 3.375 3.375 0 01-3.373-3.375zm-26.032 0a3.375 3.375 0 113.375 3.375 3.375 3.375 0 01-3.377-3.375zm-26.032 0a3.375 3.375 0 113.375 3.375 3.375 3.375 0 01-3.377-3.375zM0 29.407a3.375 3.375 0 113.375 3.375A3.375 3.375 0 010 29.407zM234.289 3.375a3.375 3.375 0 113.375 3.375 3.375 3.375 0 01-3.375-3.375zm-26.032 0a3.375 3.375 0 113.375 3.375 3.375 3.375 0 01-3.375-3.375zm-26.032 0a3.375 3.375 0 113.375 3.374 3.375 3.375 0 01-3.375-3.374zm-26.032 0a3.375 3.375 0 113.375 3.375 3.375 3.375 0 01-3.375-3.375zm-26.032 0a3.375 3.375 0 113.375 3.375 3.375 3.375 0 01-3.375-3.375zm-26.032 0a3.375 3.375 0 113.371 3.374 3.375 3.375 0 01-3.372-3.374zm-26.032 0a3.375 3.375 0 113.375 3.375A3.375 3.375 0 0178.1 3.375zm-26.032 0A3.375 3.375 0 1155.44 6.75a3.375 3.375 0 01-3.376-3.375zm-26.032 0a3.375 3.375 0 113.375 3.375 3.375 3.375 0 01-3.376-3.375zM0 3.375a3.375 3.375 0 113.375 3.374A3.375 3.375 0 010 3.375z" transform="translate(1671.962 2928.961)"/></g></svg>