<svg xmlns="http://www.w3.org/2000/svg" width="99.581" height="22.047"><path d="M30.361 18.324a10.1 10.1 0 01-2.91-.41 6.406 6.406 0 01-2.23-1.11 1.124 1.124 0 01-.46-.96 1.128 1.128 0 01.25-.73.74.74 0 01.59-.31 1.625 1.625 0 01.82.28 6 6 0 001.8.9 7.268 7.268 0 002.08.28 4.1 4.1 0 002.24-.51 1.669 1.669 0 00.78-1.49 1.281 1.281 0 00-.73-1.17 9.666 9.666 0 00-2.43-.79 14.394 14.394 0 01-2.86-.88 4.038 4.038 0 01-1.66-1.28 3.311 3.311 0 01-.56-1.98 3.726 3.726 0 01.7-2.22 4.612 4.612 0 011.95-1.53 6.907 6.907 0 012.81-.55 6.975 6.975 0 014.66 1.52 1.5 1.5 0 01.37.43 1.136 1.136 0 01.11.53 1.128 1.128 0 01-.25.73.74.74 0 01-.59.31 1.1 1.1 0 01-.37-.06 2.965 2.965 0 01-.45-.22 6.758 6.758 0 00-1.59-.89 5.391 5.391 0 00-1.89-.29 3.707 3.707 0 00-2.15.55 1.761 1.761 0 00-.79 1.53 1.4 1.4 0 00.7 1.26 8.2 8.2 0 002.38.82 16.014 16.014 0 012.89.89 4.286 4.286 0 011.7 1.25 3.005 3.005 0 01.59 1.9 3.63 3.63 0 01-.69 2.19 4.5 4.5 0 01-1.94 1.48 7.3 7.3 0 01-2.87.53zm15.7-2.86a.673.673 0 01.55.26 1.082 1.082 0 01.21.7 1.213 1.213 0 01-.74 1.04 6.686 6.686 0 01-1.54.61 6.349 6.349 0 01-1.64.23 5.1 5.1 0 01-3.74-1.36 4.985 4.985 0 01-1.38-3.72 5.707 5.707 0 01.6-2.66 4.363 4.363 0 011.69-1.8 4.786 4.786 0 012.47-.64 4.432 4.432 0 012.3.58 3.933 3.933 0 011.52 1.64 5.442 5.442 0 01.54 2.5q0 .86-.76.86h-5.9a3.147 3.147 0 00.78 2.03 2.625 2.625 0 001.92.65 3.641 3.641 0 001.13-.16 11.154 11.154 0 001.11-.44 2.207 2.207 0 01.88-.32zm-3.46-5.58a2.146 2.146 0 00-1.63.64 3.022 3.022 0 00-.73 1.84h4.52a2.852 2.852 0 00-.6-1.85 1.979 1.979 0 00-1.56-.63zm12.1-1.72a1.077 1.077 0 01.82.22.976.976 0 01.3.78 1.09 1.09 0 01-.26.8 1.6 1.6 0 01-.94.34l-.6.06a2.43 2.43 0 00-1.73.8 2.616 2.616 0 00-.55 1.7v4.2a1.11 1.11 0 01-.36.89 1.33 1.33 0 01-.9.31 1.293 1.293 0 01-.89-.31 1.126 1.126 0 01-.35-.89v-7.74a1.071 1.071 0 01.35-.86 1.29 1.29 0 01.87-.3 1.2 1.2 0 01.84.29 1.063 1.063 0 01.32.83v.8a2.96 2.96 0 011.13-1.36 3.464 3.464 0 011.67-.54zm9.92.72a1.224 1.224 0 01.43-.54 1.042 1.042 0 01.59-.18 1.259 1.259 0 01.83.31.965.965 0 01.37.77 1.065 1.065 0 01-.12.48l-3.7 7.74a1.317 1.317 0 01-.51.58 1.381 1.381 0 01-.73.2 1.451 1.451 0 01-.73-.2 1.281 1.281 0 01-.53-.58l-3.72-7.74a1.015 1.015 0 01-.1-.46.975.975 0 01.39-.78 1.364 1.364 0 01.89-.32 1.115 1.115 0 011.06.7l2.8 6.18zm5.58 9.38a1.293 1.293 0 01-.89-.31 1.126 1.126 0 01-.35-.89v-7.72a1.1 1.1 0 01.35-.88 1.319 1.319 0 01.89-.3 1.358 1.358 0 01.9.3 1.08 1.08 0 01.36.88v7.72a1.11 1.11 0 01-.36.89 1.33 1.33 0 01-.9.31zm0-11.88a1.528 1.528 0 01-1.08-.37 1.26 1.26 0 01-.4-.97 1.228 1.228 0 01.4-.96 1.554 1.554 0 011.08-.36 1.562 1.562 0 011.07.36 1.214 1.214 0 01.41.96 1.26 1.26 0 01-.4.97 1.528 1.528 0 01-1.08.37zm10.64 11.94a6.966 6.966 0 01-3.57-.88 5.886 5.886 0 01-2.33-2.52 8.486 8.486 0 01-.82-3.84 8.51 8.51 0 01.81-3.83 5.819 5.819 0 012.33-2.51 7.02 7.02 0 013.58-.88 6.966 6.966 0 013.57.88 5.836 5.836 0 012.32 2.51 8.51 8.51 0 01.81 3.83 8.486 8.486 0 01-.82 3.84 5.886 5.886 0 01-2.33 2.52 6.925 6.925 0 01-3.55.88zm0-2.06a3.689 3.689 0 003.03-1.34 5.948 5.948 0 001.09-3.84 5.905 5.905 0 00-1.09-3.83 3.7 3.7 0 00-3.03-1.33 3.724 3.724 0 00-3.05 1.33 5.905 5.905 0 00-1.09 3.83 5.948 5.948 0 001.09 3.84 3.712 3.712 0 003.05 1.34zm15.06-8.14a3.269 3.269 0 012.62 1 4.535 4.535 0 01.86 3.02v4.92a1.169 1.169 0 01-.33.88 1.252 1.252 0 01-.91.32 1.288 1.288 0 01-.92-.32 1.15 1.15 0 01-.34-.88v-4.78a2.593 2.593 0 00-.43-1.66 1.652 1.652 0 00-1.35-.52 2.282 2.282 0 00-1.73.68 2.524 2.524 0 00-.65 1.82v4.46a1.15 1.15 0 01-.34.88 1.288 1.288 0 01-.92.32 1.252 1.252 0 01-.91-.32 1.169 1.169 0 01-.33-.88v-7.74a1.1 1.1 0 01.34-.84 1.288 1.288 0 01.92-.32 1.191 1.191 0 01.85.31 1.06 1.06 0 01.33.81v.54a3.382 3.382 0 011.34-1.26 4.033 4.033 0 011.9-.44z" fill="#fff" stroke="#fff" stroke-width=".4"/><path d="M0 17.866V4.182a4.182 4.182 0 018.363 0v13.684a4.182 4.182 0 01-8.363 0zm11.3-4.179a4.024 4.024 0 010-5.691l.223-.223a4.024 4.024 0 115.69 5.691l-.222.223a4.024 4.024 0 01-5.691 0z" fill="#93a5ff"/></svg>