<svg xmlns="http://www.w3.org/2000/svg" xmlns:xlink="http://www.w3.org/1999/xlink" width="789.925" height="372.403"><defs><linearGradient id="a" x1=".5" y1="-.708" x2=".5" y2=".574" gradientUnits="objectBoundingBox"><stop offset="0" stop-color="#93a5ff"/><stop offset="1" stop-color="#93a5ff" stop-opacity="0"/></linearGradient><linearGradient id="e" x1=".5" y1=".5" x2="2.809" y2=".5" gradientUnits="objectBoundingBox"><stop offset="0" stop-color="#93a5ff" stop-opacity="0"/><stop offset="1" stop-color="#93a5ff"/></linearGradient><linearGradient id="f" x1=".624" y1=".5" x2="1.353" y2=".44" xlink:href="#e"/><linearGradient id="l" x1=".584" y1=".5" x2="2.2" y2=".5" gradientUnits="objectBoundingBox"><stop offset="0" stop-color="#93a5ff" stop-opacity="0"/><stop offset="1" stop-color="#93a5ff" stop-opacity=".471"/></linearGradient><linearGradient id="m" x1=".5" x2=".5" y2="1" gradientUnits="objectBoundingBox"><stop offset="0" stop-color="#aab8ff"/><stop offset="1" stop-color="#93a5ff"/></linearGradient><linearGradient id="v" x1=".64" y1=".5" x2="1.825" y2=".563" gradientUnits="objectBoundingBox"><stop offset="0" stop-color="#93a5ff" stop-opacity="0"/><stop offset="1" stop-color="#93a5ff" stop-opacity=".549"/></linearGradient><linearGradient id="x" x1=".5" y1="-.708" x2=".5" y2=".988" gradientUnits="objectBoundingBox"><stop offset="0" stop-color="#93a5ff"/><stop offset="1" stop-color="#4c66e8" stop-opacity="0"/></linearGradient><filter id="h" x="606.541" y="15.942" width="143.292" height="143.292" filterUnits="userSpaceOnUse"><feOffset dy="3"/><feGaussianBlur stdDeviation="8.5" result="i"/><feFlood flood-color="#fff" flood-opacity=".671"/><feComposite operator="in" in2="i"/><feComposite in="SourceGraphic"/></filter><filter id="n" x="385.885" y="67.095" width="80.364" height="77.171" filterUnits="userSpaceOnUse"><feOffset dy="3"/><feGaussianBlur stdDeviation="8.5" result="o"/><feFlood flood-color="#93dcff"/><feComposite operator="in" in2="o"/><feComposite in="SourceGraphic"/></filter><filter id="p" x="385.885" y="81.243" width="80.364" height="77.171" filterUnits="userSpaceOnUse"><feOffset dy="3"/><feGaussianBlur stdDeviation="8.5" result="q"/><feFlood flood-color="#93dcff"/><feComposite operator="in" in2="q"/><feComposite in="SourceGraphic"/></filter><filter id="r" x="385.885" y="95.391" width="80.364" height="77.171" filterUnits="userSpaceOnUse"><feOffset dy="3"/><feGaussianBlur stdDeviation="8.5" result="s"/><feFlood flood-color="#93dcff"/><feComposite operator="in" in2="s"/><feComposite in="SourceGraphic"/></filter><filter id="t" x="385.885" y="109.539" width="80.364" height="77.171" filterUnits="userSpaceOnUse"><feOffset dy="3"/><feGaussianBlur stdDeviation="8.5" result="u"/><feFlood flood-color="#93dcff"/><feComposite operator="in" in2="u"/><feComposite in="SourceGraphic"/></filter></defs><path d="M90.696 81.698c87.153-37.954 202.418 27.9 333.149 14.655s246-98.994 303.629-49.8 29.337 93.491 21.829 137.292 82.224 98.293 16.269 157.68-170.194-32.537-265.3-28.783-145.558 54.111-222.758 58.819-171.446-8.76-230.263-81.343S3.543 119.653 90.696 81.698z" fill="#363f6d"/><g opacity=".6"><path d="M372.072 314.016l-.059 23.355 32.939 21.07-.007-23.251z" transform="translate(184.836 -82.073)" fill="url(#a)"/><path d="M589.746 210.897l-32.85 21.041 32.87 21.18 32.918-21.18z" fill="#8c9efc"/></g><path d="M405.044 314v23.36l-32.9 21.066-.041-23.243z" transform="translate(217.957 -95.684)" fill="url(#a)"/><path d="M590.063 197.275l-32.85 21.041 32.87 21.18 32.918-21.18z" fill="#c2cbff" opacity=".6"/><g opacity=".6"><path d="M372.056 314.016l-.044 17.109 24.13 15.435v-17.033z" transform="translate(122.256 -55.55)" fill="url(#a)"/><path d="M518.368 243.048l-24.064 15.413 24.081 15.517 24.113-15.516z" fill="#8c9efc"/></g><path d="M396.236 314v17.113l-24.1 15.432-.03-17.027z" transform="translate(146.494 -65.517)" fill="url(#a)"/><path d="M518.6 233.069l-24.064 15.413L518.617 264l24.113-15.516z" fill="#c2cbff" opacity=".6"/><path d="M633.379 459.379h-152.3v-72.922h152.3z" transform="translate(-481.081 -212.256)" fill="url(#e)"/><path d="M596.386 82.581l106.284 71.987" fill="none" stroke="#8c9efc" stroke-linecap="round" stroke-width="4" stroke-dasharray="5 15"/><path d="M677.975 67.444l45.915 29.41-45.948 29.607-46.006-29.608z" fill="#8c9efc"/><path d="M664.353 437.555l-183.272.982v-52.08h184.348z" transform="translate(13.31 -252.186)" fill="url(#f)"/><path d="M631.936 96.853v59.219l45.983 29.445.058-59.056z" fill="#798cea"/><path d="M723.875 96.86l.083 59.213-46.04 29.451.009-59.067z" fill="#93a5ff"/><path d="M638.698 110.228v5.722l4.443 2.845.006-5.706zm-.727 8.724v5.722l4.443 2.845.006-5.706z" fill="#fff" opacity=".64"/><path d="M645.629 114.356v5.722l24.547 16.161.006-5.706zm-.727 8.724v5.722l24.547 16.161.006-5.706z" fill="rgba(41,62,168,0.62)"/><g opacity=".6"><path d="M418.592 314.3v11.933l-45.883 29.337v-11.743z" transform="translate(305.204 -229.148)" fill="url(#a)"/><g transform="translate(0 .001)" filter="url(#h)"><path d="M678.42 55.486l45.917 29.41-45.95 29.607-46.343-30.227z" fill="#c2cbff" opacity=".6"/></g></g><g transform="translate(631.935 84.116)" fill="url(#a)"><path d="M0 0l.056 12.918L46.04 42.207v-12.6z"/><path d="M91.891 1.089v11.677L45.979 42.328l.012-11.86z"/></g><path d="M637.456 144.11v9.788l32.066 20.3.04-9.556z" fill="#445294"/><g transform="translate(488.957 76.993)"><path d="M34.468 20.02L.05 42.067 34.492 64.26l34.485-22.193z" fill="#8c9efc"/><path d="M68.978 42.066v44.39L34.51 108.528l-.043-44.267z" fill="#93a5ff"/><path d="M66.129 49.75v3.582l-2.781 1.781v-3.572zm0 5.849v3.582l-2.781 1.781V57.39zm0 5.85v3.582l-2.781 1.781V63.24zm0 5.849v3.582l-2.781 1.781v-3.572zm0 5.85v3.582l-2.781 1.781v-3.572zm0 5.849v3.582l-2.781 1.781v-3.572z" opacity=".64" fill="#fff"/><path d="M.063 42.071L.001 86.456l34.511 22.075-.007-44.275z" fill="#798cea"/><path d="M44.7 63.728v3.582l-5.859 3.792V67.53zm0 6.013v3.582l-5.859 3.792v-3.572zm0 6.013v3.582l-5.859 3.792v-3.572zm0 5.697v3.582l-5.859 3.792v-3.572zm0 5.697v3.582l-5.859 3.792V90.95zm0 6.013v3.582l-5.859 3.792v-3.572z" fill="#93dcff"/><path fill="none" stroke="#8c9efc" stroke-linecap="round" stroke-width="4" stroke-dasharray="5 15" d="M92.319 0L24 45.949"/><path d="M61.791 52.334v3.582L46.423 66.034v-3.572zm0 5.849v3.582L46.423 71.883v-3.572zm0 5.85v3.582L46.423 77.733v-3.572zm0 5.849v3.582L46.423 83.582V80.01zm0 5.85v3.582L46.423 89.432V85.86zm0 5.849v3.582L46.423 95.281v-3.572z" fill="rgba(41,62,168,0.62)"/><path d="M3.061 49.75v3.582l2.781 1.781v-3.572z" fill="#fff" opacity=".64"/><path d="M7.717 52.651v3.582l15.367 10.118v-3.572z" fill="#93dcff"/><ellipse cx="7.596" cy="11.393" rx="7.596" ry="11.393" transform="rotate(157 4.956 45.419)" fill="#445294"/></g><g transform="translate(255.179 -.001)"><path d="M683.39 469.621H481.081v-83.164H683.39z" transform="translate(-481.081 -241.443)" fill="url(#l)"/><path d="M16.838 76.4l76.27 16.712L76.561 16.6 0 0z" transform="rotate(135 120.33 88.409)" fill="url(#m)"/><path d="M267.931 65.837v120.169l-65.845 42.164-.082-119.933z" fill="#93a5ff"/><path d="M136.278 65.847l-.119 120.16 65.927 42.172-.013-119.948z" fill="#798cea"/><path d="M254.2 87.222v6.843l-29.357 19.328-.007-6.824zm0 11.174v6.843l-29.357 19.328-.007-6.824zm0 11.175v6.843l-29.357 19.328-.007-6.824zm0 11.174v6.843l-29.357 19.328-.007-6.824zm0 33.013v6.843l-29.357 19.328-.007-6.824zm0-21.838v6.843l-29.357 19.328-.007-6.824zm0 33.012v6.843l-29.357 19.328-.007-6.824zm0-21.838v6.843l-29.357 19.328-.007-6.824zm0 33.013v6.843l-29.357 19.328-.007-6.824z" fill="rgba(41,62,168,0.62)"/><path d="M262.489 82.285v6.843l-5.313 3.4-.007-6.824zm0 11.174v6.843l-5.313 3.4-.007-6.824zm0 9.996v6.843l-5.313 3.4-.007-6.824zm0 11.175v6.843l-5.313 3.4-.007-6.824zm0 33.601v6.843l-5.313 3.4-.007-6.824zm0-22.427v6.843l-5.313 3.4-.007-6.824zm0 33.602v6.843l-5.313 3.4-.007-6.824zm0-22.428v6.843l-5.313 3.4-.007-6.824zm0 33.602v6.843l-5.313 3.4-.007-6.824z" opacity=".64" fill="#fff"/><path d="M221.552 108.988v6.843l-11.194 7.245-.007-6.824zm0 11.487v6.843l-11.194 7.245-.007-6.824zm0 11.488v6.843l-11.194 7.245-.007-6.824zm0 10.882v6.843l-11.194 7.245-.007-6.824zm0 33.012v6.843l-11.194 7.245-.007-6.824zm0-22.129v6.843l-11.194 7.245-.007-6.824zm0 33.012v6.843l-11.194 7.245-.007-6.824zm0-21.525v6.843l-11.194 7.245-.007-6.824zm0 33.013v6.843l-11.194 7.245-.007-6.824z" fill="#93dcff"/><ellipse cx="14.51" cy="21.765" rx="14.51" ry="21.765" transform="rotate(157 75.02 112.792)" fill="#445294"/><path d="M147.312 84.054v6.843l5.313 3.4.007-6.824z" fill="#fff" opacity=".64"/><g transform="translate(-255.178 .004)" filter="url(#n)"><path d="M411.386 89.6v6.843l29.357 19.328.007-6.824z" fill="#93dcff"/></g><path d="M147.312 98.202v6.843l5.313 3.4.007-6.824z" fill="#fff" opacity=".64"/><g transform="translate(-255.178 .002)" filter="url(#p)"><path d="M411.386 103.74v6.843l29.357 19.328.007-6.824z" fill="#93dcff"/></g><path d="M147.312 112.35v6.843l5.313 3.4.007-6.824z" fill="#fff" opacity=".64"/><g transform="translate(-255.178)" filter="url(#r)"><path d="M411.386 117.89v6.843l29.357 19.328.007-6.824z" fill="#93dcff"/></g><path d="M147.312 126.498v6.843l5.313 3.4.007-6.824z" fill="#fff" opacity=".64"/><g transform="translate(-255.178 -.002)" filter="url(#t)"><path d="M411.386 132.04v6.843l29.357 19.328.007-6.824z" fill="#93dcff"/></g><path fill="none" stroke="#8c9efc" stroke-linecap="round" stroke-width="4" stroke-dasharray="5 15" d="M175.188 166.715l-68.319 45.949"/></g><path d="M641.077 438.537h-160v-52.08h160z" transform="translate(-357.002 -135.357)" fill="url(#v)"/><path d="M263.74 261.121l-94.129-63.755" fill="none" stroke="#8c9efc" stroke-linecap="round" stroke-width="4" stroke-dasharray="5 15"/><path d="M335.044 168.575l39.86 25.529-91.596 57.838-39.939-25.701z" fill="#8c9efc"/><path d="M243.344 226.223l.03 50.778 39.965 26v-51.7z" fill="#798cea"/><path d="M251.038 241.232v31.513l24.469 15.669.031-31.426z" fill="#445294"/><path d="M374.899 194.093l.147 51.387-91.711 57.5-.007-51.643z" fill="#93a5ff"/><path d="M368.8 206.067v6.843l-50.541 32.038-.007-6.824zm0 10.062v6.843l-50.541 32.038-.007-6.824zm0 10.062v6.843l-50.541 32.038-.007-6.824zm0 10.062v6.843l-50.541 32.038-.007-6.824z" fill="rgba(41,62,168,0.62)"/><path d="M313.909 240.013v6.843l-11.194 7.245-.007-6.824zm0 10.062v6.843l-11.194 7.245-.007-6.824zm0 10.062v6.843l-11.194 7.245-.007-6.824zm0 10.062v6.843l-11.194 7.245-.007-6.824z" fill="#93dcff"/><path d="M298.181 249.852v6.843l-5.313 3.4-.007-6.824zm0 10.062v6.843l-5.313 3.4-.007-6.824zm0 10.062v6.843l-5.313 3.4-.007-6.824zm0 10.062v6.843l-5.313 3.4-.007-6.824z" opacity=".64" fill="#fff"/><path d="M152.264 105.964l-54.912 35.173 54.956 35.412 55.018-35.411z" fill="#7a8df1"/><path d="M207.326 141.138v70.825l-54.994 35.216-.069-70.629z" fill="#93a5ff"/><path d="M97.367 141.146l-.1 70.817 55.063 35.222-.011-70.643z" fill="#798cea"/><g transform="translate(103.756 178.319)" fill="#445294"><ellipse cx="12.119" cy="18.179" rx="12.119" ry="18.179" transform="rotate(23 32.043 177.447)"/><ellipse cx="12.119" cy="18.179" rx="12.119" ry="18.179" transform="rotate(157 14.843 20.435)"/></g><path d="M199.239 157.134v6.843l-5.313 3.4-.007-6.824z" fill="#fff" opacity=".64"/><path d="M190.949 162.071v6.843l-29.357 19.328-.007-6.824z" fill="rgba(41,62,168,0.62)"/><path d="M151.734 91.665l-54.377 35.2 54.957 35.406 55.059-35.465z" fill="#8c9efc"/><path d="M427.169 314v37.094l-54.994 35.372-.067-37.054z" transform="translate(-219.843 -209.933)" fill="url(#a)"/><path d="M372.1 314.016v37.2l54.953 35.421v-37.225z" transform="translate(-274.733 -209.941)" fill="url(#x)"/><path d="M152.264 68.893l-54.912 35.173 54.956 35.412 55.018-35.411z" fill="#c2cbff" opacity=".6"/></svg>