<svg version="1.0" xmlns="http://www.w3.org/2000/svg" width="666.667" height="666.667" viewBox="0 0 500 500"><path d="M33 2.1C17.8 5.1 4.9 18.4 2 34c-.7 3.7-.9 77.1-.8 220l.3 214.5 2.3 5.5c3.3 8.1 8.5 14.6 15.2 18.9 11 7.1-7.3 6.6 232.5 6.6h217l5.8-2.4c7.7-3 15.1-9.3 19.3-16.1 6.9-11.3 6.5 5.4 6.2-233.1l-.3-215.4-2.1-5.1C492.7 16 485.2 8.4 474 3.8l-5.5-2.3L253 1.4c-120.7-.1-217.5.2-220 .7zm203.6 102c1.8 2.1 1.9 5.9 1.9 145.9s-.1 143.8-1.9 145.9c-1.9 2.1-2.3 2.1-54.3 2.1-51 0-52.4-.1-54.3-2-2-2-2-3.3-2-146s0-144 2-146c1.9-1.9 3.3-2 54.3-2 52 0 52.4 0 54.3 2.1zm93.7 87.4c15.5 3.3 30.6 14.7 37.5 28.5 3.4 6.9 6.2 17.8 6.2 24.5 0 6.6-2.8 17.6-6.1 24.4-4.1 8.2-15.3 20.1-23.9 25.2-7.4 4.4-19.7 7.9-27.5 7.9-6.8 0-19.4-3.3-25.8-6.7-11.2-6.1-21.6-18.5-26-31.1-3-8.6-2.9-24.5.1-33.4 3.2-9.1 8.5-17 16.9-24.9 14-13.2 30.9-18.2 48.6-14.4z"/></svg>