<svg xmlns="http://www.w3.org/2000/svg" width="199.973" height="57.985"><g fill="#434343"><path d="M0 10.81h6.973v15.492h14.706V10.81h6.982v38.027h-6.982V33.02H6.973v15.817H0zm50.751 25.641a5.776 5.776 0 01-11.552 0V20.079h-6.613v16.372a12.388 12.388 0 0024.775 0V20.079h-6.61v16.372m25.071-16.18a10.162 10.162 0 00-7.782 3.122V10.81h-6.634v23.321c0 8.729 6.311 14.707 13.4 14.707 7.883 0 14.789-6.085 14.789-14.283a14.034 14.034 0 00-13.773-14.284zm.165 22.429a8.149 8.149 0 010-16.293c3.809 0 7.249 3.756 7.249 8.147s-3.441 8.146-7.25 8.146zm24.753-20.758c0-3.335 2.222-4.392 4.655-4.392 1.958 0 4.55 1.481 6.241 3.28l4.337-5.078a13.7 13.7 0 00-10.155-4.92c-7.2 0-12.379 4.179-12.379 11.11 0 12.854 15.818 8.78 15.818 15.976a4.552 4.552 0 01-4.653 4.179c-3.916 0-5.186-1.9-6.984-3.915l-4.815 4.972a14.226 14.226 0 0011.428 5.662c6.824 0 12.326-4.232 12.326-10.846 0-14.282-15.817-9.838-15.817-16.027m33.282-2.044c-7.09 0-13.4 5.975-13.4 14.705v23.38h6.634V45.341a10.167 10.167 0 007.781 3.122 14.034 14.034 0 0013.772-14.282c0-8.2-6.908-14.282-14.789-14.282zm1.179 22.43a8.15 8.15 0 010-16.295c3.808 0 7.248 3.756 7.248 8.147s-3.442 8.15-7.25 8.15zm62.443.372c-3.913 0-5.024-1.692-5.024-4.285v-11.48h6.082v-5.818h-6.084v-7.671l-6.716 3.015v23.381c0 5.978 4.125 8.994 9.782 8.994a13.584 13.584 0 002.647-.211l1.64-6.03c-.741.051-1.587.1-2.329.1"/><path d="M180.149 27.275a14.59 14.59 0 00-5.3-5.263 14.224 14.224 0 00-5.357-1.856v-6.952a5.133 5.133 0 003.167-4.806 5.279 5.279 0 10-10.557 0 5.071 5.071 0 003.1 4.806v6.956a15.3 15.3 0 00-4.662 1.461c-3.022-2.3-12.931-9.825-18.728-14.222a5.75 5.75 0 00.243-1.546 5.9 5.9 0 10-2.845 5l1.223.928 16.81 12.112a14.092 14.092 0 00-2.378 2.785 13 13 0 00-2.162 7.006v.532a14.684 14.684 0 00.919 5.063 13.292 13.292 0 002.178 3.783l-5.579 5.593a4.507 4.507 0 102.764 2.884l5.766-5.767a14.818 14.818 0 002.562 1.4 14.983 14.983 0 006 1.26h.4a14.359 14.359 0 0012.206-6.779 13.246 13.246 0 002.082-7.136v-.13a13.991 13.991 0 00-1.844-7.113zm-7.046 12.1a7.333 7.333 0 01-5.4 2.811h-.334a7.3 7.3 0 01-3.41-.905 7.882 7.882 0 01-2.987-2.721 6.346 6.346 0 01-1.244-3.7v-.4a7.588 7.588 0 01.876-3.689 7.989 7.989 0 012.781-3.042 6.807 6.807 0 013.853-1.162h.131a7.808 7.808 0 013.623.835 7.675 7.675 0 012.845 2.589 8.235 8.235 0 011.276 3.637c.021.273.032.553.032.82a7.2 7.2 0 01-2.044 4.932z"/></g></svg>