<svg xmlns="http://www.w3.org/2000/svg" width="199.973" height="64.602"><circle cx="32.301" cy="32.301" r="32.301" fill="#434343"/><path d="M53.843 32.301a4.719 4.719 0 00-7.981-3.236 22.965 22.965 0 00-12.437-3.975l2.1-10.077 6.913 1.453a3.236 3.236 0 10.426-1.975l-7.917-1.582a1 1 0 00-1.2.763v.016l-2.387 11.21a23.138 23.138 0 00-12.6 3.974 4.715 4.715 0 00-6.455 6.873 4.568 4.568 0 001.269.851 10.492 10.492 0 000 1.421c0 7.234 8.431 13.12 18.828 13.12S51.23 45.26 51.23 38.017a10.492 10.492 0 000-1.421 4.715 4.715 0 002.613-4.295zm-32.3 3.236a3.236 3.236 0 113.236 3.236 3.242 3.242 0 01-3.237-3.236zm18.764 8.88a14.04 14.04 0 01-15.962 0 .873.873 0 011.228-1.228 12.349 12.349 0 0013.473.064.903.903 0 111.261 1.293v-.128zm-.578-5.532a2.289 2.289 0 11.136.12h-.161z" fill="#fff"/><g transform="translate(81.944 10.887)" fill="#434343"><circle cx="4.4" cy="4.4" r="4.4" transform="translate(93.869 2.762)"/><path d="M35.914 25.886a3.1 3.1 0 003.308-2.874c.008-.1.008-.209.008-.313a11.161 11.161 0 00-.216-1.783 12.152 12.152 0 00-11.466-9.9c-6.447 0-11.835 5.925-11.835 13.2s5.3 13.208 11.827 13.208a11.741 11.741 0 009.145-3.822 2.554 2.554 0 00-.169-3.613 2.459 2.459 0 00-.233-.193 2.689 2.689 0 00-3.284.337 8.086 8.086 0 01-5.46 2.336 7.359 7.359 0 01-6.744-6.616h15.019zm-8.4-9.9a7.1 7.1 0 016.447 5.5H21.082a7.046 7.046 0 016.432-5.5zM15.97 13.577a2.454 2.454 0 00-2.144-2.441 9.556 9.556 0 00-8.864 3.244v-.321a2.481 2.481 0 10-4.962 0v20.314a2.533 2.533 0 002.32 2.577 2.465 2.465 0 002.634-2.288 1.758 1.758 0 000-.289V23.951a7.54 7.54 0 017.13-7.925 6.485 6.485 0 011.116.024h.5a2.482 2.482 0 002.27-2.473zm84.771 2.666a2.481 2.481 0 10-4.962 0v18.119a2.481 2.481 0 104.962 0zM64.129 2.473A2.474 2.474 0 0061.656 0a2.474 2.474 0 00-2.473 2.473v11.08a8.59 8.59 0 00-6.335-2.537c-6.447 0-11.835 5.925-11.835 13.2s5.307 13.208 11.835 13.208a8.739 8.739 0 006.447-2.561 2.469 2.469 0 003.067 1.67 2.44 2.44 0 001.758-2.192l.008-31.867zm-11.3 30.061c-3.8 0-6.889-3.693-6.889-8.262s3.067-8.262 6.889-8.262 6.889 3.693 6.889 8.262-3.067 8.222-6.873 8.222zm37.17-30.061A2.474 2.474 0 0087.526 0a2.474 2.474 0 00-2.473 2.473v11.08a8.59 8.59 0 00-6.335-2.537c-6.447 0-11.835 5.925-11.835 13.2s5.307 13.208 11.835 13.208a8.739 8.739 0 006.447-2.561 2.469 2.469 0 003.067 1.67 2.439 2.439 0 001.758-2.192l.008-31.867zM78.71 32.534c-3.8 0-6.889-3.693-6.889-8.262s3.067-8.262 6.889-8.262 6.889 3.693 6.889 8.262-3.067 8.222-6.873 8.222zm34.886 1.823V15.986h2.144a2.147 2.147 0 002.272-2.015c0-.04.008-.088.008-.137a2.149 2.149 0 00-1.943-2.328 1.678 1.678 0 00-.2-.008h-2.27V8.086a2.547 2.547 0 00-2.321-2.561 2.47 2.47 0 00-2.634 2.288 1.337 1.337 0 00-.008.177v3.565h-2.152a2.147 2.147 0 00-2.272 2.015c0 .04-.008.088-.008.137a2.149 2.149 0 001.943 2.328 1.68 1.68 0 00.2.008h2.144v18.322a2.474 2.474 0 002.473 2.473 2.471 2.471 0 002.618-2.32 1.02 1.02 0 00.006-.161z"/></g></svg>