<svg xmlns="http://www.w3.org/2000/svg" width="200.002" height="43.028"><path d="M64.73 17.426v-5.524h-5.538V3.036h-7.883v8.866h-4.258v5.521h4.258v12.279c0 7.5 4.819 11.721 13.421 11.783v-6.543c-3.647-.074-5.538-2.281-5.538-6.44V17.426zm105.728-5.524v28.58h-4.7v-28.58zm10.3 0v4.534h.112q2.931-5.2 9.288-5.2a12.378 12.378 0 014.7.776 7.759 7.759 0 013.043 2.155 8.053 8.053 0 011.63 3.289 17.7 17.7 0 01.47 4.229v18.8h-4.7V21.133a5.684 5.684 0 00-1.546-4.2 5.762 5.762 0 00-4.258-1.548 9.6 9.6 0 00-3.733.663 7.027 7.027 0 00-2.623 1.88 8.06 8.06 0 00-1.578 2.848 11.52 11.52 0 00-.525 3.565v16.141h-4.7v-28.58zm-92.225 28.58v-3.98h-.168a8.813 8.813 0 01-3.865 3.594 11.43 11.43 0 01-4.872 1.106 13.7 13.7 0 01-5.165-.831 7.439 7.439 0 01-3.18-2.35 9.2 9.2 0 01-1.633-3.7 23.132 23.132 0 01-.468-4.839v-17.58h7.849v16.141a10.011 10.011 0 001.105 5.278q1.105 1.743 3.924 1.743a5.435 5.435 0 004.64-1.908q1.441-1.905 1.44-6.272V11.902h7.851v28.58h-7.458zm20.155-28.58v3.98h.166a8.987 8.987 0 013.867-3.621 11.219 11.219 0 014.867-1.133 13.4 13.4 0 015.172.855 7.679 7.679 0 013.178 2.378 9.243 9.243 0 011.631 3.7 23.114 23.114 0 01.471 4.836v17.585h-7.85V24.34a10.047 10.047 0 00-1.108-5.281q-1.108-1.74-3.924-1.74a5.445 5.445 0 00-4.646 1.907q-1.436 1.91-1.437 6.276v14.98h-7.851v-28.58h7.464zm32.98 21.727a8.051 8.051 0 009.178.526 4.908 4.908 0 002.1-2.516h6.912q-1.656 5.141-5.086 7.352a14.969 14.969 0 01-8.289 2.213 16.363 16.363 0 01-6.084-1.079 12.62 12.62 0 01-4.588-3.068 13.8 13.8 0 01-2.9-4.754 17.405 17.405 0 01-1.024-6.082 16.75 16.75 0 011.05-5.971 13.832 13.832 0 017.6-7.962 14.824 14.824 0 015.944-1.159 13.6 13.6 0 016.356 1.408 12.708 12.708 0 014.45 3.789 15.587 15.587 0 012.518 5.418 20.263 20.263 0 01.553 6.356h-20.619q.156 3.814 1.929 5.529zm8.872-15.039a5.51 5.51 0 00-4.282-1.548 6.874 6.874 0 00-3.126.637 5.92 5.92 0 00-1.987 1.575 5.8 5.8 0 00-1.055 1.99 8.988 8.988 0 00-.357 1.881H152.5a9.07 9.07 0 00-1.96-4.536zm20.6-15.553a3.035 3.035 0 11-3.031-3.035 3.035 3.035 0 013.034 3.036M19.249 15.025a6.886 6.886 0 116.884-6.885 6.9 6.9 0 01-6.884 6.885M0 17.781a.654.654 0 01.655-.654h18.536a6.059 6.059 0 016.064 6.042v5.384a.657.657 0 01-.658.657.255.255 0 00-.038 0H6.041A6.049 6.049 0 010 23.166zm33.033-.741h5.311a.656.656 0 01.654.654v5.388a6.047 6.047 0 01-6.041 6.041h-5.3a.656.656 0 01-.671-.654v-5.386a6.05 6.05 0 016.044-6.043M24.6 30.946H13.9a.657.657 0 00-.655.655v10.774a.655.655 0 00.672.652h5.3a6.05 6.05 0 006.044-6.043v-5.382a.659.659 0 00-.658-.654" fill="#434343"/></svg>