<svg xmlns="http://www.w3.org/2000/svg" width="200.002" height="42.143"><g fill="#434343"><path d="M0 26.841V8.275a1.033 1.033 0 011.046-1.046h5.492a1.033 1.033 0 011.046 1.046v18.373c0 5.557 2.812 8.5 7.388 8.5s7.388-2.811 7.388-8.238V8.275a1.033 1.033 0 011.046-1.046H28.9a1.033 1.033 0 011.046 1.046v18.308c0 10.4-5.819 15.5-15.038 15.5C5.623 42.078 0 36.913 0 26.841zM38.379 8.275a1.033 1.033 0 011.046-1.046h13.011c8.173 0 13.142 4.838 13.142 11.834v.131c0 7.911-6.146 12.03-13.861 12.03h-5.754v9.284a1.033 1.033 0 01-1.046 1.046h-5.492a1.033 1.033 0 01-1.046-1.046V8.275zm13.468 16.28c3.792 0 5.95-2.223 5.95-5.165v-.065c0-3.4-2.354-5.165-6.146-5.165h-4.838a1.033 1.033 0 00-1.046 1.046v8.435a1.033 1.033 0 001.046 1.046h5.034v-.13zm18.765-.066v-.13A17.413 17.413 0 0188.526 6.641c6.016 0 9.219 1.961 12.488 4.381a1.033 1.033 0 01.2 1.438l-3.077 4.381a1.111 1.111 0 01-1.438.262c-2.615-1.762-5.165-3.462-8.299-3.462-5.754 0-9.938 4.772-9.938 10.657v.262c0 5.884 4.773 10.918 10.657 10.657a10.317 10.317 0 007.453-3.2 1.011 1.011 0 011.373-.065l3.661 3.2a1.029 1.029 0 01.065 1.439c-3.141 3.525-7.326 5.55-13.537 5.55A17.347 17.347 0 0170.612 24.49zm70.939 10.984l3.6-3.4a1.094 1.094 0 011.439 0c2.615 2.484 5.623 3.269 9.219 3.269 3.073 0 4.969-1.242 4.969-3.2v-.131c0-1.9-1.177-2.877-6.931-4.381-6.93-1.765-11.376-3.661-11.376-10.461v-.128c0-6.211 4.969-10.331 12.03-10.331a20.333 20.333 0 0111.965 3.727 1.113 1.113 0 01.262 1.439l-2.812 4.054a1.028 1.028 0 01-1.373.262 15.168 15.168 0 00-8.107-2.811c-2.877 0-4.381 1.307-4.381 3.007v.131c0 2.223 1.438 3.007 7.388 4.511 6.93 1.831 10.853 4.316 10.853 10.265v.131c0 6.8-5.165 10.657-12.618 10.657-4.838 0-10.461-1.373-14.057-5.034a1.023 1.023 0 01-.065-1.569zm32.3-27.2a1.033 1.033 0 011.046-1.046h23.8a1.033 1.033 0 011.046 1.046v4.642a1.033 1.033 0 01-1.046 1.046h-16.348a1.033 1.033 0 00-1.046 1.046v4.9a1.033 1.033 0 001.046 1.046h14.122a1.033 1.033 0 011.046 1.046v4.642a1.033 1.033 0 01-1.046 1.046h-14.122a1.033 1.033 0 00-1.049 1.054v5.165a1.033 1.033 0 001.046 1.046h16.607A1.033 1.033 0 01200 35.997v4.644a1.033 1.033 0 01-1.046 1.046H174.9a1.033 1.033 0 01-1.051-1.046V8.276z"/><path d="M120.129.677c-3.786 5.483-14.556 21.345-18.016 26.763a1.613 1.613 0 00.326 2.089c.848.653 2.023 1.566 2.872 2.285a1.765 1.765 0 002.154-.065c6.2-5.353 7.441-6.332 11.227-9.791a3.913 3.913 0 015.288 0c4.961 4.439 7.18 6.136 11.292 9.857a1.59 1.59 0 002.089.065c.914-.718 2.154-1.632 3-2.285a1.534 1.534 0 00.327-2.089c-3.523-5.484-14.228-21.28-18.014-26.763a1.5 1.5 0 00-2.546-.065z"/></g></svg>