<svg xmlns="http://www.w3.org/2000/svg" width="80.904" height="62.037" viewBox="0 0 80.904 62.037"><g transform="translate(-306.096 -2260)"><rect width="52" height="54" rx="5" transform="translate(335 2260)" fill="#93a5ff" opacity="0.15"/><g transform="translate(306.096 2192.768)"><path d="M58.649,98.176A20.681,20.681,0,0,0,17.728,94.21h-.2a17.53,17.53,0,0,0,0,35.059H58.42a15.547,15.547,0,0,0,.229-31.092Zm-.229,27.937H17.529a14.375,14.375,0,0,1,0-28.749c.423,0,.869.023,1.365.069a1.577,1.577,0,0,0,1.711-1.357A17.526,17.526,0,0,1,55.5,98.463c0,.348-.026.707-.053,1.087l-.012.162a1.578,1.578,0,0,0,1.731,1.681c.419-.042.842-.064,1.258-.064a12.392,12.392,0,0,1,0,24.784Z" fill="#93a5ff"/><path d="M184.888,129.09a13.305,13.305,0,0,0-13.134,11.466,1.577,1.577,0,1,0,3.126.426,10.139,10.139,0,0,1,10.008-8.738,1.577,1.577,0,0,0,0-3.155Z" transform="translate(-146.929 -43.904)" fill="#93a5ff"/></g></g></svg>