<svg xmlns="http://www.w3.org/2000/svg" width="69.548" height="62.46" viewBox="0 0 69.548 62.46"><g transform="translate(-317.452 -2260)"><rect width="52" height="54" rx="5" transform="translate(335 2260)" fill="#93a5ff" opacity="0.15"/><path d="M25.254,0A25.254,25.254,0,1,0,50.508,25.254,25.254,25.254,0,0,0,25.254,0ZM47.1,34.1l-7.182,1.239A37.686,37.686,0,0,0,41.235,26.1H48.8A23.414,23.414,0,0,1,47.1,34.1ZM1.7,26.1H9.273a37.687,37.687,0,0,0,1.321,9.245L3.413,34.1A23.414,23.414,0,0,1,1.7,26.1Zm1.708-9.689,7.182-1.239a37.686,37.686,0,0,0-1.321,9.245H1.7a23.414,23.414,0,0,1,1.708-8.005ZM26.1,13.516a57.911,57.911,0,0,1,9.024.824l2.971.513a36.134,36.134,0,0,1,1.46,9.56H26.1Zm9.311-.835a59.67,59.67,0,0,0-9.311-.848V1.731c4.826.464,9.018,4.882,11.394,11.313Zm-10.995-.848a59.66,59.66,0,0,0-9.31.848l-2.084.36C15.394,6.609,19.586,2.189,24.412,1.727ZM15.389,14.34a57.9,57.9,0,0,1,9.024-.824v10.9H10.956a36.134,36.134,0,0,1,1.46-9.56ZM10.956,26.1H24.412v10.9a57.911,57.911,0,0,1-9.024-.824l-2.971-.513a36.134,36.134,0,0,1-1.46-9.56ZM15.1,37.827a59.871,59.871,0,0,0,9.311.853v10.1c-4.826-.464-9.018-4.883-11.394-11.313ZM26.1,38.68a59.865,59.865,0,0,0,9.31-.853l2.084-.36C35.114,43.9,30.922,48.32,26.1,48.781Zm9.024-2.512a57.9,57.9,0,0,1-9.024.824V26.1H39.552a36.134,36.134,0,0,1-1.46,9.56Zm6.115-11.756a37.687,37.687,0,0,0-1.321-9.245L47.1,16.407A23.414,23.414,0,0,1,48.8,24.412Zm5.009-9.861-6.884-1.188a23.213,23.213,0,0,0-6.7-10.481A23.682,23.682,0,0,1,46.244,14.552ZM17.846,2.883a23.213,23.213,0,0,0-6.7,10.481L4.264,14.551A23.683,23.683,0,0,1,17.846,2.883ZM4.264,35.957l6.884,1.188a23.213,23.213,0,0,0,6.7,10.481A23.682,23.682,0,0,1,4.265,35.957Zm28.4,11.669a23.213,23.213,0,0,0,6.7-10.481l6.884-1.188A23.683,23.683,0,0,1,32.662,47.625Zm0,0" transform="translate(317.952 2271.452)" fill="#93a5ff" stroke="#93a5ff" stroke-width="1"/></g></svg>