<svg xmlns="http://www.w3.org/2000/svg" width="64.01" height="58.46"><g transform="translate(-322.99 -2260)" fill="#93a5ff"><rect width="52" height="54" rx="5" transform="translate(335 2260)" opacity=".15"/><g stroke="#93a5ff" stroke-linejoin="round"><path d="M325.214 2293.653a1.013 1.013 0 001.014-1.014 11.171 11.171 0 0111.158-11.158h24.344v9.092l13.9-10.107-13.9-10.106v9.092h-24.344a13.2 13.2 0 00-13.186 13.186 1.013 1.013 0 001.014 1.015zm38.544-19.309l8.419 6.122-8.419 6.122z" stroke-linecap="round"/><path d="M373.902 2294.667a1.013 1.013 0 00-1.012 1.014 11.171 11.171 0 01-11.16 11.158h-24.34v-9.093l-13.9 10.107 13.9 10.107v-9.093h24.34a13.2 13.2 0 0013.186-13.186 1.013 1.013 0 00-1.014-1.014zm-38.544 19.309l-8.419-6.123 8.419-6.122v12.245z"/></g></g></svg>