<svg xmlns="http://www.w3.org/2000/svg" width="69.548" height="62.46"><g transform="translate(-317.452 -2260)" fill="#93a5ff"><rect width="52" height="54" rx="5" transform="translate(335 2260)" opacity=".15"/><path d="M343.206 2271.452a25.254 25.254 0 1025.254 25.254 25.254 25.254 0 00-25.254-25.254zm21.846 34.1l-7.182 1.239a37.686 37.686 0 001.317-9.239h7.565a23.414 23.414 0 01-1.7 8zm-45.4-8h7.573a37.687 37.687 0 001.321 9.245l-7.181-1.245a23.414 23.414 0 01-1.713-8zm1.708-9.689l7.182-1.239a37.686 37.686 0 00-1.321 9.245h-7.569a23.414 23.414 0 011.708-8.005zm22.692-2.895a57.911 57.911 0 019.024.824l2.971.513a36.134 36.134 0 011.46 9.56h-13.455zm9.311-.835a59.67 59.67 0 00-9.311-.848v-10.102c4.826.464 9.018 4.882 11.394 11.313zm-10.995-.848a59.66 59.66 0 00-9.31.848l-2.084.36c2.372-6.432 6.564-10.852 11.39-11.314zm-9.027 2.507a57.9 57.9 0 019.024-.824v10.9h-13.457a36.134 36.134 0 011.46-9.56zm-4.433 11.76h13.456v10.9a57.911 57.911 0 01-9.024-.824l-2.971-.513a36.134 36.134 0 01-1.46-9.56zm4.144 11.727a59.871 59.871 0 009.311.853v10.1c-4.826-.464-9.018-4.883-11.394-11.313zm11 .853a59.865 59.865 0 009.31-.853l2.084-.36c-2.38 6.433-6.572 10.853-11.394 11.314zm9.024-2.512a57.9 57.9 0 01-9.024.824v-10.892h13.452a36.134 36.134 0 01-1.46 9.56zm6.115-11.756a37.687 37.687 0 00-1.321-9.245l7.182 1.24a23.414 23.414 0 011.7 8.005zm5.009-9.861l-6.884-1.188a23.213 23.213 0 00-6.7-10.481 23.682 23.682 0 0113.58 11.67zm-28.402-11.668a23.213 23.213 0 00-6.7 10.481l-6.882 1.187a23.683 23.683 0 0113.582-11.668zm-13.582 33.074l6.884 1.188a23.213 23.213 0 006.7 10.481 23.682 23.682 0 01-13.583-11.669zm28.4 11.669a23.213 23.213 0 006.7-10.481l6.884-1.188a23.683 23.683 0 01-13.586 11.668zm0 0" stroke="#93a5ff"/></g></svg>