<svg xmlns="http://www.w3.org/2000/svg" width="80.904" height="62.037"><g transform="translate(-306.096 -2260)" fill="#93a5ff"><rect width="52" height="54" rx="5" transform="translate(335 2260)" opacity=".15"/><path d="M364.745 2290.944a20.681 20.681 0 00-40.921-3.966h-.2a17.53 17.53 0 000 35.059h40.892a15.547 15.547 0 00.229-31.092zm-.229 27.937h-40.891a14.375 14.375 0 010-28.749c.423 0 .869.023 1.365.069a1.577 1.577 0 001.711-1.357 17.526 17.526 0 0134.895 2.387c0 .348-.026.707-.053 1.087l-.012.162a1.578 1.578 0 001.731 1.681c.419-.042.842-.064 1.258-.064a12.392 12.392 0 010 24.784z"/><path d="M344.055 2277.954a13.305 13.305 0 00-13.134 11.466 1.577 1.577 0 103.126.426 10.139 10.139 0 0110.008-8.738 1.577 1.577 0 000-3.155z"/></g></svg>