<svg xmlns="http://www.w3.org/2000/svg" width="67.278" height="64.5"><g transform="translate(-319.722 -2260)" fill="#93a5ff"><rect width="52" height="54" rx="5" transform="translate(335 2260)" opacity=".15"/><path d="M368.585 2278.901c-1.123-4.162-9.484-8.256-24.111-8.256s-22.988 4.094-24.11 8.256a.95.95 0 00-.142.475v35.894a.912.912 0 00.114.438c1.146 4.749 11.4 8.293 24.139 8.293 12.714 0 22.948-3.53 24.131-8.261a.958.958 0 00.121-.47v-35.894a.95.95 0 00-.142-.475zm-1.875 24.713a2.386 2.386 0 01-.113.352 2.787 2.787 0 01-.139.288 3.289 3.289 0 01-.224.358 5.318 5.318 0 01-.564.649c-.079.077-.165.152-.252.229a8.012 8.012 0 01-.51.413c-.08.059-.165.116-.249.175-.219.151-.448.3-.7.449-.066.04-.137.078-.206.116a15.878 15.878 0 01-1.045.541c-.364.172-.744.341-1.151.5l-.035.014a37.607 37.607 0 01-8.3 2.109l-.049.007q-.957.141-1.965.251c-.11.012-.225.019-.336.031-.587.061-1.181.117-1.792.162-.279.02-.572.03-.857.048-.46.027-.915.057-1.386.074a67.326 67.326 0 01-4.717-.003c-.471-.016-.926-.048-1.386-.074-.284-.016-.577-.027-.857-.048-.611-.045-1.2-.1-1.792-.162-.111-.012-.226-.019-.336-.031q-1.008-.111-1.965-.251l-.049-.007a37.607 37.607 0 01-8.313-2.105l-.035-.014a24.162 24.162 0 01-1.279-.559 15.278 15.278 0 01-.917-.482c-.068-.039-.14-.077-.206-.116-.251-.147-.48-.3-.7-.449-.083-.058-.17-.115-.249-.175a8.375 8.375 0 01-.51-.413c-.086-.076-.174-.151-.252-.229a5.063 5.063 0 01-.352-.38 3.668 3.668 0 01-.212-.269 3.616 3.616 0 01-.224-.358 3 3 0 01-.139-.288 2.351 2.351 0 01-.113-.352 2.1 2.1 0 01-.072-.47 2.071 2.071 0 01.03-.328.967.967 0 00-.03-.432v-7.2c.027.025.061.049.089.075.211.186.427.372.669.55 3.654 2.764 10.962 4.912 21.554 4.912 10.547 0 17.836-2.13 21.506-4.878a9.876 9.876 0 00.805-.658h0v7.2a.967.967 0 00-.03.432 1.962 1.962 0 01.03.328 2.1 2.1 0 01-.075.468zm.077-20.069v7.2a.967.967 0 00-.03.432 1.962 1.962 0 01.03.328 2.1 2.1 0 01-.077.47 2.386 2.386 0 01-.113.352 2.787 2.787 0 01-.139.288 3.289 3.289 0 01-.224.358 5.318 5.318 0 01-.564.649c-.079.077-.165.152-.252.229a8.012 8.012 0 01-.51.413c-.08.059-.165.116-.249.175-.219.151-.448.3-.7.449-.066.04-.137.078-.206.116a15.878 15.878 0 01-1.045.541c-.364.172-.744.341-1.151.5l-.035.014a37.607 37.607 0 01-8.3 2.107l-.049.007q-.957.141-1.965.251c-.11.012-.225.019-.336.031-.587.061-1.181.117-1.792.162-.279.02-.572.03-.857.048-.46.027-.915.057-1.386.074a67.326 67.326 0 01-4.717-.003c-.471-.016-.926-.048-1.386-.074-.284-.016-.577-.027-.857-.048-.611-.045-1.2-.1-1.792-.162-.111-.012-.226-.019-.336-.031q-1.008-.111-1.965-.251l-.049-.007a37.607 37.607 0 01-8.313-2.105l-.032-.013a24.162 24.162 0 01-1.279-.559 15.278 15.278 0 01-.917-.482c-.068-.039-.14-.077-.206-.116-.251-.147-.48-.3-.7-.449-.083-.058-.17-.115-.249-.175a8.375 8.375 0 01-.51-.413c-.086-.076-.174-.151-.252-.229a5.062 5.062 0 01-.352-.38 3.668 3.668 0 01-.212-.269 3.617 3.617 0 01-.224-.358 3 3 0 01-.139-.288 2.351 2.351 0 01-.113-.352 2.1 2.1 0 01-.076-.468 2.071 2.071 0 01.03-.328.967.967 0 00-.03-.432v-7.202c.116.106.249.21.375.314.07.058.135.116.209.175.291.229.605.455.946.675.071.046.15.09.224.136q.428.266.9.522c.117.063.235.125.356.187q.531.271 1.117.526c.064.028.122.057.187.084a26.205 26.205 0 001.868.701q.6.2 1.241.389c.154.045.306.091.464.134.568.157 1.153.307 1.768.444.084.019.176.035.261.053a43.328 43.328 0 002.278.431q.825.135 1.7.248c.149.019.292.042.443.06.722.087 1.469.162 2.236.226.189.016.386.027.578.041q.921.067 1.884.111a76.285 76.285 0 003.276.079 73.733 73.733 0 003.276-.079q.963-.044 1.884-.111c.192-.015.388-.025.578-.041a59.267 59.267 0 002.236-.226c.151-.018.294-.041.443-.06q.872-.113 1.7-.248a38.32 38.32 0 002.278-.431l.261-.053c.615-.138 1.2-.288 1.768-.444.158-.044.309-.089.464-.134q.642-.188 1.241-.389c.143-.049.288-.1.427-.145.5-.178.987-.363 1.441-.556.065-.027.123-.056.187-.084q.586-.256 1.117-.526c.121-.062.24-.124.356-.187q.476-.255.9-.522c.074-.046.153-.09.224-.136.341-.22.655-.445.946-.675.073-.058.138-.116.209-.175.129-.109.262-.214.379-.314zm-22.313-10.96c13.15 0 22.312 3.834 22.312 7.276s-9.164 7.276-22.312 7.276-22.312-3.834-22.312-7.276 9.16-7.276 22.312-7.276zm22.312 42.4a.989.989 0 00-.031.131c-.55 3.356-9.635 6.948-22.281 6.948s-21.731-3.596-22.281-6.952a1.057 1.057 0 00-.031-.127v-8.162c.027.025.061.049.089.075.211.186.427.372.669.55 3.654 2.764 10.962 4.912 21.554 4.912 10.547 0 17.836-2.13 21.506-4.878a9.876 9.876 0 00.805-.658h0z" stroke="#93a5ff"/></g></svg>